<?xml version="1.0" encoding="utf-8"?>
<!-- Generator: Adobe Illustrator 21.1.0, SVG Export Plug-In . SVG Version: 6.00 Build 0)  -->
<svg version="1.1" id="圖層_1" xmlns="http://www.w3.org/2000/svg" xmlns:xlink="http://www.w3.org/1999/xlink" x="0px" y="0px"
	 viewBox="0 0 37.9 38.2" style="enable-background:new 0 0 37.9 38.2;" xml:space="preserve">
<style type="text/css">
	.st0{fill:#BA9BC9;}
	.st1{fill:#4D0563;}
	.st2{fill:#FFFFFF;}
</style>
<g>
	<g>
		<g>
			<path class="st0" d="M1.9,4.5H27c0.7,0,1.3,0.6,1.3,1.3v30.5c0,0.7-0.6,1.3-1.3,1.3H1.9c-0.7,0-1.3-0.6-1.3-1.3V5.8
				C0.5,5.1,1.1,4.5,1.9,4.5z"/>
		</g>
		<g>
			<path class="st1" d="M27,38.2H1.9c-1,0-1.9-0.8-1.9-1.9V5.8C0,4.8,0.8,4,1.9,4H27c1,0,1.9,0.8,1.9,1.9v8.6h-1.1V5.8
				C27.8,5.4,27.5,5,27,5H1.9C1.4,5,1.1,5.4,1.1,5.8v30.5c0,0.4,0.4,0.8,0.8,0.8H27c0.4,0,0.8-0.4,0.8-0.8V25h1.1v11.3
				C28.9,37.3,28.1,38.2,27,38.2z"/>
		</g>
		<g>
			<rect x="3.2" y="7.2" class="st2" width="22.5" height="27.8"/>
		</g>
		<g>
			<polygon class="st1" points="26.2,35.5 2.7,35.5 2.7,6.6 26.2,6.6 26.2,17.1 25.2,17.1 25.2,7.7 3.7,7.7 3.7,34.5 25.2,34.5 
				25.2,27.7 26.2,27.7 			"/>
		</g>
		<g>
			<g>
				<path class="st2" d="M9.1,3.8h2.7V3.3c0-1.4,1-2.6,2.4-2.8c1.6-0.2,2.9,1.1,2.9,2.6v0.7h2.7c1.1,0,2,0.9,2,2v2.7H7.2V5.8
					C7.2,4.7,8,3.8,9.1,3.8z"/>
				<path class="st1" d="M22.3,9H6.6V5.8c0-1.4,1.1-2.5,2.5-2.5l2.1,0c0-1.7,1.3-3.1,2.9-3.3c0.9-0.1,1.8,0.2,2.4,0.8
					c0.7,0.6,1,1.5,1,2.4v0.1h2.1c1.4,0,2.5,1.1,2.5,2.5V9z M7.7,8h13.5V5.8c0-0.8-0.7-1.5-1.5-1.5h-3.2V3.2c0-0.6-0.3-1.2-0.7-1.6
					c-0.4-0.4-1-0.6-1.6-0.5c-1.1,0.1-1.9,1.1-1.9,2.2v1.1H9.1C8.3,4.4,7.7,5,7.7,5.8V8z"/>
			</g>
			<g>
				<rect x="13.9" y="2.5" class="st1" width="1.1" height="1.3"/>
			</g>
		</g>
		<g>
			<path class="st1" d="M36.4,14.5l-0.7-0.7l1.1-1.1c0.2-0.2,0.2-0.4,0.2-0.6s-0.1-0.4-0.2-0.6l-0.1-0.1c-0.3-0.3-0.8-0.3-1.1,0
				l-1.1,1.1l-0.7-0.7l1.1-1.1c0.7-0.7,1.9-0.7,2.6,0l0.1,0.1c0.3,0.3,0.5,0.8,0.5,1.3c0,0.5-0.2,1-0.5,1.3L36.4,14.5z"/>
		</g>
		<g>
			<polygon class="st2" points="36.3,14.4 21.1,29.7 15.8,32.3 18.4,27 33.7,11.8 			"/>
			<path class="st1" d="M15.8,32.9c-0.1,0-0.3-0.1-0.4-0.2c-0.2-0.2-0.2-0.4-0.1-0.6l2.7-5.3c0-0.1,0.1-0.1,0.1-0.1l15.2-15.2
				c0.2-0.2,0.5-0.2,0.7,0l2.7,2.7c0.2,0.2,0.2,0.5,0,0.7L21.4,30.1c0,0-0.1,0.1-0.1,0.1L16,32.8C15.9,32.8,15.8,32.9,15.8,32.9z
				 M18.9,27.3l-1.9,3.8l3.8-1.9l14.8-14.8l-1.9-1.9L18.9,27.3z"/>
		</g>
		<g>
			<line class="st2" x1="18.4" y1="27" x2="21.1" y2="29.7"/>
			
				<rect x="19.2" y="26.5" transform="matrix(0.7071 -0.7071 0.7071 0.7071 -14.2702 22.2687)" class="st1" width="1.1" height="3.7"/>
		</g>
		<g>
			<rect x="32.8" y="13" transform="matrix(0.7071 -0.7071 0.7071 0.7071 -0.7884 27.9216)" class="st1" width="1.1" height="3.9"/>
		</g>
	</g>
	<g>
		<rect x="12.2" y="13.9" class="st1" width="9.3" height="1.1"/>
	</g>
	<g>
		<rect x="12.2" y="17.9" class="st1" width="9.3" height="1.1"/>
	</g>
	<g>
		<polygon class="st1" points="8.9,16.2 8.2,16.2 6.7,14.7 7.4,13.9 8.3,14.8 9.3,12.7 10.2,13.1 		"/>
	</g>
	<g>
		<polygon class="st1" points="8.9,20.2 8.2,20.2 6.7,18.7 7.4,18 8.3,18.9 9.3,16.8 10.2,17.2 		"/>
	</g>
</g>
</svg>
