<?xml version="1.0" encoding="utf-8"?>
<!-- Generator: Adobe Illustrator 21.1.0, SVG Export Plug-In . SVG Version: 6.00 Build 0)  -->
<svg version="1.1" id="圖層_1" xmlns="http://www.w3.org/2000/svg" xmlns:xlink="http://www.w3.org/1999/xlink" x="0px" y="0px"
	 viewBox="0 0 55 42.9" style="enable-background:new 0 0 55 42.9;" xml:space="preserve">
<style type="text/css">
	.st0{fill:#B3B3B3;}
</style>
<path class="st0" d="M47.3,5.2h-3.2c0.1-0.7,0.1-0.6,0.1-1C44.3,1.8,42.3,0,40,0H15.5c-2.4,0-4.3,1.8-4.3,4.2c0,0.4,0,0.2,0.1,1H7.8
	c-3.9,0-7.8,3.2-7.8,7v23.3c0,3.9,3.9,7.3,7.8,7.3h39.5c3.9,0,7.7-3.5,7.7-7.3V12.2C55,8.3,51.2,5.2,47.3,5.2z M27.6,37.9
	c-7.7,0-14-6.3-14-14c0-7.7,6.3-14,14-14c7.7,0,14,6.3,14,14C41.6,31.6,35.3,37.9,27.6,37.9z M27.6,13.7c-5.8,0-10.4,4.7-10.4,10.4
	c0,5.8,4.7,10.4,10.4,10.4c5.8,0,10.4-4.7,10.4-10.4C38,18.4,33.3,13.7,27.6,13.7z M27.6,32.4c-4.6,0-8.3-3.7-8.3-8.3
	c0-4.6,3.7-8.3,8.3-8.3c4.6,0,8.3,3.7,8.3,8.3C35.9,28.7,32.1,32.4,27.6,32.4z M28.8,17.7c-4.2,0-7.6,3.4-7.6,7.6
	c0,0.6,0.5,1.1,1.1,1.1c0.6,0,1.1-0.5,1.1-1.1c0-3,2.4-5.4,5.4-5.4c0.6,0,1.1-0.5,1.1-1.1C29.9,18.2,29.4,17.7,28.8,17.7z"/>
</svg>
