<?xml version="1.0" encoding="utf-8"?>
<!-- Generator: Adobe Illustrator 21.1.0, SVG Export Plug-In . SVG Version: 6.00 Build 0)  -->
<svg version="1.1" id="圖層_1" xmlns="http://www.w3.org/2000/svg" xmlns:xlink="http://www.w3.org/1999/xlink" x="0px" y="0px"
	 viewBox="0 0 26.9 21" style="enable-background:new 0 0 26.9 21;" xml:space="preserve">
<style type="text/css">
	.st0{fill:#FFFFFF;}
</style>
<path class="st0" d="M23.2,2.5h-1.6c0-0.4,0.1-0.3,0.1-0.5c0-1.2-0.9-2.1-2.1-2.1h-12C6.4,0,5.5,0.9,5.5,2.1c0,0.2,0,0.1,0.1,0.5
	H3.8C1.9,2.5,0,4.1,0,6v11.4C0,19.3,1.9,21,3.8,21h19.3c1.9,0,3.8-1.7,3.8-3.6V6C26.9,4.1,25.1,2.5,23.2,2.5z M13.5,18.5
	c-3.8,0-6.9-3.1-6.9-6.9c0-3.8,3.1-6.9,6.9-6.9c3.8,0,6.9,3.1,6.9,6.9C20.4,15.5,17.3,18.5,13.5,18.5z M13.5,6.7
	c-2.8,0-5.1,2.3-5.1,5.1c0,2.8,2.3,5.1,5.1,5.1c2.8,0,5.1-2.3,5.1-5.1C18.6,9,16.3,6.7,13.5,6.7z M13.5,15.9c-2.2,0-4-1.8-4-4
	c0-2.2,1.8-4,4-4c2.2,0,4,1.8,4,4C17.6,14.1,15.7,15.9,13.5,15.9z M14.1,8.7c-2.1,0-3.7,1.7-3.7,3.7c0,0.3,0.2,0.5,0.5,0.5
	c0.3,0,0.5-0.2,0.5-0.5c0-1.5,1.2-2.7,2.7-2.7c0.3,0,0.5-0.2,0.5-0.5C14.6,8.9,14.4,8.7,14.1,8.7z"/>
</svg>
