<?xml version="1.0" encoding="utf-8"?>
<!-- Generator: Adobe Illustrator 21.1.0, SVG Export Plug-In . SVG Version: 6.00 Build 0)  -->
<svg version="1.1" id="圖層_1" xmlns="http://www.w3.org/2000/svg" xmlns:xlink="http://www.w3.org/1999/xlink" x="0px" y="0px"
	 viewBox="0 0 20.9 25" style="enable-background:new 0 0 20.9 25;" xml:space="preserve">
<style type="text/css">
	.st0{fill:#C1272D;}
</style>
<g id="stopwhatch_26_">
	<g>
		<path class="st0" d="M11.2,12.9V8.7H9.6v4.2c-0.6,0.3-1,0.9-1,1.6c0,0.7,0.4,1.3,0.9,1.6v1.1h1.7v-1.1c0.6-0.3,1.2-0.9,1.2-1.6
			C12.3,13.9,11.7,13.3,11.2,12.9z M18.7,8.3l2.1-2.1l-2-2l-2.1,2.1c-1.5-1.1-3.6-1.9-5.6-2.1V2h1.5V0H8v2h1.5v2.2
			C4.2,4.7,0,9.1,0,14.6C0,20.3,4.7,25,10.4,25c5.8,0,10.4-4.7,10.4-10.4C20.9,12.2,20.1,10,18.7,8.3z M10.4,23.1
			c-4.7,0-8.5-3.8-8.5-8.5C1.9,9.8,5.7,6,10.4,6S19,9.8,19,14.6C19,19.3,15.1,23.1,10.4,23.1z"/>
	</g>
</g>
</svg>
