<?xml version="1.0" encoding="utf-8"?>
<!-- Generator: Adobe Illustrator 21.1.0, SVG Export Plug-In . SVG Version: 6.00 Build 0)  -->
<svg version="1.1" id="圖層_1" xmlns="http://www.w3.org/2000/svg" xmlns:xlink="http://www.w3.org/1999/xlink" x="0px" y="0px"
	 viewBox="0 0 43.8 38.9" style="enable-background:new 0 0 43.8 38.9;" xml:space="preserve">
<style type="text/css">
	.st0{fill:#BA9BC9;}
	.st1{fill:#FFFFFF;}
	.st2{fill:#4D0563;}
</style>
<g>
	<g>
		<polygon class="st0" points="21.9,8.6 8.5,16.5 21.9,24.4 35.3,16.5 		"/>
	</g>
	<g>
		<polygon class="st1" points="8.8,25.5 8.8,30.2 21.9,38 35,30.2 35,25.5 		"/>
	</g>
	<g>
		<polygon class="st2" points="21.9,38.9 8.1,30.6 8.1,25.5 9.6,25.5 9.6,29.7 21.9,37.2 34.2,29.7 34.2,25.5 35.7,25.5 35.7,30.6 
					"/>
	</g>
	<g>
		<polygon class="st1" points="42.4,21.3 29,29.1 21.9,24.4 35.3,16.5 		"/>
		<path class="st2" d="M29,30l-8.5-5.7l14.8-8.7l8.5,5.7L29,30z M23.3,24.4l5.7,3.8l12-7l-5.7-3.8L23.3,24.4z"/>
	</g>
	<g>
		<polygon class="st1" points="1.4,21.3 14.8,29.1 21.9,24.4 8.5,16.5 		"/>
		<path class="st2" d="M14.8,30L0,21.3l8.5-5.7l14.8,8.7L14.8,30z M2.8,21.2l12,7l5.7-3.8l-12-7L2.8,21.2z"/>
	</g>
	<g>
		<polygon class="st1" points="42.4,11.8 29,3.9 21.9,8.6 35.3,16.5 		"/>
		<path class="st2" d="M35.4,17.4L20.5,8.7L29,3l14.8,8.7L35.4,17.4z M23.3,8.6l12,7l5.7-3.8l-12-7L23.3,8.6z"/>
	</g>
	<g>
		<polygon class="st1" points="1.4,11.8 14.8,3.9 21.9,8.6 8.5,16.5 		"/>
		<path class="st2" d="M8.5,17.4L0,11.8L14.8,3l8.5,5.7L8.5,17.4z M2.8,11.8l5.7,3.8l12-7l-5.7-3.8L2.8,11.8z"/>
	</g>
	<g>
		<rect x="21.2" y="26.9" class="st2" width="1.5" height="11"/>
	</g>
	<g>
		<polygon class="st1" points="25.4,11.1 25.4,0.7 18.5,0.7 18.5,11.1 14.8,11.1 21.9,19 29,11.1 		"/>
		<path class="st2" d="M21.9,20.1l-8.8-9.8h4.6V0h8.4v10.3h4.6L21.9,20.1z M16.5,11.8l5.4,6l5.4-6h-2.7V1.5h-5.4v10.3H16.5z"/>
	</g>
</g>
</svg>
