<?xml version="1.0" encoding="utf-8"?>
<!-- Generator: Adobe Illustrator 21.1.0, SVG Export Plug-In . SVG Version: 6.00 Build 0)  -->
<svg version="1.1" id="圖層_1" xmlns="http://www.w3.org/2000/svg" xmlns:xlink="http://www.w3.org/1999/xlink" x="0px" y="0px"
	 viewBox="0 0 43.4 39.6" style="enable-background:new 0 0 43.4 39.6;" xml:space="preserve">
<style type="text/css">
	.st0{fill:#FFFFFF;}
	.st1{fill:#E9EAEB;}
	.st2{fill:#4D0563;}
	.st3{fill:#BA9BC9;}
</style>
<g>
	<g>
		<polygon class="st0" points="18.3,38.5 36.2,29.2 36.2,9.6 18.3,0.6 0.6,9.6 0.6,29.2 		"/>
	</g>
	<g>
		<polygon class="st1" points="0.6,9.6 18.4,18.9 18.4,38.5 0.6,29.2 		"/>
	</g>
	<g>
		<path class="st2" d="M18.3,39.1L0,29.5V9.3L18.3,0l18.4,9.3v20.2L18.3,39.1z M1.1,28.8l17.2,9l17.3-9V10L18.3,1.2L1.1,10V28.8z"/>
	</g>
	<g>
		<polyline class="st0" points="0.6,9.6 18.4,18.9 36.3,9.6 		"/>
		<polygon class="st2" points="18.4,19.6 0.3,10.1 0.8,9.1 18.4,18.3 36,9.1 36.5,10.1 		"/>
	</g>
	<g>
		<rect x="17.8" y="19.2" class="st2" width="1.1" height="19.3"/>
	</g>
	<g>
		<polygon class="st3" points="24.6,3.7 7.2,13.2 7.2,16.9 8,17 9.3,18.4 10.6,18.7 11.7,19.7 11.7,15.5 29.3,6.1 		"/>
		<path class="st2" d="M12.2,21l-1.9-1.8L9,18.9l-1.3-1.4l-1-0.1v-4.5l17.9-9.8l5.9,3l-18.2,9.7V21z M9.6,17.9l1.3,0.3l0.2,0.2v-3.3
			l16.9-9l-3.5-1.8L7.8,13.6v2.9l0.5,0.1L9.6,17.9z"/>
	</g>
	<g>
		<polygon class="st0" points="37.7,29.2 37.7,16.6 29.3,16.6 29.3,29.2 24.9,29.2 33.5,38.7 42.2,29.2 		"/>
		<path class="st2" d="M33.5,39.6l-9.9-11h5.1V16h9.5v12.6h5.1L33.5,39.6z M26.1,29.7l7.4,8.2l7.4-8.2h-3.8V17.2h-7.3v12.6H26.1z"/>
	</g>
</g>
</svg>
