<?xml version="1.0" encoding="utf-8"?>
<!-- Generator: Adobe Illustrator 21.1.0, SVG Export Plug-In . SVG Version: 6.00 Build 0)  -->
<svg version="1.1" id="圖層_1" xmlns="http://www.w3.org/2000/svg" xmlns:xlink="http://www.w3.org/1999/xlink" x="0px" y="0px"
	 viewBox="0 0 20.5 28.5" style="enable-background:new 0 0 20.5 28.5;" xml:space="preserve">
<style type="text/css">
	.st0{fill:#B3B3B3;}
</style>
<path class="st0" d="M18.8,28.5c-5.7,0-11.4,0-17.1,0C0.7,28,0,27.4,0,26.2c0-4,0-8.1,0-12.1c0-1.3,1-2.2,2.3-2.3c0.3,0,0.6,0,0.9,0
	c0-0.3,0-0.6,0-0.8c0-1.6,0-3.1,0-4.7c0-2.2,1-3.9,2.9-5.1c2.2-1.4,4.6-1.6,7.1-0.6c2.7,1,4.1,3.1,4.1,6c0,1.5,0,2.9,0,4.4
	c0,0.3,0,0.5,0,0.8c0.2,0,0.3,0.1,0.4,0.1c2.1,0.1,2.8,0.8,2.8,2.9c0,3.6,0,7.2,0,10.8C20.5,26.9,20.1,27.9,18.8,28.5z M6.3,11.8
	c2.7,0,5.3,0,8,0c0-1.8,0-3.6,0-5.3c0.1-1.5-0.7-2.4-1.9-3c-1.6-0.7-3.2-0.7-4.8,0.3c-0.7,0.4-1.3,1-1.3,1.9
	C6.2,7.7,6.3,9.7,6.3,11.8z M12.2,24.4c-0.2-1.2-0.4-2.4-0.7-3.5c-0.1-0.4-0.1-0.8,0.3-1.1c0.9-0.9,0.9-2.3,0-3.2
	c-0.9-0.9-2.3-0.8-3.2,0c-0.9,0.9-0.9,2.3,0,3.2C9,20.2,9,20.5,8.9,21c-0.2,1.1-0.4,2.3-0.7,3.5C9.6,24.4,10.9,24.4,12.2,24.4z"/>
</svg>
