<?xml version="1.0" encoding="utf-8"?>
<!-- Generator: Adobe Illustrator 21.1.0, SVG Export Plug-In . SVG Version: 6.00 Build 0)  -->
<svg version="1.1" id="圖層_1" xmlns="http://www.w3.org/2000/svg" xmlns:xlink="http://www.w3.org/1999/xlink" x="0px" y="0px"
	 viewBox="0 0 24.7 24" style="enable-background:new 0 0 24.7 24;" xml:space="preserve">
<style type="text/css">
	.st0{fill-rule:evenodd;clip-rule:evenodd;fill:#B3B3B3;}
</style>
<path class="st0" d="M23,19c-2.2-1.5-5.5-0.7-7.6-3.5c0,0-0.8-0.9,1-3c1.7-2.1,1.9-5.5,1.5-8.1C17.4,1.7,14.9,0,12.3,0
	s-5,1.7-5.5,4.4c-0.4,2.6-0.3,6,1.5,8.1s1,3,1,3c-2.1,2.8-5.4,1.9-7.6,3.5C-0.5,20.5,0.1,24,0.1,24h12.3h12.3
	C24.6,24,25.2,20.5,23,19z"/>
</svg>
