<?xml version="1.0" encoding="utf-8"?>
<!-- Generator: Adobe Illustrator 21.1.0, SVG Export Plug-In . SVG Version: 6.00 Build 0)  -->
<svg version="1.1" id="圖層_1" xmlns="http://www.w3.org/2000/svg" xmlns:xlink="http://www.w3.org/1999/xlink" x="0px" y="0px"
	 viewBox="0 0 24.7 24" style="enable-background:new 0 0 24.7 24;" xml:space="preserve">
<style type="text/css">
	.st0{fill-rule:evenodd;clip-rule:evenodd;fill:#FFFFFF;}
</style>
<path class="st0" d="M23,18.6c-2.1-1.5-5.4-0.7-7.4-3.4c0,0-0.8-0.9,0.9-2.9s1.8-5.4,1.4-8C17.5,1.7,15.1,0,12.6,0S7.7,1.7,7.3,4.3
	c-0.4,2.6-0.3,5.9,1.4,8s0.9,2.9,0.9,2.9c-2,2.7-5.3,1.9-7.4,3.4c-2.1,1.5-1.6,5-1.6,5h12h12C24.6,23.5,25.2,20.1,23,18.6z"/>
</svg>
