<?xml version="1.0" encoding="utf-8"?>
<!-- Generator: Adobe Illustrator 21.1.0, SVG Export Plug-In . SVG Version: 6.00 Build 0)  -->
<svg version="1.1" id="圖層_1" xmlns="http://www.w3.org/2000/svg" xmlns:xlink="http://www.w3.org/1999/xlink" x="0px" y="0px"
	 viewBox="0 0 29.2 26.9" style="enable-background:new 0 0 29.2 26.9;" xml:space="preserve">
<style type="text/css">
	.st0{fill:#FFFFFF;}
</style>
<path class="st0" d="M4.5,22.4c-1.2,0-2.4,0-3.5,0c-1,0-1-0.1-1-1c0-2.2,0-4.5,0-6.7c0-2,1.4-3.4,3.4-3.5c0.3,0,0.7,0,1,0
	c0-0.3,0-0.6,0-0.8c0-2.8,0-5.6,0-8.4c0-1.4,0.6-2,2-2c3.7,0,7.5,0,11.2,0C19,0,20,0.4,20.9,1.3c0.8,0.8,1.5,1.5,2.3,2.3
	c0.9,0.9,1.4,2,1.4,3.4c0,1.4,0,2.7,0,4.2c0.5,0,0.8,0,1.2,0c1.8,0.1,3.2,1.4,3.3,3.3c0,2.4,0,4.7,0,7.1c0,0.6-0.3,0.8-0.8,0.8
	c-1.2,0-2.4,0-3.7,0c0,0.9,0,1.7,0,2.6c0,1.3-0.6,2-1.9,2c-5.4,0-10.8,0-16.2,0c-1.3,0-1.9-0.6-2-2C4.5,24.1,4.5,23.3,4.5,22.4z
	 M6.7,13.4c5.2,0,10.4,0,15.6,0c0-2.2,0-4.4,0-6.6c-0.1,0-0.1-0.1-0.2-0.1c-0.8,0-1.6,0-2.4,0c-1.2,0-1.8-0.7-1.8-1.8
	c0-0.8,0-1.7,0-2.6c-3.8,0-7.5,0-11.2,0C6.7,6,6.7,9.7,6.7,13.4z M22.4,20.2c-5.3,0-10.4,0-15.6,0c0,1.5,0,2.9,0,4.4
	c5.2,0,10.4,0,15.6,0C22.4,23.1,22.4,21.7,22.4,20.2z M26.9,14.6c0-0.6-0.5-1.2-1.1-1.2c-0.6,0-1.1,0.6-1.1,1.2
	c0,0.6,0.5,1.1,1.1,1.1C26.4,15.7,26.9,15.2,26.9,14.6z"/>
</svg>
