<?xml version="1.0" encoding="utf-8"?>
<!-- Generator: Adobe Illustrator 21.1.0, SVG Export Plug-In . SVG Version: 6.00 Build 0)  -->
<svg version="1.1" id="圖層_1" xmlns="http://www.w3.org/2000/svg" xmlns:xlink="http://www.w3.org/1999/xlink" x="0px" y="0px"
	 viewBox="0 0 25 23.3" style="enable-background:new 0 0 25 23.3;" xml:space="preserve">
<style type="text/css">
	.st0{fill:#808080;}
</style>
<g>
	<path class="st0" d="M0,10c0,5.5,4.5,10,10,10c2.2,0,4.3-0.7,5.9-2l4.9,4.5c1,0.9,2.6,0.9,3.5-0.1c0.4-0.5,0.7-1.1,0.7-1.7
		c0-0.7-0.3-1.3-0.8-1.8l-5.1-4.7c0.6-1.3,1-2.7,1-4.3c0-5.5-4.5-10-10-10C4.5,0,0,4.5,0,10z M17.3,10c0,4-3.3,7.3-7.3,7.3
		c-4,0-7.3-3.3-7.3-7.3C2.7,6,6,2.7,10,2.7C14.1,2.7,17.3,6,17.3,10z"/>
</g>
</svg>
