<?xml version="1.0" encoding="utf-8"?>
<!-- Generator: Adobe Illustrator 21.1.0, SVG Export Plug-In . SVG Version: 6.00 Build 0)  -->
<svg version="1.1" id="圖層_1" xmlns="http://www.w3.org/2000/svg" xmlns:xlink="http://www.w3.org/1999/xlink" x="0px" y="0px"
	 viewBox="0 0 35.1 43" style="enable-background:new 0 0 35.1 43;" xml:space="preserve">
<style type="text/css">
	.st0{fill:#FFFFFF;}
	.st1{fill:#E9EAEB;}
	.st2{fill:#4D0563;}
	.st3{fill:#BA9BC9;}
</style>
<g>
	<g>
		<g>
			<polygon class="st0" points="17.5,36.7 34.5,27.8 34.5,9.2 17.5,0.6 0.5,9.2 0.5,27.8 			"/>
		</g>
		<g>
			<polygon class="st1" points="0.5,9.2 17.5,18.1 17.5,36.7 0.5,27.8 			"/>
		</g>
		<g>
			<path class="st2" d="M17.5,37.3L0,28.2V8.9L17.5,0l17.6,8.9v19.3L17.5,37.3z M1.1,27.5l16.4,8.6L34,27.5v-18L17.5,1.2L1.1,9.5
				V27.5z"/>
		</g>
		<g>
			<polyline class="st0" points="0.5,9.2 17.5,18.1 34.6,9.2 			"/>
			<polygon class="st2" points="17.5,18.7 0.3,9.7 0.8,8.7 17.5,17.5 34.4,8.7 34.9,9.7 			"/>
		</g>
		<g>
			<rect x="17" y="18.3" class="st2" width="1.1" height="18.4"/>
		</g>
		<g>
			<polygon class="st3" points="23.4,3.6 6.9,12.6 6.9,16.2 7.6,16.3 8.9,17.6 10.1,17.9 11.2,18.8 11.2,14.8 28,5.8 			"/>
			<path class="st2" d="M11.7,20.1l-1.8-1.7l-1.3-0.3l-1.2-1.3l-1-0.1v-4.3L23.4,3l5.7,2.9l-17.4,9.3V20.1z M9.1,17.1l1.3,0.3
				l0.2,0.2v-3.2l16.2-8.6l-3.3-1.7L7.4,13v2.8l0.4,0.1L9.1,17.1z"/>
		</g>
	</g>
	<g>
		<polygon class="st0" points="21.2,29.6 9.2,29.6 9.2,37.5 21.2,37.5 21.2,41.8 30.3,33.6 21.2,25.3 		"/>
		<path class="st2" d="M20.7,43v-4.9h-12v-9h12v-4.9l10.5,9.4L20.7,43z M9.7,37h12v3.6l7.8-7.1l-7.8-7.1v3.6h-12V37z"/>
	</g>
</g>
</svg>
