<?xml version="1.0" encoding="utf-8"?>
<!-- Generator: Adobe Illustrator 21.1.0, SVG Export Plug-In . SVG Version: 6.00 Build 0)  -->
<svg version="1.1" id="圖層_1" xmlns="http://www.w3.org/2000/svg" xmlns:xlink="http://www.w3.org/1999/xlink" x="0px" y="0px"
	 viewBox="0 0 44.2 40.5" style="enable-background:new 0 0 44.2 40.5;" xml:space="preserve">
<style type="text/css">
	.st0{fill:#FFFFFF;}
	.st1{fill:#4D0563;}
	.st2{fill:#E9EAEB;}
	.st3{fill:#BA9BC9;}
</style>
<g>
	<g>
		<path class="st0" d="M43.6,17.5c-0.1-0.9-0.8-6.1-1.5-7.9c-0.8-0.1-1.8,0.5-2.6,1.8c-0.8,1.2-1.1,2.7-0.4,4.7l-0.9,3.5
			c-0.6-0.2-1.4,0-2,0.7c-0.6,0.6-1.6,1.6-3.2,3.2c-0.5,0.5-2.6,0.3-3.4,1c-0.3,0.3-1.9,1.9-2.6,2.7c-0.8,0.8-1.1,2.4-1.1,3.5
			c0,1.7,0,6,0,6s7.4,0,8.8,0c0-1.5-0.2-2.5,0.6-3.4c0.7-0.7,6.9-6.9,7.6-7.6C43.1,24.7,43.7,18.4,43.6,17.5z"/>
	</g>
	<g>
		<path class="st1" d="M35.2,37.2h-9.9v-6.6c0-1.3,0.4-3,1.3-3.9c0.5-0.5,1.3-1.3,1.8-1.9c0.4-0.4,0.7-0.7,0.8-0.8
			c0.5-0.5,1.5-0.7,2.3-0.8c0.4-0.1,0.9-0.1,1.1-0.2l3.1-3.1c0.7-0.7,1.4-0.9,2-0.9l0.8-2.9c-0.6-1.9-0.4-3.5,0.5-5
			c0.9-1.4,2.1-2.2,3.2-2.1l0.3,0l0.1,0.3c0.7,1.8,1.4,7.1,1.5,8c0.1,1-0.5,7.4-0.8,8.4l0,0.1l-0.1,0.1c-0.3,0.3-1.2,1.2-2.4,2.4
			c-2.1,2.1-4.7,4.7-5.2,5.2c-0.5,0.5-0.5,1.1-0.5,2.3c0,0.2,0,0.5,0,0.8V37.2z M26.4,36.1H34c0-0.1,0-0.1,0-0.2
			c0-1.2-0.1-2.2,0.8-3.1c0.4-0.4,3.1-3.1,5.2-5.2c1-1,1.9-1.9,2.3-2.3c0.3-1.3,0.8-7.1,0.7-7.9c-0.1-0.9-0.7-5.4-1.3-7.3
			c-0.5,0.1-1.2,0.6-1.8,1.6c-0.8,1.2-0.9,2.6-0.4,4.2l0,0.2l-0.9,3.2c0.3,0.1,0.5,0.3,0.7,0.5c0.9,0.9,1.2,2.6,0,3.9l-4.4,4.4
			l-0.8-0.8l4.4-4.4c0.8-0.8,0.6-1.8,0-2.3c-0.5-0.5-1.4-0.8-2.3,0.1l-3.2,3.2c-0.3,0.3-0.9,0.4-1.7,0.5c-0.6,0.1-1.4,0.2-1.7,0.5
			c-0.1,0.1-0.4,0.4-0.8,0.8c-0.6,0.6-1.4,1.4-1.9,1.9c-0.6,0.6-0.9,2-0.9,3.1V36.1z"/>
	</g>
	<g>
		<polyline class="st2" points="36.6,40.5 36.6,35.1 24.3,35.1 24.3,40.5 		"/>
	</g>
	<g>
		<polygon class="st1" points="37.1,40.5 36,40.5 36,35.7 24.9,35.7 24.9,40.5 23.8,40.5 23.8,34.6 37.1,34.6 		"/>
	</g>
	<g>
		<rect x="26.6" y="37.7" class="st1" width="2.3" height="1.1"/>
	</g>
	<g>
		<path class="st0" d="M17.2,27.2c-0.8-0.8-2.2-2.3-2.6-2.7c-0.8-0.8-2.9-0.6-3.4-1c-1.6-1.6-2.5-2.5-3.2-3.2
			c-0.7-0.7-1.5-0.8-2.2-0.6l-0.8-3.6c0.6-2,0.4-3.5-0.4-4.7C3.9,10.1,2.8,9.5,2,9.6c-0.7,1.8-1.4,7-1.5,7.9
			c-0.1,0.9,0.5,7.3,0.8,8.2c0.7,0.7,6.9,6.9,7.6,7.6c0.9,0.9,0.6,1.9,0.6,3.4c1.3,0,8.6,0,8.6,0s0-4.3,0-6
			C18.2,29.6,17.9,27.9,17.2,27.2z"/>
	</g>
	<g>
		<path class="st1" d="M18.7,37.2H9v-0.6c0-0.3,0-0.5,0-0.8c0-1.1,0-1.7-0.5-2.3c-0.4-0.5-3.2-3.2-5.3-5.3c-1.1-1.1-2.1-2-2.3-2.3
			L0.8,26l0-0.1c-0.3-1-0.9-7.4-0.8-8.4c0.1-1,0.8-6.2,1.5-8l0.1-0.3l0.3,0C3,8.9,4.2,9.7,5.1,11.1c0.9,1.5,1.1,3.1,0.5,5L6.3,19
			c0.7,0,1.4,0.2,2.1,0.9l3.2,3.2c0.1,0.1,0.7,0.2,1,0.2c0.8,0.1,1.8,0.3,2.3,0.8c0.1,0.1,0.4,0.5,0.8,0.9c0.6,0.6,1.3,1.3,1.7,1.8
			c0.9,0.9,1.2,2.6,1.2,3.9V37.2z M10.1,36.1h7.5v-5.5c0-1.1-0.3-2.5-0.9-3.1c-0.5-0.5-1.2-1.2-1.8-1.8c-0.4-0.4-0.7-0.7-0.8-0.8
			c-0.3-0.3-1.1-0.4-1.7-0.5c-0.7-0.1-1.3-0.2-1.7-0.5l-3.2-3.2c-0.9-0.9-1.8-0.6-2.3-0.1c-0.5,0.5-0.8,1.5,0,2.3l4.4,4.4l-0.8,0.8
			l-4.4-4.4c-1.3-1.3-1-3,0-3.9c0.2-0.2,0.4-0.3,0.6-0.5l-0.7-3.3l0-0.1c0.5-1.7,0.4-3-0.4-4.2c-0.6-0.9-1.3-1.4-1.8-1.6
			c-0.6,1.9-1.2,6.4-1.3,7.3c0,0.8,0.5,6.7,0.7,7.9C2.2,25.8,3,26.6,4,27.6c2.1,2.1,4.8,4.8,5.3,5.3c0.9,0.9,0.9,1.9,0.8,3.1
			C10.1,36,10.1,36.1,10.1,36.1z"/>
	</g>
	<g>
		<polyline class="st2" points="7.4,40.5 7.4,35.1 19.7,35.1 19.7,40.5 		"/>
	</g>
	<g>
		<polygon class="st1" points="20.3,40.5 19.2,40.5 19.2,35.7 8,35.7 8,40.5 6.9,40.5 6.9,34.6 20.3,34.6 		"/>
	</g>
	<g>
		<rect x="15.1" y="37.7" class="st1" width="2.3" height="1.1"/>
	</g>
	<g>
		<polygon class="st3" points="22,22.1 31.2,16.8 31.2,6.2 22,0.6 12.8,6.2 12.8,16.8 		"/>
		<path class="st1" d="M22,22.7l-9.7-5.6V5.9L22,0l9.7,5.9v11.2L22,22.7z M13.4,16.5l8.6,5l8.6-5v-10L22,1.3l-8.6,5.2V16.5z"/>
	</g>
	<g>
		<polygon class="st1" points="22,12.1 15.6,8 16.2,7.1 22,10.8 27.9,7.1 28.5,8 		"/>
	</g>
	<g>
		<rect x="21.5" y="12.1" class="st1" width="1.1" height="6.9"/>
	</g>
</g>
</svg>
