<?xml version="1.0" encoding="utf-8"?>
<!-- Generator: Adobe Illustrator 21.1.0, SVG Export Plug-In . SVG Version: 6.00 Build 0)  -->
<svg version="1.1" id="圖層_1" xmlns="http://www.w3.org/2000/svg" xmlns:xlink="http://www.w3.org/1999/xlink" x="0px" y="0px"
	 viewBox="0 0 148 148" style="enable-background:new 0 0 148 148;" xml:space="preserve">
<style type="text/css">
	.st0{fill:#BBBDDF;}
	.st1{fill:#CCCCCC;}
	.st2{fill:#BA9BC9;}
	.st3{fill:#FFFFFF;}
	.st4{fill:#4D0563;}
	.st5{opacity:0.3;}
</style>
<g>
	<g>
		<path class="st0" d="M128.9,148H19.1C8.6,148,0,139.4,0,128.9V19.1C0,8.6,8.6,0,19.1,0h109.8C139.4,0,148,8.6,148,19.1v109.8
			C148,139.4,139.4,148,128.9,148z"/>
	</g>
	<g>
		<g>
			<path d="M22.9,125.7c-0.1,2.5-0.3,4.8-0.8,6.8l-1.3-0.3c0.4-1.8,0.7-4,0.9-6.6L22.9,125.7z M31,111.9h-3.2v2.7h2.6v1.3h-2.6v2.6
				h2.6v1.4h-2.6v2.8h2.6c0,1.6,0.1,2.8,0.1,3.8c0,2-0.1,3.6-0.2,4.8s-0.3,2-0.6,2.3s-0.6,0.6-1.1,0.7c-0.4,0.1-1.2,0.2-2.3,0.2
				L26,133c0.3,0,0.9,0,1.7,0c0.6,0,1-0.3,1.2-0.8c0.2-0.5,0.4-2.3,0.4-5.5c0-1,0-1.9-0.1-2.7h-6.9v-13.5H31V111.9z M24.8,132.1
				l-1.1,0.2c0-0.9,0.1-1.7,0.1-2.6c0-1.5-0.1-2.8-0.2-3.9l1.1-0.2c0.2,2.6,0.2,4.3,0.2,5C24.9,131.1,24.9,131.6,24.8,132.1z
				 M26.4,114.6v-2.7h-2.7v2.7H26.4z M26.4,118.6V116h-2.7v2.6H26.4z M26.4,122.7v-2.8h-2.7v2.8H26.4z M27,131l-1.1,0.2
				c-0.1-2.1-0.3-3.9-0.6-5.5l1-0.2C26.6,127,26.9,128.8,27,131z M28.7,129.5l-1,0.2c-0.1-1-0.4-2.5-0.8-4.4l0.9-0.2
				C28.1,125.8,28.4,127.2,28.7,129.5z M45.4,116.6l-0.7,1.2c-2.7-1.5-5-3.4-6.8-5.9c-1.5,2-3.6,4-6.4,5.8l-0.9-1.2
				c3.2-2.1,5.5-4.3,6.9-6.8l1.4,0.5c-0.1,0.1-0.1,0.3-0.2,0.5C40.4,113.1,42.7,115.1,45.4,116.6z M37.6,131.7l-1,1
				c-0.4-0.6-1.1-1.4-2.1-2.4c-0.8,1.6-1.7,2.9-2.6,4l-1.1-0.8c1.7-2.1,2.9-4.4,3.7-6.9l1.3,0.5c-0.3,0.8-0.5,1.4-0.7,1.9
				C35.9,129.8,36.8,130.7,37.6,131.7z M37.2,126h-5.3v-6.7h5.3V126z M35.9,124.7v-4h-2.7v4H35.9z M41.6,117.4h-7.5v-1.3h7.5V117.4z
				 M45.4,133.3l-1,1c-1.1-1.5-2.3-2.7-3.4-3.6c-0.7,1.4-1.6,2.6-2.6,3.7l-1.1-0.9c1.6-1.8,2.9-4.1,3.9-7l1.4,0.5
				c-0.3,0.8-0.6,1.6-1,2.4C43.2,130.9,44.5,132.2,45.4,133.3z M44.1,126h-5.4v-6.7h5.4V126z M42.8,124.7v-4H40v4H42.8z"/>
		</g>
		<g>
			<path d="M57.8,134.4h-1.4v-7.7c-2,1.1-4.1,2-6.4,2.9l-0.6-1.8c0.4-0.2,0.6-0.6,0.6-1v-14.4h1.4v15.1c2-0.7,3.6-1.5,5-2.4v-15.3
				h1.4V134.4z M73.3,133.1l-1,1.3c-2.8-1.4-5-3.1-6.5-4.9c-1.8,2-3.9,3.5-6.3,4.8l-1-1.2c2.7-1.4,4.8-3,6.4-4.8
				c-1.2-1.9-2.2-4.3-3-7.2l1.4-0.4c0.8,2.8,1.6,4.9,2.5,6.4c1.8-2.7,2.9-6.6,3.2-11.8h-5.7c-0.8,2.6-2,4.9-3.5,7.1l-1.1-1.1
				c2.2-3.3,3.7-7.1,4.5-11.6l1.4,0.3c-0.2,1.1-0.4,2.4-0.9,3.9h9.2v1.4h-2.4c-0.6,6.2-1.9,10.6-3.8,13.1
				C68.3,130.3,70.5,131.9,73.3,133.1z"/>
		</g>
		<g>
			<path d="M101.4,133.1l-0.9,1.3c-5.3-4.3-8.9-9.8-10.8-16.6c-2.4,7-6.3,12.5-11.6,16.3l-1.1-1.1c1.8-1.2,3.5-2.7,4.9-4.3
				s2.7-3.3,3.7-5.1s1.9-3.7,2.5-5.8c0.7-2.1,1-3.3,1-3.7l-0.2-2.2h-2.6v-1.5h4.1C90.3,119.7,94,127.2,101.4,133.1z"/>
		</g>
		<g>
			<path d="M129.3,113.7H109v4.3c0,7.2-1,12.7-3,16.5l-1.3-0.9c0.8-1.3,1.4-3,2-5.3c0.6-2.3,0.8-5.8,0.8-10.5v-5.3h10.6
				c-0.2-0.5-0.5-1.2-1.1-2.3l1.3-0.5c0.4,0.6,0.8,1.5,1.4,2.8h9.6V113.7z M129.3,131.1h-9.2v3.1h-1.4v-3.1h-9.2v-1.3h9.2v-2h-7.4
				v-8.2h7.4v-2.1h-8.6v-1.2h8.6v-1.7h1.4v1.7h8.5v1.2h-8.5v2.1h7.3v8.2h-7.3v2h9.2V131.1z M118.8,123.1v-2.2h-6v2.2H118.8z
				 M118.8,126.7v-2.3h-6v2.3H118.8z M126.1,123.1v-2.2h-5.9v2.2H126.1z M126.1,126.7v-2.3h-5.9v2.3H126.1z"/>
		</g>
	</g>
	<g>
		<g>
			<circle class="st1" cx="75.1" cy="52.3" r="38.7"/>
		</g>
		<g>
			<polygon class="st2" points="75.1,38.6 47.2,55.1 75.1,71.5 103.1,55.1 			"/>
		</g>
		<g>
			<polygon class="st3" points="47.9,73.8 47.9,83.5 75.1,99.8 102.4,83.5 102.4,73.8 			"/>
		</g>
		<g>
			<polygon class="st4" points="75.1,101 46.9,84 46.9,73.8 48.9,73.8 48.9,82.9 75.1,98.6 101.4,82.9 101.4,73.8 103.4,73.8 
				103.4,84 			"/>
		</g>
		<g>
			<polygon class="st3" points="117.8,64.9 89.9,81.3 75.1,71.5 103.1,55.1 			"/>
			<path class="st4" d="M89.9,82.5L73.3,71.4l29.8-17.5L119.7,65L89.9,82.5z M77,71.5L90,80.1l26-15.3L103,56.2L77,71.5z"/>
		</g>
		<g>
			<polygon class="st3" points="32.4,64.9 60.4,81.3 75.1,71.5 47.2,55.1 			"/>
			<path class="st4" d="M60.4,82.5L30.6,65l16.6-11.1L77,71.4L60.4,82.5z M34.3,64.9l26,15.3l12.9-8.6l-26-15.3L34.3,64.9z"/>
		</g>
		<g>
			<polygon class="st3" points="117.8,45.2 89.9,28.8 75.1,38.7 103.1,55.1 			"/>
			<path class="st4" d="M103.1,56.2L73.3,38.7l16.6-11.1l29.8,17.5L103.1,56.2z M77,38.6l26,15.3l12.9-8.6L90,30L77,38.6z"/>
		</g>
		<g>
			<polygon class="st3" points="32.4,45.2 60.4,28.8 75.1,38.7 47.2,55.1 			"/>
			<path class="st4" d="M47.2,56.2L30.6,45.1l29.8-17.5L77,38.7L47.2,56.2z M34.3,45.3l12.9,8.6l26-15.3L60.3,30L34.3,45.3z"/>
		</g>
		<g>
			<rect x="74.1" y="76.6" class="st4" width="2" height="22.9"/>
		</g>
		<g>
			<polygon class="st3" points="82.3,43.7 82.3,22.2 68,22.2 68,43.7 60.4,43.7 75.1,60.1 89.9,43.7 			"/>
			<path class="st4" d="M75.1,61.6l-17-18.9H67V21.2h16.3v21.5h8.9L75.1,61.6z M62.6,44.7l12.5,13.9l12.5-13.9h-6.4V23.2H69v21.5
				H62.6z"/>
		</g>
	</g>
</g>
<path class="st5" d="M128.9,148H19.1C8.6,148,0,139.4,0,128.9V19.1C0,8.6,8.6,0,19.1,0h109.8C139.4,0,148,8.6,148,19.1v109.8
	C148,139.4,139.4,148,128.9,148z"/>
</svg>
