<?xml version="1.0" encoding="utf-8"?>
<!-- Generator: Adobe Illustrator 21.1.0, SVG Export Plug-In . SVG Version: 6.00 Build 0)  -->
<svg version="1.1" id="圖層_1" xmlns="http://www.w3.org/2000/svg" xmlns:xlink="http://www.w3.org/1999/xlink" x="0px" y="0px"
	 viewBox="0 0 148 148" style="enable-background:new 0 0 148 148;" xml:space="preserve">
<style type="text/css">
	.st0{fill:#BBBDDF;}
	.st1{fill:#E6E6E6;}
	.st2{fill:#FFFFFF;}
	.st3{fill:#E9EAEB;}
	.st4{fill:#4D0563;}
	.st5{fill:#BA9BC9;}
</style>
<g>
	<g>
		<path class="st0" d="M128.9,148H19.1C8.6,148,0,139.4,0,128.9V19.1C0,8.6,8.6,0,19.1,0h109.8C139.4,0,148,8.6,148,19.1v109.8
			C148,139.4,139.4,148,128.9,148z"/>
	</g>
	<g>
		<g>
			<path d="M24.9,125.9c-0.5,2.3-1.1,4.1-1.8,5.4l-1.3-0.6c0.8-1.6,1.4-3.4,1.8-5.2L24.9,125.9z M34.2,124.7H21.9v-1.3h5.5v-2.7
				h-4.7v-1.3h4.7V117h-4.5v-9.5h10.5v9.5h-4.5v2.4h4.6v1.3h-4.6v2.7h5.4V124.7z M27.4,115.7v-6.9h-3.1v6.9H27.4z M26.8,114.1
				l-1.1,0.5c-0.2-1.3-0.5-2.7-1-4.1l1-0.5C26.3,111.7,26.7,113,26.8,114.1z M27.6,130.9l-1.4,0.2c0-0.4,0-0.7,0-1.1
				c0-1.3-0.1-2.7-0.3-4l1.4-0.1C27.5,127.5,27.6,129.2,27.6,130.9z M30.9,130.3l-1.3,0.3c-0.1-1.6-0.4-3.2-0.9-4.9l1.3-0.2
				C30.4,127,30.7,128.7,30.9,130.3z M31.9,115.7v-6.9h-3.1v6.9H31.9z M31.5,110.5c-0.3,1.6-0.7,3-1.1,4.2l-1.1-0.5
				c0.5-1.4,0.9-2.8,1.1-4.2L31.5,110.5z M34.2,129.6L33,130c-0.3-1.6-0.8-3.1-1.4-4.4l1.3-0.3C33.5,126.8,34,128.3,34.2,129.6z
				 M46.3,113h-5.9v5.4h4.7v12.9h-1.4v-2.1h-6.9v2.1h-1.5v-12.9h3.6v-11.6h1.5v4.8h5.9V113z M43.7,127.7v-7.9h-6.9v7.9H43.7z"/>
		</g>
		<g>
			<path d="M59,107.6c-0.9,1-1.9,1.9-3.2,2.7v4.7h-1.4v-3.8c-1.3,0.7-2.6,1.3-3.9,1.8l-0.8-1.3c3.7-1.4,6.4-3.1,8-5L59,107.6z
				 M70.4,126.7H58.9l0.9,0.8c-2.1,1.5-5.2,2.7-9,3.9l-0.9-1.3c3.6-0.9,6.4-2.1,8.5-3.4h-3.9v-10.6h16V126.7z M68.9,119.2v-1.8h-13
				v1.8H68.9z M68.9,122.3v-1.8h-13v1.8H68.9z M68.9,125.4v-1.8h-13v1.8H68.9z M73.8,111.6c0,1-0.2,1.7-0.5,2.2
				c-0.4,0.5-0.9,0.8-1.6,0.8c-0.7,0-1.9,0-3.6,0c-3.6,0-5.5,0-5.9-0.1c-0.4-0.1-0.7-0.3-1-0.6c-0.3-0.4-0.4-0.8-0.4-1.2v-5.9h1.4
				v1.8h9.5v1.3h-9.5v2.5c0,0.6,0.4,0.9,1.3,0.9h7.8c0.5,0,0.7-0.2,0.9-0.5c0.1-0.3,0.2-0.9,0.2-1.8L73.8,111.6z M74.3,130.1
				l-0.8,1.3c-1.8-1-4.5-1.9-7.9-2.8l0.9-1.3C69.3,128.1,71.9,129,74.3,130.1z"/>
		</g>
		<g>
			<path d="M102.4,130.1l-0.9,1.3c-5.3-4.3-8.9-9.8-10.8-16.6c-2.4,7-6.3,12.5-11.6,16.3l-1.1-1.1c1.8-1.2,3.5-2.7,4.9-4.3
				s2.7-3.3,3.7-5.1s1.9-3.7,2.5-5.8c0.7-2.1,1-3.3,1-3.7l-0.2-2.2h-2.6v-1.5h4.1C91.3,116.7,95,124.2,102.4,130.1z"/>
		</g>
		<g>
			<path d="M130.3,110.7H110v4.3c0,7.2-1,12.7-3,16.5l-1.3-0.9c0.8-1.3,1.4-3,2-5.3c0.6-2.3,0.8-5.8,0.8-10.5v-5.3h10.6
				c-0.2-0.5-0.5-1.2-1.1-2.3l1.3-0.5c0.4,0.6,0.8,1.5,1.4,2.8h9.6V110.7z M130.3,128.1h-9.2v3.1h-1.4v-3.1h-9.2v-1.3h9.2v-2h-7.4
				v-8.2h7.4v-2.1h-8.6v-1.2h8.6v-1.7h1.4v1.7h8.5v1.2h-8.5v2.1h7.3v8.2h-7.3v2h9.2V128.1z M119.8,120.1v-2.2h-6v2.2H119.8z
				 M119.8,123.7v-2.3h-6v2.3H119.8z M127.1,120.1v-2.2h-5.9v2.2H127.1z M127.1,123.7v-2.3h-5.9v2.3H127.1z"/>
		</g>
	</g>
	<g>
		<g>
			<circle class="st1" cx="75" cy="54.3" r="40.7"/>
		</g>
		<g>
			<g>
				<polygon class="st2" points="74.9,91.7 107.1,74.9 107.1,39.7 74.9,23.5 42.9,39.7 42.9,74.9 				"/>
			</g>
			<g>
				<polygon class="st3" points="42.9,39.7 75,56.5 75,91.7 42.9,74.9 				"/>
			</g>
			<g>
				<path class="st4" d="M74.9,92.8l-33-17.3V39.1l33-16.7l33.2,16.7v36.4L74.9,92.8z M43.9,74.3l31,16.2l31.2-16.2v-34L74.9,24.6
					l-31,15.7V74.3z"/>
			</g>
			<g>
				<polyline class="st2" points="42.9,39.7 75,56.5 107.2,39.7 				"/>
				<polygon class="st4" points="75,57.6 42.4,40.6 43.3,38.8 75,55.4 106.8,38.8 107.7,40.6 				"/>
			</g>
			<g>
				<rect x="74" y="56.9" class="st4" width="2" height="34.8"/>
			</g>
			<g>
				<polygon class="st5" points="86.1,29.1 54.9,46.2 54.9,52.9 56.3,53.1 58.6,55.6 61,56.1 62.9,57.9 62.9,50.2 94.6,33.4 				"/>
				<path class="st4" d="M63.9,60.2L60.5,57l-2.5-0.5L55.8,54l-1.9-0.2v-8.2L86.1,28l10.7,5.4L63.9,50.8V60.2z M59.1,54.7l2.4,0.5
					l0.4,0.4v-5.9l30.5-16.2l-6.3-3.2L55.9,46.8V52l0.8,0.1L59.1,54.7z"/>
			</g>
			<g>
				<polygon class="st2" points="109.8,74.9 109.8,52.3 94.8,52.3 94.8,74.9 86.7,74.9 102.3,92.2 117.8,74.9 				"/>
				<path class="st4" d="M102.3,93.7L84.5,73.9h9.3V51.3h17.1v22.6h9.3L102.3,93.7z M89,75.9l13.3,14.8l13.3-14.8h-6.8V53.3H95.8
					v22.6H89z"/>
			</g>
		</g>
	</g>
</g>
</svg>
