<?xml version="1.0" encoding="utf-8"?>
<!-- Generator: Adobe Illustrator 21.1.0, SVG Export Plug-In . SVG Version: 6.00 Build 0)  -->
<svg version="1.1" id="圖層_1" xmlns="http://www.w3.org/2000/svg" xmlns:xlink="http://www.w3.org/1999/xlink" x="0px" y="0px"
	 viewBox="0 0 148 148" style="enable-background:new 0 0 148 148;" xml:space="preserve">
<style type="text/css">
	.st0{fill:#BBBDDF;}
	.st1{fill:#E9EAEB;}
	.st2{fill:#BA9BC9;}
	.st3{fill:#4D0563;}
	.st4{fill:#FFFFFF;}
</style>
<g>
	<g>
		<path class="st0" d="M128.9,148H19.1C8.6,148,0,139.4,0,128.9V19.1C0,8.6,8.6,0,19.1,0h109.8C139.4,0,148,8.6,148,19.1v109.8
			C148,139.4,139.4,148,128.9,148z"/>
	</g>
	<g>
		<g>
			<path d="M34.6,119.7H24.3c-1,0.9-2.1,1.7-3.3,2.4v3c1.6-0.3,3.2-0.7,4.8-1.1v1.2c-2.2,0.6-4.2,1.1-6.1,1.4l-0.4-1.1
				c0.3-0.1,0.5-0.4,0.5-0.7v-2c-1.7,0.8-3.1,1.3-4.3,1.6l-0.6-1.1c3-0.7,5.6-2,7.8-3.7h-8v-1.1h9.7c-0.1-0.2-0.3-0.5-0.4-0.8
				l1.1-0.4c0.2,0.3,0.4,0.7,0.6,1.2h9V119.7z M27.8,111.7H22v1.3h4.6v2.5c0,0.3-0.1,0.6-0.3,0.8c-0.2,0.3-0.5,0.4-0.7,0.4l-2.3,0.1
				l-0.4-1.1c0.3,0,0.7,0,1,0c0.7,0,1.1,0,1.3-0.1c0.1-0.1,0.2-0.2,0.2-0.4v-1.1H22v3.5h-1.2v-3.5h-3.6v2.7h-1.2V113h4.9v-1.3h-6.1
				v-1.1h6.1v-1.4H17c-0.2,0.3-0.4,0.6-0.7,0.9l-1.1-0.5c0.9-0.9,1.5-1.9,1.9-3l1.1,0.4c-0.2,0.5-0.4,0.9-0.6,1.2h3.1v-1.6H22v1.6
				h4.9v1.1H22v1.4h5.8V111.7z M34.6,125.6l-0.7,1c-3.9-1.4-6.5-3.3-7.7-5.9l1.1-0.4c0.5,0.9,1.1,1.7,1.9,2.4
				c1.5-0.7,2.7-1.5,3.6-2.4l0.9,0.8c-0.7,0.7-1.9,1.5-3.5,2.4C31.1,124.2,32.6,124.9,34.6,125.6z M30.3,114h-1.2v-6.4h1.2V114z
				 M34,115.4c0,0.6-0.2,1-0.6,1.3s-1.7,0.4-3.9,0.3l-0.4-1.2c1.3,0,2.2,0,2.7,0c0.4,0,0.7-0.1,0.8-0.2c0.1-0.1,0.2-0.3,0.2-0.4
				v-8.7H34V115.4z"/>
		</g>
		<g>
			<path d="M44,106.7c-0.5,1.1-0.9,2.1-1.4,3L42,111v15.7h-1.2v-13.5c-1.3,1.8-2.2,3-2.7,3.5l-0.7-1.2c2.2-2.6,4-5.6,5.4-9.2
				L44,106.7z M57.6,110.8h-7.3v4h6.3v1.2h-6.3v4.3H57v1.2h-6.7v5.2h-1.2v-15.8h-2.1c-0.7,1.7-1.8,3.5-3.3,5.4l-0.8-1
				c1.9-2.3,3.4-5.3,4.5-8.9l1.1,0.5c-0.1,0.5-0.5,1.5-1,2.9h10.1V110.8z"/>
		</g>
		<g>
			<path d="M61.3,125.4V108h4.9c1.4,0,2.6,0.4,3.5,1.1s1.3,1.7,1.3,2.9c0,1-0.3,1.8-0.8,2.6c-0.5,0.7-1.3,1.3-2.2,1.6v0
				c1.2,0.1,2.1,0.5,2.8,1.3c0.7,0.8,1.1,1.7,1.1,2.9c0,1.5-0.5,2.7-1.6,3.6c-1.1,0.9-2.4,1.4-4,1.4H61.3z M63.2,109.8v5.7h2.1
				c1.2,0,2.1-0.3,2.7-0.8c0.6-0.6,1-1.3,1-2.3c0-1.7-1.1-2.6-3.4-2.6H63.2z M63.2,117.3v6.4h2.8c1.2,0,2.1-0.3,2.8-0.9
				c0.7-0.6,1-1.4,1-2.4c0-2.1-1.4-3.1-4.3-3.1H63.2z"/>
		</g>
		<g>
			<path d="M74.3,117c0-2.8,0.8-5,2.3-6.7c1.5-1.7,3.6-2.5,6.1-2.5c2.4,0,4.3,0.8,5.8,2.4c1.5,1.6,2.2,3.7,2.2,6.3
				c0,2.8-0.7,5-2.2,6.7c-1.5,1.7-3.5,2.5-6.1,2.5c-2.4,0-4.4-0.8-5.9-2.5C75,121.6,74.3,119.5,74.3,117z M76.3,116.8
				c0,2.1,0.6,3.8,1.7,5.2c1.1,1.4,2.6,2,4.4,2c2,0,3.5-0.6,4.6-1.9c1.1-1.3,1.7-3,1.7-5.3c0-2.3-0.5-4.1-1.6-5.4
				c-1.1-1.3-2.6-1.9-4.5-1.9c-1.9,0-3.4,0.7-4.6,2.1C76.9,112.9,76.3,114.7,76.3,116.8z"/>
		</g>
		<g>
			<path d="M109.9,125.4v-11.7c0-0.9,0.1-2,0.2-3.4H110c-0.2,0.8-0.4,1.4-0.5,1.6l-6.1,13.5h-0.9l-6.1-13.4
				c-0.2-0.4-0.3-0.9-0.5-1.7h-0.1c0.1,0.6,0.1,1.7,0.1,3.3v11.8h-1.9V108h2.5l5.4,12.3c0.4,1,0.7,1.7,0.8,2.1h0.1
				c0.2-0.6,0.5-1.3,0.8-2.1l5.6-12.2h2.4v17.4H109.9z"/>
		</g>
		<g>
			<path d="M135.6,116.9H125c-0.6,0.9-1.4,1.7-2.2,2.5v5.8c1.3-0.2,3-0.7,5.3-1.6l0.3,1.1c-2.5,0.9-4.7,1.6-6.6,1.9l-0.6-1
				c0.3-0.1,0.4-0.3,0.4-0.7v-4.6c-1.5,1.1-3.2,2.1-5.2,3l-0.8-1c3.5-1.6,6.1-3.4,7.9-5.5h-7.8v-1.1h9.5v-2.6h-8v-1.2h8v-2.5h-9
				v-1.1h9v-1.9h1.2v1.9h8.8v1.1h-8.8v2.5h7.7v1.2h-7.7v2.6h9.3V116.9z M135.8,125.6l-0.7,1.1c-2.1-0.8-3.9-1.8-5.3-3
				s-2.6-2.9-3.5-5.1l1-0.6c0.7,1.7,1.5,3,2.3,3.8c1.7-1.1,3-2.3,4-3.4l0.9,0.8c-1.4,1.4-2.8,2.6-4.1,3.5
				C131.8,123.8,133.6,124.9,135.8,125.6z"/>
		</g>
	</g>
	<g>
		<g>
			<circle class="st1" cx="68.5" cy="47.2" r="32.8"/>
		</g>
		<g>
			<g>
				<path class="st2" d="M53.1,27.4h47.7c1.4,0,2.5,1.1,2.5,2.5v57.8c0,1.4-1.1,2.5-2.5,2.5H53.1c-1.4,0-2.5-1.1-2.5-2.5V29.9
					C50.6,28.5,51.7,27.4,53.1,27.4z"/>
			</g>
			<g>
				<path class="st3" d="M100.8,91.2H53.1c-1.9,0-3.5-1.6-3.5-3.5V29.9c0-1.9,1.6-3.5,3.5-3.5h47.7c1.9,0,3.5,1.6,3.5,3.5v16.3h-2
					V29.9c0-0.8-0.7-1.5-1.5-1.5H53.1c-0.8,0-1.5,0.7-1.5,1.5v57.8c0,0.8,0.7,1.5,1.5,1.5h47.7c0.8,0,1.5-0.7,1.5-1.5V66.4h2v21.4
					C104.3,89.7,102.7,91.2,100.8,91.2z"/>
			</g>
			<g>
				<rect x="55.6" y="32.4" class="st4" width="42.7" height="52.8"/>
			</g>
			<g>
				<polygon class="st3" points="99.3,86.2 54.6,86.2 54.6,31.4 99.3,31.4 99.3,51.3 97.3,51.3 97.3,33.4 56.6,33.4 56.6,84.2 
					97.3,84.2 97.3,71.4 99.3,71.4 				"/>
			</g>
			<g>
				<g>
					<path class="st4" d="M66.9,26.2h5v-1c0-2.6,1.9-5,4.5-5.2c3-0.3,5.5,2.1,5.5,5v1.3h5c2.1,0,3.8,1.7,3.8,3.8v5H63.1v-5
						C63.1,27.8,64.8,26.2,66.9,26.2z"/>
					<path class="st3" d="M91.8,36H62.1v-6c0-2.6,2.1-4.8,4.8-4.8l4,0c0-3.2,2.4-5.9,5.4-6.2c1.7-0.2,3.4,0.4,4.6,1.5
						c1.3,1.1,2,2.8,2,4.5v0.3h4c2.6,0,4.8,2.1,4.8,4.8V36z M64.1,34h25.6v-4c0-1.5-1.2-2.8-2.8-2.8h-6v-2.3c0-1.1-0.5-2.2-1.3-3
						c-0.8-0.8-2-1.1-3.1-1c-2,0.2-3.6,2-3.6,4.2v2h-6c-1.5,0-2.8,1.2-2.8,2.8V34z"/>
				</g>
				<g>
					<rect x="75.9" y="23.6" class="st3" width="2" height="2.5"/>
				</g>
			</g>
			<g>
				<path class="st3" d="M118.5,46.3l-1.4-1.4l2-2c0.6-0.6,0.6-1.5,0-2.1l-0.2-0.2c-0.6-0.6-1.5-0.6-2.1,0l-2,2l-1.4-1.4l2-2
					c1.3-1.3,3.6-1.3,5,0l0.2,0.2c0.7,0.7,1,1.5,1,2.5c0,0.9-0.4,1.8-1,2.5L118.5,46.3z"/>
			</g>
			<g>
				<polygon class="st4" points="118.4,46.3 89.5,75.2 79.5,80.2 84.5,70.1 113.4,41.2 				"/>
				<path class="st3" d="M79.5,81.2c-0.3,0-0.5-0.1-0.7-0.3c-0.3-0.3-0.4-0.8-0.2-1.2l5-10.1c0-0.1,0.1-0.2,0.2-0.3l28.9-28.9
					c0.4-0.4,1-0.4,1.4,0l5,5c0.4,0.4,0.4,1,0,1.4L90.2,75.9C90.1,75.9,90,76,90,76.1l-10.1,5C79.8,81.1,79.6,81.2,79.5,81.2z
					 M85.3,70.7l-3.6,7.2l7.2-3.6L117,46.3l-3.6-3.6L85.3,70.7z"/>
			</g>
			<g>
				<line class="st4" x1="84.5" y1="70.1" x2="89.5" y2="75.2"/>
				<rect x="86" y="69.1" transform="matrix(0.7071 -0.7071 0.7071 0.7071 -25.8884 82.7889)" class="st3" width="2" height="7.1"/>
			</g>
			<g>
				
					<rect x="111.7" y="43.4" transform="matrix(0.7071 -0.7071 0.7071 0.7071 -0.3288 93.5059)" class="st3" width="2" height="7.4"/>
			</g>
		</g>
		<g>
			<rect x="72.7" y="45.3" class="st3" width="17.6" height="2"/>
		</g>
		<g>
			<rect x="72.7" y="52.8" class="st3" width="17.6" height="2"/>
		</g>
	</g>
	<g>
		<polygon class="st3" points="66.4,49.5 65.1,49.5 62.2,46.7 63.6,45.2 65.3,47 67.1,43 68.9,43.8 		"/>
	</g>
	<g>
		<polygon class="st3" points="66.4,57.2 65.1,57.2 62.2,54.4 63.6,52.9 65.3,54.7 67.1,50.7 68.9,51.5 		"/>
	</g>
</g>
</svg>
