<?xml version="1.0" encoding="utf-8"?>
<!-- Generator: Adobe Illustrator 21.1.0, SVG Export Plug-In . SVG Version: 6.00 Build 0)  -->
<svg version="1.1" id="圖層_1" xmlns="http://www.w3.org/2000/svg" xmlns:xlink="http://www.w3.org/1999/xlink" x="0px" y="0px"
	 viewBox="0 0 125.4 42" style="enable-background:new 0 0 125.4 42;" xml:space="preserve">
<style type="text/css">
	.st0{fill:url(#SVGID_1_);}
	.st1{fill:#FFFFFF;}
	.st2{fill:none;stroke:#4D0563;stroke-width:0.1;}
</style>
<g>
	<linearGradient id="SVGID_1_" gradientUnits="userSpaceOnUse" x1="62.0893" y1="-5.4112" x2="62.0893" y2="46.2429">
		<stop  offset="0" style="stop-color:#FFFFFF"/>
		<stop  offset="8.666667e-02" style="stop-color:#BFA5C7"/>
		<stop  offset="0.2289" style="stop-color:#9367A0"/>
		<stop  offset="0.5444" style="stop-color:#784289"/>
	</linearGradient>
	<path class="st0" d="M124.8,36.4c0,3.1-2.3,5.6-5.1,5.6H4.5c-2.8,0-5.1-2.5-5.1-5.6V5.6C-0.6,2.5,1.7,0,4.5,0h115.1
		c2.8,0,5.1,2.5,5.1,5.6V36.4z"/>
	<g>
		<path class="st1" d="M61.5,30.8l-0.3,1.3c-1.4,0-2.8,0.1-4.1,0.1c-2.8,0-4.8-0.1-6-0.2s-2.4-0.4-3.6-0.8s-2.2-1.1-3.1-2
			c-1.1,1.4-2.2,2.6-3.2,3.4l-0.9-1c1.2-0.9,2.3-2,3.2-3.3c-0.9-1.2-1.6-2.8-2.3-4.7l1.1-0.5c0.5,1.7,1.1,3,1.8,4
			c0.8-1.8,1.3-3.8,1.4-6.2h-4.4v-1.1c1.5-1.9,3-4,4.4-6.5h-4.9v-1.2h6.3v1.2c-1.5,2.5-2.9,4.6-4.2,6.4h4.2C46.7,23.2,46.1,26,45,28
			c0.8,0.8,1.6,1.4,2.6,1.8s2,0.7,3,0.9s3.2,0.2,6.4,0.2C58.6,30.9,60.1,30.9,61.5,30.8z M61.3,17.8h-1.7v3.4h-5.5v2h6v1.2h-6v2h6.8
			v1.2h-6.8v2.4h-1.2v-2.4h-6v-1.2h6v-2h-5v-1.2h5v-2h-4.6V20h4.6v-2.2H47v-1.2h5.9v-2.1h-4.6v-1.2h4.6v-1.8h1.2v1.8h5.5v3.3h1.7
			V17.8z M58.4,16.6v-2h-4.3v2H58.4z M58.4,20v-2.2h-4.3V20H58.4z"/>
		<path class="st1" d="M87.9,31.7H67.1v-1.2h6.6c-0.5-4.3-1.5-8.4-3.2-12.5l0.8-0.5h-3.3v-1.2h9.6c-0.5-1.5-1.2-3-2.1-4.6l1.2-0.4
			c0.9,1.6,1.6,3.2,2.2,5h8.3v1.2H84l0.7,0.6c-1.1,5-2.3,9.1-3.6,12.5h6.8V31.7z M83.5,17.5H71.7c1.7,5.3,2.8,9.6,3.2,13.1h4.8
			C81.1,27.1,82.4,22.8,83.5,17.5z"/>
	</g>
	<path class="st2" d="M124.8,36.4c0,3.1-2.3,5.6-5.1,5.6H4.5c-2.8,0-5.1-2.5-5.1-5.6V5.6C-0.6,2.5,1.7,0,4.5,0h115.1
		c2.8,0,5.1,2.5,5.1,5.6V36.4z"/>
</g>
</svg>
