<?xml version="1.0" encoding="utf-8"?>
<!-- Generator: Adobe Illustrator 21.1.0, SVG Export Plug-In . SVG Version: 6.00 Build 0)  -->
<svg version="1.1" id="圖層_1" xmlns="http://www.w3.org/2000/svg" xmlns:xlink="http://www.w3.org/1999/xlink" x="0px" y="0px"
	 viewBox="0 0 125.4 42" style="enable-background:new 0 0 125.4 42;" xml:space="preserve">
<style type="text/css">
	.st0{fill:url(#SVGID_1_);}
	.st1{fill:#FFFFFF;}
	.st2{fill:none;stroke:#666666;stroke-width:0.1;}
</style>
<g>
	<linearGradient id="SVGID_1_" gradientUnits="userSpaceOnUse" x1="62.7079" y1="-5.4091" x2="62.7079" y2="46.245">
		<stop  offset="0" style="stop-color:#B5B5B5"/>
		<stop  offset="7.777778e-02" style="stop-color:#AFAFAF"/>
		<stop  offset="0.1978" style="stop-color:#8E8E8E"/>
		<stop  offset="0.5178" style="stop-color:#666666"/>
	</linearGradient>
	<path class="st0" d="M125.4,36.4c0,3.1-2.3,5.6-5.1,5.6H5.1C2.3,42,0,39.5,0,36.4V5.6C0,2.5,2.3,0,5.1,0h115.1
		c2.8,0,5.1,2.5,5.1,5.6V36.4z"/>
	<g>
		<path class="st1" d="M36.3,30.3H35v-1.9H20.2v1.9h-1.2V11.5h17.2V30.3z M35,27.2V12.7H20.2v14.5H35z M31.8,23.8h-8.4v-7.9h8.4
			V23.8z M30.6,22.6v-5.6h-6v5.6H30.6z"/>
		<path class="st1" d="M61.3,29.7H42.2v-1.1h9v-5.9H44v-1.1h7.2v-5.4H43V15h8.6c-0.7-1.5-1.3-2.7-2.1-3.6l1.1-0.4
			c0.9,1.2,1.6,2.6,2.2,4h7.7v1.1h-8.1v5.4h7v1.1h-7v5.9h8.9V29.7z"/>
		<path class="st1" d="M85.7,28.9L85.3,30h-7.4c-2.2,0-3.9-0.2-5.1-0.6c-1.2-0.4-2.3-1.1-3.1-2c-0.8,1.4-1.7,2.4-2.4,3l-0.8-0.7
			c1.9-1.7,3.2-4,3.8-7.1H67v-1.1c1.2-1.6,2.2-3.1,3-4.5h-3.5v-1.1h4.7V17c-1.1,1.9-2.1,3.4-2.8,4.5h3v1.1c-0.2,1.3-0.6,2.5-1.2,3.7
			c1.4,1.7,3.8,2.6,7.2,2.6H85.7z M71,14.4l-0.8,0.7c-1-1.2-2-2.2-3-3l0.7-0.8C69,12.2,70.1,13.2,71,14.4z M85.4,24.6H71.8v-1.1h3.6
			v-1.7h-3.1v-1.1h3.1v-1.4h1.1v1.4h4v-1.4h1.1v1.4h3.2v1.1h-3.2v1.7h3.7V24.6z M77,25.8c-1.5,0.9-2.8,1.5-3.9,1.9l-0.8-0.9
			c1.3-0.4,2.6-1.1,3.9-1.8L77,25.8z M78.2,18c-1.3,0.3-3.1,0.7-5.4,1.2l-0.4-1c0.3-0.2,0.4-0.4,0.4-0.6v-6h4.9v4.1h-3.8v2.1
			c1.4-0.3,2.8-0.6,4.2-1L78.2,18z M76.6,14.7v-2h-2.7v2H76.6z M80.6,23.5v-1.7h-4v1.7H80.6z M85.1,18.6h-4.6
			c-0.2,0-0.4-0.1-0.7-0.4s-0.4-0.5-0.4-0.7v-5.8h5v4.1h-3.9v1.4c0,0.1,0,0.2,0.1,0.3s0.2,0.1,0.2,0.1h4.2V18.6z M84.8,26.8
			l-0.5,0.9c-1.4-0.7-2.8-1.3-4.2-1.8l0.6-0.9C82.1,25.4,83.5,26,84.8,26.8z M83.3,14.7v-2h-2.8v2H83.3z"/>
		<path class="st1" d="M109.9,27.2h-9v3.1h-1.1v-3.1h-9v-1.1h9v-1.8H93v-7h14.6v7h-6.7v1.8h9V27.2z M99.3,15.9h-7v-4.3h7V15.9z
			 M98.2,14.8v-2.1h-4.7v2.1H98.2z M99.7,20.2v-1.8h-5.6v1.8H99.7z M99.7,23.3v-2h-5.6v2H99.7z M106.5,20.2v-1.8h-5.6v1.8H106.5z
			 M106.5,23.3v-2h-5.6v2H106.5z M108.4,15.9h-7v-4.3h7V15.9z M107.2,14.8v-2.2h-4.7v2.2H107.2z"/>
	</g>
	<path class="st2" d="M125.4,36.4c0,3.1-2.3,5.6-5.1,5.6H5.1C2.3,42,0,39.5,0,36.4V5.6C0,2.5,2.3,0,5.1,0h115.1
		c2.8,0,5.1,2.5,5.1,5.6V36.4z"/>
</g>
</svg>
