<?xml version="1.0" encoding="utf-8"?>
<!-- Generator: Adobe Illustrator 21.1.0, SVG Export Plug-In . SVG Version: 6.00 Build 0)  -->
<svg version="1.1" id="圖層_1" xmlns="http://www.w3.org/2000/svg" xmlns:xlink="http://www.w3.org/1999/xlink" x="0px" y="0px"
	 viewBox="0 0 148 148" style="enable-background:new 0 0 148 148;" xml:space="preserve">
<style type="text/css">
	.st0{fill:#BBBDDF;}
	.st1{fill:#E6E6E6;}
	.st2{fill:#FFFFFF;}
	.st3{fill:#E9EAEB;}
	.st4{fill:#4D0563;}
	.st5{fill:#BA9BC9;}
	.st6{opacity:0.3;}
</style>
<g>
	<g>
		<path class="st0" d="M128.9,148H19.1C8.6,148,0,139.4,0,128.9V19.1C0,8.6,8.6,0,19.1,0h109.8C139.4,0,148,8.6,148,19.1v109.8
			C148,139.4,139.4,148,128.9,148z"/>
	</g>
	<g>
		<g>
			<path d="M32.6,115.7l-1,1c-1.3-1.6-2.7-3.1-4.3-4.3c-1.8,2.9-3.6,5.1-5.5,6.7l-0.8-1.3c2.2-1.8,4.3-4.5,6.1-8.1l1.4,0.4
				c-0.2,0.5-0.4,0.8-0.5,1C30,112.8,31.6,114.3,32.6,115.7z M32,123.1c0,0.3-0.4,1.2-1.1,2.7c-0.7,1.5-1.6,3.1-2.8,4.6
				c1,1,1.9,2,2.6,2.9l-1.1,0.9c-1.7-2.3-4-4.5-6.8-6.6l1-1c1,0.7,2.1,1.7,3.3,2.8c1.9-2.6,3-4.7,3.4-6.4h-9v-1.4H32V123.1z
				 M31,118.9h-6.9v-1.4H31V118.9z M45.3,112h-5.5c-0.4,1.7-0.7,2.8-0.9,3.3H44v13.7h-6.5l0.9,0.8c-1.8,2-3.6,3.5-5.3,4.6l-1-1.1
				c1.6-0.9,3.3-2.4,5.2-4.3h-3.3v-13.7h3.6c0.4-1.3,0.7-2.4,0.9-3.3h-5.7v-1.3h12.8V112z M42.6,119.1v-2.5h-7.4v2.5H42.6z
				 M42.6,123.1v-2.7h-7.4v2.7H42.6z M42.6,127.5v-3.1h-7.4v3.1H42.6z M45.5,133.3l-0.9,1.1c-1.4-1.3-3-2.6-4.8-3.7l0.9-1.1
				C42.6,130.7,44.2,132,45.5,133.3z"/>
		</g>
		<g>
			<path d="M58,110.6c-0.9,1-1.9,1.9-3.2,2.7v4.7h-1.4v-3.8c-1.3,0.7-2.6,1.3-3.9,1.8l-0.8-1.3c3.7-1.4,6.4-3.1,8-5L58,110.6z
				 M69.4,129.7H57.9l0.9,0.8c-2.1,1.5-5.2,2.7-9,3.9l-0.9-1.3c3.6-0.9,6.4-2.1,8.5-3.4h-3.9v-10.6h16V129.7z M67.9,122.2v-1.8h-13
				v1.8H67.9z M67.9,125.3v-1.8h-13v1.8H67.9z M67.9,128.4v-1.8h-13v1.8H67.9z M72.8,114.6c0,1-0.2,1.7-0.5,2.2
				c-0.4,0.5-0.9,0.8-1.6,0.8c-0.7,0-1.9,0-3.6,0c-3.6,0-5.5,0-5.9-0.1c-0.4-0.1-0.7-0.3-1-0.6c-0.3-0.4-0.4-0.8-0.4-1.2v-5.9h1.4
				v1.8h9.5v1.3h-9.5v2.5c0,0.6,0.4,0.9,1.3,0.9h7.8c0.5,0,0.7-0.2,0.9-0.5c0.1-0.3,0.2-0.9,0.2-1.8L72.8,114.6z M73.3,133.1
				l-0.8,1.3c-1.8-1-4.5-1.9-7.9-2.8l0.9-1.3C68.4,131.1,70.9,132,73.3,133.1z"/>
		</g>
		<g>
			<path d="M99.8,134.3h-1.5V133H78.5v-9.4H80v8h8.4v-10.8h-8.7v-9.2h1.5v7.8h7.2v-9.5h1.4v9.5H97v-7.8h1.5v9.2H90v10.8h8.3v-8h1.5
				V134.3z"/>
		</g>
		<g>
			<path d="M129.3,113.7H109v4.3c0,7.2-1,12.7-3,16.5l-1.3-0.9c0.8-1.3,1.4-3,2-5.3c0.6-2.3,0.8-5.8,0.8-10.5v-5.3h10.6
				c-0.2-0.5-0.5-1.2-1.1-2.3l1.3-0.5c0.4,0.6,0.8,1.5,1.4,2.8h9.6V113.7z M129.3,131.1h-9.2v3.1h-1.4v-3.1h-9.2v-1.3h9.2v-2h-7.4
				v-8.2h7.4v-2.1h-8.6v-1.2h8.6v-1.7h1.4v1.7h8.5v1.2h-8.5v2.1h7.3v8.2h-7.3v2h9.2V131.1z M118.8,123.1v-2.2h-6v2.2H118.8z
				 M118.8,126.7v-2.3h-6v2.3H118.8z M126.1,123.1v-2.2h-5.9v2.2H126.1z M126.1,126.7v-2.3h-5.9v2.3H126.1z"/>
		</g>
	</g>
	<g>
		<g>
			<circle class="st1" cx="74.1" cy="54.3" r="40.7"/>
		</g>
		<g>
			<g>
				<polygon class="st2" points="75.1,88.4 107.3,71.6 107.3,36.4 75.1,20.2 43.1,36.4 43.1,71.6 				"/>
			</g>
			<g>
				<polygon class="st3" points="43.1,36.4 75.2,53.2 75.2,88.4 43.1,71.6 				"/>
			</g>
			<g>
				<path class="st4" d="M75.1,89.5l-33-17.3V35.8l33-16.7l33.2,16.7v36.4L75.1,89.5z M44.1,71l31,16.2L106.3,71V37L75.2,21.3
					L44.1,37V71z"/>
			</g>
			<g>
				<polyline class="st2" points="43.1,36.4 75.2,53.2 107.5,36.4 				"/>
				<polygon class="st4" points="75.2,54.3 42.7,37.3 43.6,35.5 75.2,52.1 107,35.5 107.9,37.3 				"/>
			</g>
			<g>
				<rect x="74.2" y="53.6" class="st4" width="2" height="34.8"/>
			</g>
			<g>
				<polygon class="st5" points="86.4,25.8 55.2,42.9 55.2,49.6 56.5,49.8 58.8,52.3 61.3,52.8 63.2,54.6 63.2,46.9 94.9,30.1 				
					"/>
				<path class="st4" d="M64.2,56.9l-3.4-3.2l-2.5-0.5L56,50.7l-1.9-0.2v-8.2l32.2-17.7l10.7,5.4L64.2,47.5V56.9z M59.3,51.4
					l2.4,0.5l0.4,0.4v-5.9l30.5-16.2l-6.3-3.2L56.2,43.5v5.2l0.8,0.1L59.3,51.4z"/>
			</g>
		</g>
		<g>
			<polygon class="st2" points="82.1,74.9 59.5,74.9 59.5,89.9 82.1,89.9 82.1,98 99.4,82.4 82.1,66.8 			"/>
			<path class="st4" d="M81.1,100.2v-9.3H58.5V73.9h22.6v-9.3l19.8,17.8L81.1,100.2z M60.5,88.9h22.6v6.8l14.8-13.3L83.1,69.1v6.8
				H60.5V88.9z"/>
		</g>
	</g>
</g>
<path class="st6" d="M128.9,148H19.1C8.6,148,0,139.4,0,128.9V19.1C0,8.6,8.6,0,19.1,0h109.8C139.4,0,148,8.6,148,19.1v109.8
	C148,139.4,139.4,148,128.9,148z"/>
</svg>
