<?xml version="1.0" encoding="utf-8"?>
<!-- Generator: Adobe Illustrator 21.1.0, SVG Export Plug-In . SVG Version: 6.00 Build 0)  -->
<svg version="1.1" id="圖層_1" xmlns="http://www.w3.org/2000/svg" xmlns:xlink="http://www.w3.org/1999/xlink" x="0px" y="0px"
	 viewBox="0 0 148 148" style="enable-background:new 0 0 148 148;" xml:space="preserve">
<style type="text/css">
	.st0{fill:#BBBDDF;}
	.st1{fill:#E9EAEB;}
	.st2{fill:#FFFFFF;}
	.st3{fill:#4D0563;}
	.st4{fill:#BA9BC9;}
</style>
<g>
	<g>
		<path class="st0" d="M128.9,148H19.1C8.6,148,0,139.4,0,128.9V19.1C0,8.6,8.6,0,19.1,0h109.8C139.4,0,148,8.6,148,19.1v109.8
			C148,139.4,139.4,148,128.9,148z"/>
	</g>
	<g>
		<circle class="st1" cx="74.9" cy="47.3" r="33.4"/>
	</g>
	<g>
		<path class="st2" d="M114.2,51.4c-0.1-1.6-1.4-11.1-2.7-14.3c-1.4-0.2-3.3,1-4.8,3.3c-1.4,2.2-1.9,4.9-0.8,8.5l-1.7,6.4
			c-1.2-0.3-2.5,0-3.7,1.2c-1.1,1.1-2.9,2.9-5.7,5.7c-0.9,0.9-4.8,0.5-6.2,1.9c-0.6,0.6-3.4,3.4-4.8,4.8c-1.4,1.4-2,4.4-2,6.3
			c0,3.1,0,10.9,0,10.9s13.5,0,15.9,0c0-2.8-0.4-4.6,1.2-6.2c1.3-1.3,12.5-12.5,13.8-13.7C113.2,64.6,114.3,53.1,114.2,51.4z"/>
	</g>
	<g>
		<path class="st3" d="M98.8,87.3H80.9V75.4c0-2.3,0.7-5.5,2.3-7c0.8-0.8,2.2-2.2,3.2-3.3c0.7-0.7,1.3-1.3,1.6-1.6
			c1-1,2.7-1.2,4.3-1.5c0.7-0.1,1.7-0.2,1.9-0.4l5.7-5.7c1.1-1.1,2.4-1.6,3.7-1.6l1.4-5.3c-1-3.4-0.7-6.4,0.9-9.1
			c1.6-2.6,3.9-4.1,5.8-3.8l0.6,0.1l0.2,0.5c1.3,3.3,2.6,12.8,2.7,14.6c0.1,1.8-0.9,13.5-1.5,15.3l-0.1,0.3l-0.2,0.2
			c-0.4,0.4-2.1,2.1-4.1,4.1c-3.8,3.8-8.9,8.8-9.7,9.6c-1,1-1,2-0.9,4.1c0,0.4,0,0.9,0,1.4V87.3z M82.9,85.3h13.9c0-0.1,0-0.2,0-0.4
			c-0.1-2.1-0.1-3.9,1.5-5.6c0.8-0.8,5.9-5.9,9.7-9.6c1.8-1.8,3.3-3.3,3.9-3.9c0.5-2.3,1.4-12.9,1.3-14.4c-0.1-1.7-1.2-9.9-2.4-13.3
			c-0.9,0.2-2.2,1.1-3.3,2.8c-1.4,2.3-1.6,4.7-0.6,7.7l0.1,0.3l-1.5,5.8c1.3,0.6,2.3,1.8,2.7,3.2c0.5,1.7-0.1,3.5-1.4,4.8l-8,8
			l-1.4-1.4l8-8c0.8-0.8,1.2-1.9,0.9-2.9c-0.3-1-1.1-1.9-2.1-2.1c-1-0.3-2,0.1-2.8,0.9L95.5,63c-0.6,0.6-1.7,0.8-3,1
			c-1.2,0.2-2.6,0.4-3.1,0.9c-0.2,0.2-0.8,0.8-1.5,1.6c-1.1,1.1-2.4,2.4-3.2,3.3c-1.1,1.1-1.7,3.7-1.7,5.6V85.3z"/>
	</g>
	<g>
		<polyline class="st1" points="101.4,93.3 101.4,83.5 79.1,83.5 79.1,93.3 		"/>
	</g>
	<g>
		<polygon class="st3" points="102.4,93.3 100.4,93.3 100.4,84.5 80.1,84.5 80.1,93.3 78.1,93.3 78.1,82.5 102.4,82.5 		"/>
	</g>
	<g>
		<rect x="83.3" y="88.1" class="st3" width="4.2" height="2"/>
	</g>
	<g>
		<path class="st2" d="M66.1,69c-1.4-1.4-4.1-4.2-4.7-4.8c-1.4-1.4-5.3-1-6.2-1.9c-2.9-2.9-4.6-4.6-5.7-5.7
			c-1.3-1.3-2.7-1.5-3.9-1.2L44.1,49c1.2-3.6,0.6-6.3-0.8-8.5c-1.5-2.4-3.4-3.5-4.8-3.3c-1.3,3.2-2.6,12.7-2.7,14.3
			c-0.1,1.7,0.9,13.2,1.4,15c1.3,1.3,12.5,12.4,13.8,13.7c1.6,1.6,1.2,3.4,1.2,6.2c2.4,0,15.7,0,15.7,0s0-7.8,0-10.9
			C68,73.4,67.5,70.4,66.1,69z"/>
	</g>
	<g>
		<path class="st3" d="M69,87.3H51.3v-1c0-0.5,0-1,0-1.4c0.1-2.1,0-3.1-0.9-4.1c-0.8-0.8-6-6-9.8-9.8c-2-2-3.6-3.5-4-4l-0.2-0.2
			l-0.1-0.3c-0.5-1.8-1.6-13.5-1.5-15.3c0.1-1.8,1.4-11.3,2.7-14.6l0.2-0.5l0.6-0.1c1.9-0.3,4.2,1.2,5.8,3.8c1.7,2.7,2,5.7,0.9,9.1
			l1.2,5.3c1.4-0.1,2.8,0.5,3.9,1.6l5.7,5.7c0.2,0.2,1.2,0.3,1.9,0.4c1.5,0.2,3.3,0.5,4.3,1.5c0.2,0.2,0.8,0.8,1.5,1.6
			c1,1.1,2.3,2.4,3.2,3.3c1.6,1.6,2.2,4.8,2.2,7V87.3z M53.3,85.3H67v-9.9c0-2-0.5-4.5-1.6-5.6c-0.8-0.8-2.2-2.2-3.2-3.3
			c-0.7-0.7-1.2-1.3-1.5-1.5c-0.5-0.5-2-0.7-3.1-0.9c-1.3-0.2-2.4-0.3-3-1l-5.7-5.7C48,56.4,47,56.1,46,56.4c-1,0.3-1.8,1.1-2.1,2.1
			c-0.3,1,0,2,0.9,2.9l8,8l-1.4,1.4l-8-8C42,61.4,41.5,59.7,42,58c0.4-1.3,1.3-2.5,2.5-3.1l-1.3-5.9l0.1-0.3c1-3,0.8-5.5-0.7-7.7
			c-1.1-1.7-2.3-2.6-3.3-2.8c-1.1,3.5-2.3,11.7-2.4,13.3c-0.1,1.5,0.8,12.1,1.3,14.4c0.6,0.6,2.1,2,3.8,3.8c3.8,3.8,9,8.9,9.8,9.8
			c1.6,1.6,1.5,3.4,1.5,5.6C53.3,85.1,53.3,85.2,53.3,85.3z"/>
	</g>
	<g>
		<polyline class="st1" points="48.5,93.3 48.5,83.5 70.7,83.5 70.7,93.3 		"/>
	</g>
	<g>
		<polygon class="st3" points="71.7,93.3 69.7,93.3 69.7,84.5 49.5,84.5 49.5,93.3 47.5,93.3 47.5,82.5 71.7,82.5 		"/>
	</g>
	<g>
		<rect x="62.4" y="88.1" class="st3" width="4.2" height="2"/>
	</g>
	<g>
		<polygon class="st4" points="74.9,59.8 91.6,50.2 91.6,30.9 74.9,20.9 58.2,30.9 58.2,50.2 		"/>
		<path class="st3" d="M74.9,61L57.2,50.7V30.4l17.7-10.7l17.7,10.7v20.4L74.9,61z M59.2,49.6l15.7,9.1l15.7-9.1V31.5L74.9,22
			l-15.7,9.5V49.6z"/>
	</g>
	<g>
		<polygon class="st3" points="75,41.8 63.3,34.2 64.4,32.5 75,39.4 85.6,32.5 86.7,34.2 		"/>
	</g>
	<g>
		<rect x="73.9" y="41.7" class="st3" width="2" height="12.5"/>
	</g>
	<g>
		<g>
			<path d="M45.3,124.8c-0.1,1.6-0.4,2.9-0.9,4c-0.5,1.1-1,1.6-1.7,1.6c-0.7,0-1.6-0.6-2.5-1.8c-1-1.2-1.7-2.4-2.1-3.7
				c-2.1,2.1-4.3,4-6.7,5.5l-1.1-1.1c3.1-2,5.5-4,7.1-5.9c-0.9-3.3-1.5-7.1-1.7-11.4H25.3v3.8h7.5c0,2.3-0.1,4.4-0.3,6.2
				c-0.2,1.8-0.4,2.9-0.7,3.3c-0.2,0.4-0.6,0.8-1,1s-1.3,0.4-2.5,0.4c-0.4,0-0.8,0-1.4,0l-0.5-1.5c0.6,0.1,1.3,0.2,1.9,0.2
				c0.8,0,1.3-0.1,1.6-0.2c0.3-0.1,0.5-0.3,0.6-0.5c0.2-0.2,0.3-1.1,0.5-2.6c0.2-1.6,0.3-3.1,0.3-4.7h-6c-0.2,5.1-1.3,9.6-3.3,13.3
				l-1.1-1c2-3.6,3-8.2,3-13.8v-5.2h11.6c-0.1-2-0.1-3.6-0.1-4.7h1.5c0,1.4,0,3,0.1,4.7h7.7v1.4h-7.7c0.1,3.6,0.6,7,1.4,10
				c1.6-2.1,2.8-4.7,3.8-7.8l1.5,0.5c-1.3,3.6-2.9,6.6-4.7,9c0.5,1.4,1.2,2.7,1.9,3.6c0.8,1,1.3,1.4,1.6,1.4c0.3,0,0.6-0.5,0.9-1.6
				c0.3-1.1,0.4-2.1,0.4-3.1L45.3,124.8z M43.7,109.2l-1.3,0.9c-0.8-1-1.9-2-3.2-2.9l1.2-1C41.7,107.1,42.8,108.1,43.7,109.2z"/>
		</g>
		<g>
			<path d="M59.5,130.3H58v-2h-6.2v2h-1.5V118h9.1V130.3z M58,126.9v-7.4h-6.2v7.4H58z M69.8,114.8H53.3v-8.3h16.5V114.8z
				 M68.3,113.4v-5.5H54.7v5.5H68.3z M72,130.3h-1.5v-2h-6.2v2h-1.5V118H72V130.3z M70.5,126.9v-7.4h-6.2v7.4H70.5z"/>
		</g>
		<g>
			<path d="M101.7,128.3l-0.5,1.5l-10.2,0.1c-4.6,0-7.9-1.1-9.9-3.3c-1.1,1.5-2.1,2.7-3.2,3.8l-1.1-1c3-2.8,4.8-5.7,5.5-8.8h-4.7
				v-1.4c1.7-2.1,3.2-4.1,4.4-5.9h-5v-1.4h6.8v1.4l-4.4,5.8h4.3v1.5c-0.7,2.3-1.3,3.9-1.9,4.9c0.9,1,2.1,1.7,3.6,2.2
				c1.5,0.5,3.5,0.8,6.2,0.8C93.9,128.4,97.3,128.4,101.7,128.3z M82.8,109.9l-1.1,0.9c-1.3-1.6-2.6-2.9-3.9-3.9l1-1
				C80.5,107.3,81.8,108.6,82.8,109.9z M100.2,125.2h-14v-16.6h4.6c0.5-0.7,1-1.6,1.4-2.8l1.5,0.5c-0.4,0.8-0.8,1.6-1.2,2.3h7v6.6
				H87.6v3h12.6V125.2z M98,113.8V110H87.6v3.8H98z M98.7,123.8v-4.3H87.6v4.3H98.7z"/>
		</g>
		<g>
			<path d="M113.3,127.5c-2.5,1-5.2,1.8-8,2.6l-0.5-1.3l1.4-0.4v-11h1.4V128c0.5-0.1,1.1-0.3,1.9-0.6v-12.2h-3.1v-8.3h6.5v8.3h-1.9
				v3.6h2v1.4h-2v6.8c0.8-0.3,1.5-0.5,2.4-0.9L113.3,127.5z M111.3,113.8v-5.5h-3.6v5.5H111.3z M117.7,114.9c-0.2,0.7-0.4,1.3-0.7,2
				l-0.4,0.9v12.5h-1.5v-9.8c-0.6,0.8-1,1.3-1.3,1.6L113,121c1.5-1.9,2.7-4.2,3.6-6.8L117.7,114.9z M118.8,106.2
				c-1.2,2.6-2.7,4.8-4.6,6.6l-0.8-1.2c1.6-1.5,3-3.5,4.2-5.9L118.8,106.2z M129.4,128.3l-0.5,1.5c-2.8,0-4.8-0.3-5.9-1
				c-1.1-0.7-2-2-2.6-3.9c-0.5,2.3-1.2,4.1-2.1,5.3l-1.1-0.9c1.7-2.5,2.4-6.7,2.3-12.6l1.4,0.1c0,0.6,0,1.7,0,3.3l-0.1,2.2
				c0,0.4,0.3,1.2,0.8,2.6c0.5,1.3,1.3,2.3,2.2,3v-12h1.5v4.1h3.4v1.4h-3.4v7c0.7,0.1,1.6,0.2,2.6,0.2
				C128.4,128.4,128.9,128.4,129.4,128.3z M123.5,111.1l-0.9,1.2c-0.6-0.7-1.1-1.3-1.6-1.7c-0.6,1.5-1.4,2.8-2.3,3.9l-1.1-1
				c1.5-1.8,2.7-4.4,3.4-7.7l1.3,0.3c-0.2,0.9-0.4,2-0.9,3.1C122,109.6,122.7,110.2,123.5,111.1z M129,113.7l-1.1,1.1
				c-0.8-1.3-1.6-2.4-2.4-3.1c-0.7,1.4-1.4,2.5-2.3,3.4l-1-0.9c1.9-2.2,3.1-5,3.7-8.3l1.3,0.3c-0.3,1.4-0.7,2.9-1.2,4.3
				C127.1,111.4,128.1,112.5,129,113.7z"/>
		</g>
	</g>
</g>
</svg>
