<?xml version="1.0" encoding="utf-8"?>
<!-- Generator: Adobe Illustrator 21.1.0, SVG Export Plug-In . SVG Version: 6.00 Build 0)  -->
<svg version="1.1" id="圖層_1" xmlns="http://www.w3.org/2000/svg" xmlns:xlink="http://www.w3.org/1999/xlink" x="0px" y="0px"
	 viewBox="0 0 24 24" style="enable-background:new 0 0 24 24;" xml:space="preserve">
<style type="text/css">
	.st0{fill:#333333;}
</style>
<path class="st0" d="M12,0c3.3,0,6.3,1.3,8.5,3.5l0,0C22.6,5.7,24,8.7,24,12c0,3.3-1.3,6.3-3.5,8.5l-0.1,0.1
	C18.2,22.7,15.3,24,12,24c-3.3,0-6.3-1.3-8.5-3.5l0,0l0,0C1.3,18.3,0,15.3,0,12c0-3.3,1.3-6.3,3.5-8.5l0.1-0.1C5.7,1.3,8.7,0,12,0
	L12,0z M15.1,6.9L15.1,6.9L12,10.1L8.8,6.9c-0.5-0.5-1.4-0.5-1.9,0c-0.5,0.5-0.5,1.4,0,1.9l3.1,3.1l-3.1,3.2c-0.5,0.5-0.5,1.4,0,1.9
	c0.5,0.5,1.4,0.5,1.9,0l3.1-3.2l3.1,3.2c0.5,0.5,1.4,0.5,1.9,0c0.5-0.5,0.5-1.4,0-1.9L13.9,12L17,8.8c0.5-0.5,0.5-1.4,0-1.9
	C16.5,6.4,15.7,6.4,15.1,6.9L15.1,6.9z M18.6,5.4L18.6,5.4c-1.7-1.7-4-2.7-6.6-2.7c-2.6,0-4.9,1-6.5,2.7L5.4,5.4
	c-1.7,1.7-2.7,4-2.7,6.6c0,2.6,1.1,4.9,2.7,6.6c1.7,1.7,4,2.7,6.6,2.7c2.5,0,4.9-1,6.5-2.7l0.1-0.1c1.7-1.7,2.7-4,2.7-6.6
	C21.3,9.4,20.3,7.1,18.6,5.4L18.6,5.4L18.6,5.4z"/>
</svg>
