<?xml version="1.0" encoding="utf-8"?>
<!-- Generator: Adobe Illustrator 21.1.0, SVG Export Plug-In . SVG Version: 6.00 Build 0)  -->
<svg version="1.1" id="圖層_1" xmlns="http://www.w3.org/2000/svg" xmlns:xlink="http://www.w3.org/1999/xlink" x="0px" y="0px"
	 viewBox="0 0 104.7 42" style="enable-background:new 0 0 104.7 42;" xml:space="preserve">
<style type="text/css">
	.st0{fill:url(#SVGID_1_);}
	.st1{fill:#FFFFFF;}
	.st2{fill:none;stroke:#4D0563;stroke-width:0.1;}
</style>
<g>
	<linearGradient id="SVGID_1_" gradientUnits="userSpaceOnUse" x1="52.3511" y1="-5.4091" x2="52.3511" y2="46.245">
		<stop  offset="0" style="stop-color:#FFFFFF"/>
		<stop  offset="8.666667e-02" style="stop-color:#BFA5C7"/>
		<stop  offset="0.2289" style="stop-color:#9367A0"/>
		<stop  offset="0.5444" style="stop-color:#784289"/>
	</linearGradient>
	<path class="st0" d="M104.7,36.4c0,3.1-1.9,5.6-4.3,5.6H4.3C1.9,42,0,39.5,0,36.4V5.6C0,2.5,1.9,0,4.3,0h96.1
		c2.4,0,4.3,2.5,4.3,5.6V36.4z"/>
	<g>
		<path class="st1" d="M35.1,13.2h-2.8c-0.3,2.2-0.8,4-1.4,5.4h3.8v9.9h-1.1v-0.9h-2.4v1.4h-1.1v-8.5c-0.3,0.6-0.7,1.3-1.2,2.1
			L28,21.7c1.6-2.2,2.7-5.1,3.2-8.6h-2.8V12h6.7V13.2z M33.6,26.4v-6.7h-2.4v6.7H33.6z M47.2,29h-8.8v1.2h-1.1V19.6
			c-0.7,0.6-1.2,1-1.5,1.3l-0.7-0.8c2.4-2.1,4-4.1,4.7-6h-2.9v2.5h-1.1V13h4.5c0.3-0.9,0.5-1.5,0.7-2l1,0.2
			c-0.1,0.6-0.3,1.2-0.5,1.8h5.3v3.6h-1.1v-2.5h-4.6c-0.6,1.4-1.4,2.8-2.6,4.3h3.9c-0.3-0.9-0.5-1.5-0.8-1.9l1-0.4
			c0.3,0.8,0.6,1.5,0.8,2.2h3.6v1.1h-3.8v2h3.5v1h-3.5v2.2h3.5v1h-3.5v2.3h4.1V29z M42,21.5v-2h-3.6v2H42z M42,24.7v-2.2h-3.6v2.2
			H42z M42,27.9v-2.3h-3.6v2.3H42z"/>
		<path class="st1" d="M71.4,28.7l-0.3,1.1c-1.4,0-2.5,0.1-3.3,0.1c-2.3,0-4.2-0.1-5.5-0.4c-1.3-0.2-2.5-0.7-3.6-1.4
			c-1-0.7-1.9-1.5-2.4-2.6c-0.8,1.6-2,3.2-3.4,4.7l-0.9-0.8c2.3-2.3,3.9-5.3,4.7-8.9l1.2,0.1c-0.3,1.1-0.6,2.3-1.1,3.6
			c1.1,2.1,2.7,3.4,4.7,3.9v-9.5h-6.6v-1.2h13.7v1.2h-5.9v3.7H70v1.1h-7.1v5c2.1,0.2,4.3,0.3,6.4,0.3C70,28.7,70.7,28.7,71.4,28.7z
			 M70.8,17.8h-1.1v-3.4H54.3v3.3h-1.2v-4.5h8.3c-0.2-0.7-0.5-1.4-0.9-2.1l1.2-0.2c0.4,0.8,0.7,1.5,0.9,2.4h8.3V17.8z"/>
	</g>
	<path class="st2" d="M104.7,36.4c0,3.1-1.9,5.6-4.3,5.6H4.3C1.9,42,0,39.5,0,36.4V5.6C0,2.5,1.9,0,4.3,0h96.1
		c2.4,0,4.3,2.5,4.3,5.6V36.4z"/>
</g>
</svg>
