<?xml version="1.0" encoding="utf-8"?>
<!-- Generator: Adobe Illustrator 21.1.0, SVG Export Plug-In . SVG Version: 6.00 Build 0)  -->
<svg version="1.1" id="圖層_1" xmlns="http://www.w3.org/2000/svg" xmlns:xlink="http://www.w3.org/1999/xlink" x="0px" y="0px"
	 viewBox="0 0 125.4 42" style="enable-background:new 0 0 125.4 42;" xml:space="preserve">
<style type="text/css">
	.st0{fill:url(#SVGID_1_);}
	.st1{fill:#FFFFFF;}
	.st2{fill:none;stroke:#4D0563;stroke-width:0.1;}
</style>
<g>
	<linearGradient id="SVGID_1_" gradientUnits="userSpaceOnUse" x1="62.7079" y1="-5.4091" x2="62.7079" y2="46.245">
		<stop  offset="0" style="stop-color:#FFFFFF"/>
		<stop  offset="8.666667e-02" style="stop-color:#BFA5C7"/>
		<stop  offset="0.2289" style="stop-color:#9367A0"/>
		<stop  offset="0.5444" style="stop-color:#784289"/>
	</linearGradient>
	<path class="st0" d="M125.4,36.4c0,3.1-2.3,5.6-5.1,5.6H5.1C2.3,42,0,39.5,0,36.4V5.6C0,2.5,2.3,0,5.1,0h115.1
		c2.8,0,5.1,2.5,5.1,5.6V36.4z"/>
	<g>
		<path class="st1" d="M44.8,25.6c-0.8,1.9-1.7,3.5-2.7,4.9L41,29.8c0.9-1.1,1.8-2.7,2.7-4.7L44.8,25.6z M52.1,23.6h-4.9v8.8h-1.2
			v-8.8h-4.9v-1.1h4.9v-2.4h-4.6v-1.2h2.9c-0.1-0.8-0.6-1.9-1.3-3.6l0.8-0.6h-2.4v-1.2H46c-0.2-0.6-0.6-1.1-1-1.7l1.1-0.5
			c0.4,0.5,0.8,1.3,1.2,2.2h4.2v1.2h-1.9l0.9,0.6c-0.3,0.9-0.8,2.1-1.5,3.6h2.8v1.2h-4.6v2.4h4.9V23.6z M49.3,14.8h-5
			c0.6,1.6,1.1,2.9,1.4,4.1h2C48.4,17.6,48.9,16.2,49.3,14.8z M51.4,28.2l-1.1,0.7c-0.4-1-0.9-2.1-1.7-3.4l1-0.6
			C50.3,26,50.9,27.1,51.4,28.2z M61.9,20.4h-2.6v12.1h-1.2V20.4h-3.6c0,5.4-1,9.4-3,12.2l-1-0.8c1-1.5,1.8-3.1,2.2-4.7
			s0.7-3.7,0.7-6.4v-7.2c3-0.4,5.5-1.1,7.4-2.1l0.9,1c-2.1,1-4.5,1.7-7.1,2.1v4.7h7.4V20.4z"/>
		<path class="st1" d="M74.7,27.5c-1.4,0.7-3.7,1.6-6.8,2.8l-0.3-1.2c1.6-0.6,2.7-1,3.3-1.2V19h-3.1v-1.2h3.1v-6.1h1.2v6.1h2.1V19
			h-2.1v8.3c0.4-0.1,1.2-0.5,2.5-1L74.7,27.5z M87.6,22H75.1v-7.3h12.5V22z M86.8,32.4h-1.2v-1.1h-8.3v1.1H76v-8.8h10.8V32.4z
			 M80.8,20.8v-4.9h-4.4v4.9H80.8z M79.8,13.5l-1,0.8c-0.7-1-1.3-1.8-1.8-2.3l1-0.7C78.7,11.9,79.2,12.7,79.8,13.5z M85.6,26.7v-2
			h-8.3v2H85.6z M85.6,30.1v-2.2h-8.3v2.2H85.6z M79.6,19.6L78.5,20c-0.2-1-0.6-1.9-1.1-2.8l1-0.5C78.9,17.7,79.3,18.7,79.6,19.6z
			 M86.4,20.8v-4.9H82v4.9H86.4z M85.8,11.9c-0.6,0.9-1.3,1.7-2.1,2.3l-1-0.7c1-0.9,1.6-1.6,2-2.2L85.8,11.9z M85.4,17.1
			c-0.3,1-0.8,2.1-1.5,3.1l-1-0.5c0.6-0.9,1.1-1.9,1.5-3.1L85.4,17.1z"/>
	</g>
	<path class="st2" d="M125.4,36.4c0,3.1-2.3,5.6-5.1,5.6H5.1C2.3,42,0,39.5,0,36.4V5.6C0,2.5,2.3,0,5.1,0h115.1
		c2.8,0,5.1,2.5,5.1,5.6V36.4z"/>
</g>
</svg>
