<?xml version="1.0" encoding="utf-8"?>
<!-- Generator: Adobe Illustrator 21.1.0, SVG Export Plug-In . SVG Version: 6.00 Build 0)  -->
<svg version="1.1" id="圖層_1" xmlns="http://www.w3.org/2000/svg" xmlns:xlink="http://www.w3.org/1999/xlink" x="0px" y="0px"
	 viewBox="0 0 125.4 42" style="enable-background:new 0 0 125.4 42;" xml:space="preserve">
<style type="text/css">
	.st0{fill:url(#SVGID_1_);}
	.st1{fill:#FFFFFF;}
	.st2{fill:none;stroke:#4D0563;stroke-width:0.1;}
	.st3{opacity:0.3;enable-background:new    ;}
</style>
<g>
	<linearGradient id="SVGID_1_" gradientUnits="userSpaceOnUse" x1="62.9016" y1="-5.2173" x2="62.9016" y2="46.4368">
		<stop  offset="0" style="stop-color:#FFFFFF"/>
		<stop  offset="8.666667e-02" style="stop-color:#BFA5C7"/>
		<stop  offset="0.2289" style="stop-color:#9367A0"/>
		<stop  offset="0.5444" style="stop-color:#784289"/>
	</linearGradient>
	<path class="st0" d="M125.6,36.6c0,3.1-2.3,5.6-5.1,5.6H5.3c-2.8,0-5.1-2.5-5.1-5.6V5.8c0-3.1,2.3-5.6,5.1-5.6h115.1
		c2.8,0,5.1,2.5,5.1,5.6V36.6z"/>
	<g>
		<path class="st1" d="M45,25.8c-0.8,1.9-1.7,3.5-2.7,4.9L41.2,30c0.9-1.1,1.8-2.7,2.7-4.7L45,25.8z M52.3,23.8h-4.9v8.8h-1.2v-8.8
			h-4.9v-1.1h4.9v-2.4h-4.6v-1.2h2.9c-0.1-0.8-0.6-1.9-1.3-3.6l0.8-0.6h-2.4v-1.2h4.4c-0.2-0.6-0.6-1.1-1-1.7l1.1-0.5
			c0.4,0.5,0.8,1.3,1.2,2.2h4.2V15h-1.9l0.9,0.6c-0.3,0.9-0.8,2.1-1.5,3.6h2.8v1.2h-4.6v2.4h4.9V23.8z M49.5,15h-5
			c0.6,1.6,1.1,2.9,1.4,4.1h2C48.6,17.8,49.1,16.4,49.5,15z M51.6,28.4l-1.1,0.7c-0.4-1-0.9-2.1-1.7-3.4l1-0.6
			C50.5,26.1,51.1,27.3,51.6,28.4z M62.1,20.6h-2.6v12.1h-1.2V20.6h-3.6c0,5.4-1,9.4-3,12.2l-1-0.8c1-1.5,1.8-3.1,2.2-4.7
			s0.7-3.7,0.7-6.4v-7.2c3-0.4,5.5-1.1,7.4-2.1l0.9,1c-2.1,1-4.5,1.7-7.1,2.1v4.7h7.4V20.6z"/>
		<path class="st1" d="M74.9,27.7c-1.4,0.7-3.7,1.6-6.8,2.8l-0.3-1.2c1.6-0.6,2.7-1,3.3-1.2v-8.9H68V18h3.1v-6.1h1.2V18h2.1v1.2
			h-2.1v8.3c0.4-0.1,1.2-0.5,2.5-1L74.9,27.7z M87.8,22.2H75.3v-7.3h12.5V22.2z M87,32.6h-1.2v-1.1h-8.3v1.1h-1.3v-8.8H87V32.6z
			 M81,21v-4.9h-4.4V21H81z M80,13.7l-1,0.8c-0.7-1-1.3-1.8-1.8-2.3l1-0.7C78.9,12.1,79.4,12.9,80,13.7z M85.8,26.9v-2h-8.3v2H85.8z
			 M85.8,30.3v-2.2h-8.3v2.2H85.8z M79.7,19.8l-1.1,0.4c-0.2-1-0.6-1.9-1.1-2.8l1-0.5C79.1,17.9,79.5,18.9,79.7,19.8z M86.6,21v-4.9
			h-4.5V21H86.6z M86,12.1c-0.6,0.9-1.3,1.7-2.1,2.3l-1-0.7c1-0.9,1.6-1.6,2-2.2L86,12.1z M85.6,17.3c-0.3,1-0.8,2.1-1.5,3.1l-1-0.5
			c0.6-0.9,1.1-1.9,1.5-3.1L85.6,17.3z"/>
	</g>
	<path class="st2" d="M125.6,36.6c0,3.1-2.3,5.6-5.1,5.6H5.3c-2.8,0-5.1-2.5-5.1-5.6V5.8c0-3.1,2.3-5.6,5.1-5.6h115.1
		c2.8,0,5.1,2.5,5.1,5.6V36.6z"/>
</g>
<path class="st3" d="M125.4,36.4c0,3.1-2.3,5.6-5.1,5.6H5.1C2.3,42,0,39.5,0,36.4V5.6C0,2.5,2.3,0,5.1,0h115.1
	c2.8,0,5.1,2.5,5.1,5.6v30.8H125.4z"/>
</svg>
