<?xml version="1.0" encoding="utf-8"?>
<!-- Generator: Adobe Illustrator 21.1.0, SVG Export Plug-In . SVG Version: 6.00 Build 0)  -->
<svg version="1.1" id="圖層_1" xmlns="http://www.w3.org/2000/svg" xmlns:xlink="http://www.w3.org/1999/xlink" x="0px" y="0px"
	 viewBox="0 0 125.4 42" style="enable-background:new 0 0 125.4 42;" xml:space="preserve">
<style type="text/css">
	.st0{fill:url(#SVGID_1_);}
	.st1{fill:#FFFFFF;}
	.st2{fill:none;stroke:#666666;stroke-width:0.1;}
	.st3{opacity:0.3;}
</style>
<g>
	<linearGradient id="SVGID_1_" gradientUnits="userSpaceOnUse" x1="62.7079" y1="-5.4091" x2="62.7079" y2="46.245">
		<stop  offset="0" style="stop-color:#B5B5B5"/>
		<stop  offset="7.777778e-02" style="stop-color:#AFAFAF"/>
		<stop  offset="0.1978" style="stop-color:#8E8E8E"/>
		<stop  offset="0.5178" style="stop-color:#666666"/>
	</linearGradient>
	<path class="st0" d="M125.4,36.4c0,3.1-2.3,5.6-5.1,5.6H5.1C2.3,42,0,39.5,0,36.4V5.6C0,2.5,2.3,0,5.1,0h115.1
		c2.8,0,5.1,2.5,5.1,5.6V36.4z"/>
	<g>
		<path class="st1" d="M20.4,25.1c-0.3,2.1-0.8,3.8-1.4,5l-1.1-0.6c0.6-1.2,1.1-2.8,1.4-4.7L20.4,25.1z M26.2,23.7l-1,0.5
			c-0.1-0.4-0.2-0.8-0.4-1.3c-2,0.5-4.1,0.9-6.3,1.2l-0.3-1.1c1.6-1.2,3.1-2.7,4.4-4.5c-1.7,0.2-3,0.3-3.9,0.4l-0.2-1
			c1.6-1.8,2.9-4,4-6.7l1,0.4c-0.9,2.3-2,4.3-3.3,6c1.3-0.1,2.4-0.1,3.2-0.3c0.5-0.8,0.9-1.6,1.3-2.3l1,0.5
			c-1.7,3.2-3.5,5.6-5.3,7.2c1.5-0.2,2.8-0.5,4-0.8c-0.1-0.4-0.3-0.8-0.6-1.2l1-0.5C25.4,21.5,25.9,22.7,26.2,23.7z M23.2,29.5
			L22,29.7c0-1.2-0.1-2.7-0.4-4.5l1.1-0.3C23,26.6,23.2,28.2,23.2,29.5z M26.2,28.5L25.1,29c-0.2-1.2-0.6-2.5-1.1-3.8l1-0.4
			C25.6,26.1,26,27.4,26.2,28.5z M37.1,15.2h-5.1v3.4h4.4v1.1h-9.7v-1.1H31v-3.4h-4.8v-1.1H31v-3h1.1v3h5.1V15.2z M35.8,30.3h-1.1
			V29h-6.3v1.2h-1.1v-8.1h8.5V30.3z M34.7,27.9v-4.6h-6.3v4.6H34.7z"/>
		<path class="st1" d="M61.5,28.5l-0.8,1c-3.4-1.6-6.2-3.7-8.2-6.4v7.2h-1.1v-7.3c-2.3,2.8-5.1,4.9-8.4,6.4l-0.7-1
			c3.5-1.5,6.3-3.5,8.3-6h-6.4v-5.6h7.3v-2.5h-8.8v-1.1h8.8V11h1.1v2.3h8.8v1.1h-8.8v2.5h7.2v5.6h-6.4
			C55.4,25.1,58.1,27.1,61.5,28.5z M51.4,21.4V18h-6.1v3.4H51.4z M58.5,21.4V18h-6v3.4H58.5z"/>
		<path class="st1" d="M86,28.8l-0.4,1.1l-8.8,0.1c-2.9,0-5.2-0.8-7-2.4c-0.8,1.1-1.6,2.1-2.5,3l-0.9-0.8c1.9-1.6,3.4-4,4.3-7.1
			h-3.7v-1c1.1-1.4,2.2-2.9,3.4-4.6h-3.9v-1.1h5.3V17l-3.3,4.5H72v1.1c-0.4,1.3-0.9,2.6-1.6,3.9c0.7,0.7,1.4,1.2,2.2,1.5
			s1.7,0.5,2.5,0.6c0.9,0.1,3.5,0.2,7.9,0.2C84.2,28.8,85.2,28.8,86,28.8z M71.2,14.4l-0.8,0.8c-0.6-0.9-1.7-2-3.2-3.3l0.8-0.8
			C69.5,12.4,70.6,13.5,71.2,14.4z M84.9,26c0,0.9-0.7,1.3-2.1,1.3c-0.2,0-0.5,0-0.9,0l-0.3-1.1l1.7,0c0.1,0,0.2-0.1,0.4-0.2
			s0.2-0.2,0.2-0.3v-2.2h-3.9v3.7h-1.2v-3.7h-3.9v3.9h-1.2V16.1h4.9c-0.9-0.7-2.1-1.3-3.5-2.1l0.8-0.8c0.7,0.3,1.7,0.9,3,1.7
			c1.9-1,3.2-1.7,3.9-2.2H73v-1.1h11.4v1.1c-1.5,1.1-3,2.1-4.7,2.9c0.3,0.3,0.5,0.4,0.6,0.5h4.6V26z M78.7,19.2v-2.1h-3.9v2.1H78.7z
			 M78.7,22.6v-2.3h-3.9v2.3H78.7z M83.7,19.2v-2.1h-3.9v2.1H83.7z M83.7,22.6v-2.3h-3.9v2.3H83.7z"/>
		<path class="st1" d="M98.2,14.5h-7.4v-1.1H94c-0.2-0.8-0.5-1.5-0.8-2.1l1.1-0.3c0.4,0.7,0.7,1.5,1,2.4h3V14.5z M97.7,17.6h-6.4
			v-1.1h6.4V17.6z M97.7,20.8h-6.4v-1.1h6.4V20.8z M97.4,29.7h-1.1v-1.1h-3.7v1.7h-1.2V23h5.9V29.7z M96.3,27.4v-3.3h-3.7v3.3H96.3z
			 M109.8,18.1h-5.1v3.6h3.9v8.6h-1.1v-1.6h-6.5v1.6h-1.2v-8.6h3.8v-3.6h-4.8V17h4.8v-3.6c-1.3,0.1-2.7,0.2-4.2,0.2l-0.4-1.1
			c4,0,7.3-0.5,9.9-1.5l0.6,1c-1.6,0.5-3.1,0.9-4.7,1.1V17h5.1V18.1z M107.4,27.6v-4.8h-6.5v4.8H107.4z"/>
	</g>
	<path class="st2" d="M125.4,36.4c0,3.1-2.3,5.6-5.1,5.6H5.1C2.3,42,0,39.5,0,36.4V5.6C0,2.5,2.3,0,5.1,0h115.1
		c2.8,0,5.1,2.5,5.1,5.6V36.4z"/>
</g>
<path class="st3" d="M125.4,36.4c0,3.1-2.3,5.6-5.1,5.6H5.1C2.3,42,0,39.5,0,36.4V5.6C0,2.5,2.3,0,5.1,0h115.1
	c2.8,0,5.1,2.5,5.1,5.6V36.4z"/>
</svg>
