<?xml version="1.0" encoding="utf-8"?>
<!-- Generator: Adobe Illustrator 21.1.0, SVG Export Plug-In . SVG Version: 6.00 Build 0)  -->
<svg version="1.1" id="圖層_1" xmlns="http://www.w3.org/2000/svg" xmlns:xlink="http://www.w3.org/1999/xlink" x="0px" y="0px"
	 viewBox="0 0 104.7 42" style="enable-background:new 0 0 104.7 42;" xml:space="preserve">
<style type="text/css">
	.st0{fill:url(#SVGID_1_);}
	.st1{fill:#FFFFFF;}
	.st2{fill:none;stroke:#666666;stroke-width:0.1;}
	.st3{opacity:0.3;}
</style>
<g>
	<linearGradient id="SVGID_1_" gradientUnits="userSpaceOnUse" x1="52.3511" y1="-5.4091" x2="52.3511" y2="46.245">
		<stop  offset="0" style="stop-color:#B5B5B5"/>
		<stop  offset="7.777778e-02" style="stop-color:#AFAFAF"/>
		<stop  offset="0.1978" style="stop-color:#8E8E8E"/>
		<stop  offset="0.5178" style="stop-color:#666666"/>
	</linearGradient>
	<path class="st0" d="M104.7,36.4c0,3.1-1.9,5.6-4.3,5.6H4.3C1.9,42,0,39.5,0,36.4V5.6C0,2.5,1.9,0,4.3,0h96.1
		c2.4,0,4.3,2.5,4.3,5.6V36.4z"/>
	<g>
		<path class="st1" d="M41.8,12.5H40v17.9h-1.2v-4.5c-1.9,0.7-4.3,1.3-7.1,2l-0.4-1.1l2-0.4V12.5h-2v-1.1h10.5V12.5z M38.8,15.9
			v-3.4h-4.4v3.4H38.8z M38.8,20.6V17h-4.4v3.5H38.8z M38.8,24.7v-3h-4.4V26C35.7,25.7,37.1,25.3,38.8,24.7z M50.5,29.4l-0.8,0.9
			c-1.5-1.2-2.8-2.6-3.9-4c-1.3,1.6-2.7,3-4.2,4l-0.8-0.8c1.4-1,2.9-2.4,4.3-4.2c-1.8-3.1-2.9-6.7-3.3-11h-0.7v-1.1h8.5
			c-0.1,4.7-1.1,8.7-3.1,12c0.3,0.5,0.8,1.2,1.7,2.2C49.2,28.4,49.9,29,50.5,29.4z M48.5,14.4h-5.4c0.2,3.7,1.1,7,2.8,9.9
			C47.4,21.5,48.3,18.2,48.5,14.4z"/>
		<path class="st1" d="M60.7,22.9c-1.2,2.6-2.7,5-4.4,7.1l-0.9-0.8c1.5-1.9,2.9-4.2,4.3-7L60.7,22.9z M60.2,19.7l-0.7,0.9
			c-1.1-1-2.4-1.9-3.9-2.8l0.7-1C57.9,17.9,59.2,18.8,60.2,19.7z M61.3,13.8l-0.7,0.9c-1.2-1.1-2.6-2-4.2-2.9l0.7-0.9
			C58.7,11.8,60.1,12.8,61.3,13.8z M73.7,28.1c0,0.9-0.3,1.5-0.8,1.7s-1.2,0.4-2.2,0.4h-1.4l-0.5-1.1c0.7,0,1.3,0,1.8,0
			c0.9,0,1.4-0.1,1.6-0.2c0.2-0.1,0.3-0.3,0.3-0.7v-4.1c-3.4,1.1-6.3,2.1-8.8,2.8l-0.5-0.7c-0.4,1.6-1.1,2.9-2,4l-1-0.7
			c1.5-1.7,2.2-4,2.2-6.8v-5.1h5.1V11h1.1v6.6h5V28.1z M65.7,16l-0.9,0.6c-0.9-1.5-2-2.9-3.1-4l1-0.7C64,13.3,65,14.6,65.7,16z
			 M72.5,23v-4.3h-8.9v1.8c2.8,0.3,5.2,0.7,7.3,1.2l-0.4,1.1c-2-0.5-4.3-0.9-7-1.2c0,1.6-0.1,3-0.3,4.3C66.3,25.2,69.4,24.2,72.5,23
			z M74.5,12.5c-0.8,1.5-1.8,2.9-2.9,4.1L70.6,16c1-1.1,2-2.5,2.9-4.2L74.5,12.5z"/>
	</g>
	<path class="st2" d="M104.7,36.4c0,3.1-1.9,5.6-4.3,5.6H4.3C1.9,42,0,39.5,0,36.4V5.6C0,2.5,1.9,0,4.3,0h96.1
		c2.4,0,4.3,2.5,4.3,5.6V36.4z"/>
</g>
<path class="st3" d="M104.7,36.4c0,3.1-1.9,5.6-4.3,5.6H4.3C1.9,42,0,39.5,0,36.4V5.6C0,2.5,1.9,0,4.3,0h96.1c2.4,0,4.3,2.5,4.3,5.6
	V36.4z"/>
</svg>
