<?xml version="1.0" encoding="utf-8"?>
<!-- Generator: Adobe Illustrator 21.1.0, SVG Export Plug-In . SVG Version: 6.00 Build 0)  -->
<svg version="1.1" id="圖層_1" xmlns="http://www.w3.org/2000/svg" xmlns:xlink="http://www.w3.org/1999/xlink" x="0px" y="0px"
	 viewBox="0 0 125.4 42" style="enable-background:new 0 0 125.4 42;" xml:space="preserve">
<style type="text/css">
	.st0{fill:url(#SVGID_1_);}
	.st1{fill:#FFFFFF;}
	.st2{fill:none;stroke:#4D0563;stroke-width:0.1;}
</style>
<g>
	<linearGradient id="SVGID_1_" gradientUnits="userSpaceOnUse" x1="62.7079" y1="-5.4091" x2="62.7079" y2="46.245">
		<stop  offset="0" style="stop-color:#FFFFFF"/>
		<stop  offset="8.666667e-02" style="stop-color:#BFA5C7"/>
		<stop  offset="0.2289" style="stop-color:#9367A0"/>
		<stop  offset="0.5444" style="stop-color:#784289"/>
	</linearGradient>
	<path class="st0" d="M125.4,36.4c0,3.1-2.3,5.6-5.1,5.6H5.1C2.3,42,0,39.5,0,36.4V5.6C0,2.5,2.3,0,5.1,0h115.1
		c2.8,0,5.1,2.5,5.1,5.6V36.4z"/>
	<g>
		<path class="st1" d="M20.4,25.3c-0.3,2.1-0.8,3.8-1.4,5.1L18,30c0.6-1.3,1.1-2.9,1.4-4.9L20.4,25.3z M25.4,23.8l-0.9,0.4
			c-0.2-0.6-0.3-1-0.4-1.1c-1.9,0.5-3.8,0.9-5.5,1.1l-0.3-0.9c1.4-1.4,2.8-3.1,4-5.2c-0.9,0.2-2.1,0.3-3.5,0.5l-0.3-1
			c1.4-1.5,2.5-3.7,3.5-6.5l1.1,0.3c-0.8,2.5-1.9,4.5-3.2,6c0.6,0,1.7-0.2,3.1-0.4c0.4-0.6,0.8-1.4,1.3-2.6l1.1,0.4
			c-1.6,3.4-3.4,6.1-5.4,8.2c1.2-0.2,2.5-0.4,3.8-0.7c-0.1-0.4-0.4-0.9-0.7-1.5l1-0.4C24.6,21.8,25.1,22.9,25.4,23.8z M23,29.7
			L22,29.8c-0.1-1.5-0.3-3-0.7-4.5l1-0.2C22.7,26.5,22.9,28,23,29.7z M25.3,28.1l-1,0.2c-0.3-1.4-0.6-2.5-1-3.3l0.9-0.2
			C24.7,25.8,25,26.9,25.3,28.1z M37.2,29.9H26V11.2h1v8h10.1v1H27v8.7h10.2V29.9z M32.3,22.4c-0.8,1.7-1.9,3.2-3.4,4.6
			c0.9-0.1,1.6-0.2,2.1-0.3c-0.1-0.5-0.2-0.8-0.3-1l0.8-0.2c0.3,0.7,0.5,1.6,0.7,2.5l-0.8,0.2l-0.2-0.8c-1.1,0.2-2.2,0.4-3.5,0.6
			l-0.2-0.8c0.9-0.8,1.6-1.6,2.3-2.6c-0.7,0.1-1.4,0.1-2.1,0.1l-0.2-0.8c0.8-0.8,1.4-1.8,2-3.1l0.9,0.3c-0.4,0.9-0.9,1.9-1.6,2.8
			c0.4,0,1-0.1,1.6-0.2c0.4-0.5,0.7-1,0.9-1.6L32.3,22.4z M32.4,12.6c-0.8,1.7-1.9,3.2-3.3,4.5c0.8-0.1,1.4-0.2,2-0.3
			c0-0.1-0.1-0.4-0.2-0.8l0.8-0.2c0.2,0.5,0.5,1.3,0.7,2.5l-0.8,0.2c0-0.4-0.1-0.7-0.2-0.9c-1.6,0.3-2.7,0.5-3.3,0.6l-0.2-0.8
			c0.7-0.6,1.5-1.4,2.2-2.5C29,14.9,28.4,15,28.1,15l-0.2-0.7c0.6-0.7,1.2-1.8,1.8-3.3l0.8,0.4c-0.3,0.9-0.8,1.8-1.4,2.7
			c0.5,0,1-0.1,1.6-0.2c0.4-0.7,0.7-1.2,0.9-1.5L32.4,12.6z M37.1,27.9l-0.9,0.2l-0.1-0.7l-1.8,0.3c-0.6,0.1-1.1,0.2-1.5,0.2
			l-0.2-0.8c0.7-0.6,1.4-1.5,2.1-2.5c-0.8,0.1-1.5,0.2-2.2,0.2L32.3,24c0.8-0.9,1.4-2,1.8-3.1l0.9,0.3c-0.2,0.7-0.7,1.7-1.5,2.8
			c0.6,0,1.2-0.1,1.7-0.2c0.2-0.3,0.4-0.8,0.7-1.5l0.9,0.4c-0.8,1.7-1.7,3.2-2.9,4.4c0.5,0,1.1-0.1,2-0.3c-0.1-0.4-0.2-0.7-0.3-1.1
			l0.8-0.2C36.8,26.1,37,27,37.1,27.9z M37.1,18.2l-0.9,0.2c-0.1-0.3-0.1-0.5-0.2-0.8c-1.2,0.3-2.2,0.4-3.1,0.5l-0.3-0.8
			c0.7-0.6,1.4-1.4,2.1-2.5c-0.8,0.2-1.5,0.3-2.1,0.3l-0.3-0.8c0.8-0.9,1.3-2,1.7-3.2l0.9,0.3c-0.5,1.1-0.9,2-1.5,2.7
			c0.6-0.1,1.2-0.2,1.8-0.3c0.2-0.4,0.5-0.9,0.7-1.5l0.9,0.3c-0.8,1.8-1.8,3.3-3,4.5c0.5,0,1.1-0.1,1.8-0.3c0-0.1-0.1-0.4-0.3-0.8
			l0.8-0.2C36.7,16.5,37,17.3,37.1,18.2z"/>
		<path class="st1" d="M44.5,25.1c-0.2,1.6-0.6,3.4-1.2,5.2l-1-0.3c0.5-1.5,0.9-3.2,1.2-5.1L44.5,25.1z M49.4,23.3l-1,0.4
			c0-0.2-0.1-0.5-0.2-0.9c-1.7,0.5-3.6,1-5.5,1.4l-0.3-1.1c1.4-1.5,2.6-3.2,3.7-5.1c-1.3,0.2-2.4,0.4-3.4,0.5l-0.2-1
			c1.2-1.7,2.3-3.9,3.3-6.6l1,0.5c-1,2.5-2,4.5-3,5.9c0.9-0.1,1.8-0.2,2.9-0.4c0.5-0.9,1-1.8,1.5-2.9l1,0.5
			c-1.5,3.1-3.2,5.9-5.3,8.4c1.3-0.3,2.6-0.6,4-1.1c-0.1-0.5-0.3-1-0.6-1.6l1-0.3C48.8,20.9,49.1,22,49.4,23.3z M46.8,29.5l-1.1,0.3
			c0-1.4-0.1-2.9-0.4-4.6l1-0.2C46.6,26.6,46.8,28.1,46.8,29.5z M49.4,27.7l-1,0.3c-0.2-1-0.5-2.1-1-3.3l0.9-0.3
			C48.9,25.5,49.2,26.6,49.4,27.7z M59.9,27.2h-6.4l0.6,0.7c-1.6,1-3.2,1.8-4.8,2.4l-0.7-0.8c1.6-0.6,3.1-1.3,4.7-2.3h-2.8v-6.9h9.4
			V27.2z M61.5,13.2h-5.7v1.2h4.9v0.9H50v-0.9h4.7v-1.2h-5.6v-0.9h5.6v-1.2h1.1v1.2h5.7V13.2z M60.9,19.3H49.5v-3h11.4V19.3z
			 M52.9,18.5v-1.3h-2.3v1.3H52.9z M58.9,22.3v-1.1h-7.2v1.1H58.9z M58.9,24.3v-1.1h-7.2v1.1H58.9z M58.9,26.3v-1.1h-7.2v1.1H58.9z
			 M56.4,18.5v-1.3H54v1.3H56.4z M61.5,29.5l-0.6,0.9c-1.3-0.7-2.8-1.3-4.5-1.8l0.6-0.8C58.6,28.1,60.1,28.7,61.5,29.5z M59.8,18.5
			v-1.3h-2.4v1.3H59.8z"/>
		<path class="st1" d="M68.1,23.5c-0.1,2-0.3,3.8-0.6,5.3l-1-0.2c0.4-1.4,0.6-3.1,0.7-5.2L68.1,23.5z M74.4,12.7h-2.5v2.1H74v1h-2.1
			v2.1H74V19h-2.1v2.2H74c0,1.2,0,2.2,0,3c0,1.6,0,2.8-0.1,3.7c-0.1,0.9-0.3,1.5-0.5,1.8c-0.2,0.3-0.5,0.5-0.8,0.5
			c-0.3,0.1-0.9,0.1-1.8,0.1l-0.3-1.1c0.3,0,0.7,0,1.3,0c0.5,0,0.8-0.2,1-0.6c0.2-0.4,0.3-1.8,0.3-4.3c0-0.8,0-1.5-0.1-2.1h-5.4
			V11.6h6.9V12.7z M69.6,28.6l-0.9,0.1c0-0.7,0-1.4,0-2c0-1.1,0-2.2-0.1-3.1l0.8-0.1c0.1,2.1,0.2,3.4,0.2,3.9
			C69.6,27.8,69.6,28.2,69.6,28.6z M70.8,14.8v-2.1h-2.1v2.1H70.8z M70.8,17.9v-2h-2.1v2H70.8z M70.8,21.2V19h-2.1v2.2H70.8z
			 M71.3,27.7l-0.9,0.1c-0.1-1.6-0.2-3.1-0.5-4.3l0.8-0.2C71,24.5,71.2,26,71.3,27.7z M72.6,26.5l-0.8,0.2c-0.1-0.8-0.3-2-0.7-3.4
			l0.7-0.2C72.1,23.6,72.3,24.7,72.6,26.5z M85.7,16.3l-0.6,0.9c-2.1-1.1-3.9-2.7-5.3-4.7c-1.2,1.6-2.8,3.1-5,4.6l-0.7-0.9
			c2.5-1.6,4.3-3.4,5.4-5.3l1.1,0.4c0,0.1-0.1,0.2-0.2,0.4C81.8,13.6,83.6,15.2,85.7,16.3z M79.6,28.3l-0.8,0.8
			c-0.3-0.5-0.9-1.1-1.6-1.9c-0.7,1.3-1.4,2.3-2.1,3.1l-0.9-0.6c1.3-1.6,2.3-3.4,2.9-5.4l1,0.4c-0.2,0.6-0.4,1.1-0.5,1.5
			C78.3,26.8,79,27.5,79.6,28.3z M79.3,23.8h-4.2v-5.2h4.2V23.8z M78.3,22.8v-3.2h-2.1v3.2H78.3z M82.7,17h-5.9V16h5.9V17z
			 M85.7,29.5l-0.8,0.8c-0.9-1.2-1.8-2.1-2.7-2.8c-0.6,1.1-1.3,2.1-2,2.9l-0.9-0.7c1.3-1.4,2.3-3.2,3.1-5.5l1.1,0.4
			c-0.2,0.6-0.5,1.2-0.8,1.9C84,27.6,85,28.6,85.7,29.5z M84.7,23.8h-4.2v-5.2h4.2V23.8z M83.7,22.8v-3.2h-2.2v3.2H83.7z"/>
		<path class="st1" d="M97.7,30.3h-1.1v-6c-1.5,0.8-3.2,1.6-5,2.2L91,25.1c0.3-0.2,0.4-0.5,0.4-0.8V13h1.1v11.8
			c1.5-0.6,2.8-1.2,3.9-1.8V11h1.1V30.3z M109.8,29.3l-0.8,1c-2.2-1.1-3.9-2.4-5.1-3.8c-1.4,1.5-3.1,2.8-4.9,3.7l-0.8-0.9
			c2.1-1.1,3.8-2.3,5.1-3.8c-1-1.5-1.8-3.4-2.4-5.7l1.1-0.3c0.6,2.2,1.3,3.9,2,5c1.4-2.1,2.3-5.2,2.5-9.3h-4.5
			c-0.7,2-1.6,3.9-2.7,5.6l-0.9-0.9c1.7-2.6,2.9-5.6,3.5-9.1l1.1,0.2c-0.1,0.9-0.3,1.9-0.7,3.1h7.2v1.1h-1.9
			c-0.5,4.9-1.5,8.3-3,10.3C105.9,27.1,107.6,28.4,109.8,29.3z"/>
	</g>
	<path class="st2" d="M125.4,36.4c0,3.1-2.3,5.6-5.1,5.6H5.1C2.3,42,0,39.5,0,36.4V5.6C0,2.5,2.3,0,5.1,0h115.1
		c2.8,0,5.1,2.5,5.1,5.6V36.4z"/>
</g>
</svg>
