<?xml version="1.0" encoding="utf-8"?>
<!-- Generator: Adobe Illustrator 21.1.0, SVG Export Plug-In . SVG Version: 6.00 Build 0)  -->
<svg version="1.1" id="圖層_1" xmlns="http://www.w3.org/2000/svg" xmlns:xlink="http://www.w3.org/1999/xlink" x="0px" y="0px"
	 viewBox="0 0 95.5 32.8" style="enable-background:new 0 0 95.5 32.8;" xml:space="preserve">
<style type="text/css">
	.st0{fill:url(#SVGID_1_);}
	.st1{fill:#FFFFFF;}
	.st2{fill:none;stroke:#662D91;stroke-width:0.25;stroke-miterlimit:10;}
</style>
<g>
	<linearGradient id="SVGID_1_" gradientUnits="userSpaceOnUse" x1="47.7545" y1="0" x2="47.7545" y2="32.7636">
		<stop  offset="0" style="stop-color:#BFA5C7"/>
		<stop  offset="0.1978" style="stop-color:#9367A0"/>
		<stop  offset="0.5444" style="stop-color:#784289"/>
	</linearGradient>
	<path class="st0" d="M79.7,32.8h-64C7.1,32.8,0,25.7,0,17v-1.2C0,7.1,7.1,0,15.8,0l64,0c8.7,0,15.8,7.1,15.8,15.8V17
		C95.5,25.7,88.4,32.8,79.7,32.8z"/>
	<g>
		<path class="st1" d="M26.8,22.5c0,0.4-0.1,0.7-0.3,1c-0.2,0.3-0.4,0.4-0.7,0.5s-0.7,0.1-1.4,0.1c-0.5,0-1.1,0-1.7,0l-0.5-1.6
			c0.5,0,1.3,0,2.5,0c0.1,0,0.3-0.1,0.4-0.2s0.2-0.2,0.2-0.4v-7H14.5v9.1h-1.6V13.5H19V8.4h1.7v5.1h6.1V22.5z M17.1,12.3l-1.4,0.8
			c-0.5-1-1.3-2.2-2.4-3.5l1.4-0.9C15.8,10.1,16.6,11.3,17.1,12.3z M23.2,21.7h-6.7v-5.3h6.7V21.7z M21.7,20.4v-2.6h-3.6v2.6H21.7z
			 M26.3,9.6c-0.7,1.3-1.4,2.5-2.4,3.6l-1.4-0.9c0.9-1.1,1.7-2.3,2.4-3.5L26.3,9.6z"/>
		<path class="st1" d="M46.7,21.9l-1,1.3c-2.8-1.6-4.8-3.6-6.1-6.1v6.9h-1.7v-6.9c-1.4,2.4-3.4,4.4-6.1,6l-1-1.4
			c2.6-1.4,4.5-3.2,5.8-5.5h-5.5v-1.6h6.8v-2.8h-6.2v-1.6h6.2v-2h1.7v2h6.2v1.6h-6.2v2.8h6.8v1.6h-5.5
			C41.9,18.5,43.9,20.3,46.7,21.9z"/>
		<path class="st1" d="M51,18.4c0,1.5-0.2,2.9-0.5,4.4l-0.8-0.3c0.3-1.3,0.5-2.8,0.5-4.3L51,18.4z M56.2,10.1h-1.7v1.1h1.3v1.3h-1.3
			v1.2h1.3V15h-1.3v1.3H56c0,3.9-0.1,6.2-0.4,6.8s-0.9,1-1.9,1c-0.2,0-0.4,0-0.6,0l-0.5-1.5l1.5,0c0.1,0,0.2-0.1,0.3-0.3
			s0.2-1.7,0.2-4.7h-4.2V8.7h5.7V10.1z M52.1,22.4l-0.8,0.2c0-0.6,0.1-1.1,0.1-1.7c0-0.8,0-1.5-0.1-2.3l0.7-0.1
			c0.1,0.9,0.1,1.9,0.1,2.8C52.2,21.6,52.2,22,52.1,22.4z M53.1,11.2v-1.1h-1.1v1.1H53.1z M53.1,13.7v-1.2h-1.1v1.2H53.1z
			 M53.1,16.2V15h-1.1v1.3H53.1z M53.4,21.7l-0.7,0.2c0-1.3-0.1-2.5-0.3-3.5l0.7-0.1C53.2,19.2,53.3,20.3,53.4,21.7z M54.3,21
			l-0.6,0.2c0-0.9-0.1-1.9-0.3-3l0.6-0.1C54.2,18.9,54.3,19.9,54.3,21z M60.6,22.1l-1,1.1c-0.4-0.5-0.7-0.8-1-1.1
			c-0.4,0.8-0.9,1.5-1.4,2.1l-1.4-0.9c0.9-1,1.7-2.4,2.3-4.1l1.5,0.3c-0.1,0.4-0.2,0.8-0.4,1.1C59.8,21.2,60.3,21.6,60.6,22.1z
			 M65.8,12.4l-0.7,1.4c-0.7-0.4-1.4-0.8-1.9-1.3v0.9h-4.8v-0.9c-0.7,0.6-1.3,1-1.7,1.2l-0.7-1.5c2.1-1.3,3.5-2.7,4.3-4.1l1.6,0.4
			c-0.1,0.1-0.1,0.2-0.2,0.4C62.6,10.2,64,11.3,65.8,12.4z M60.3,18.9h-3.6v-4.6h3.6V18.9z M59.1,17.5v-1.9H58v1.9H59.1z M62.6,12.1
			c-0.6-0.5-1.2-1.2-1.8-1.9c-0.6,0.7-1.2,1.3-1.9,1.9H62.6z M65.7,22.9l-1.1,1.2c-0.5-0.6-1-1.2-1.8-1.8c-0.4,0.6-0.8,1.3-1.3,1.9
			l-1.4-0.8c1-1.2,1.8-2.5,2.4-4.2l1.5,0.3c-0.1,0.4-0.2,0.9-0.5,1.4C64.4,21.6,65.1,22.3,65.7,22.9z M64.8,18.9h-3.7v-4.6h3.7V18.9
			z M63.5,17.5v-1.9h-1.1v1.9H63.5z"/>
		<path class="st1" d="M74.9,24.1h-1.6v-4.4c-1.2,0.7-2.6,1.4-4,1.9l-0.5-1.4c0.2-0.2,0.3-0.4,0.3-0.7V9.6h1.5v9.7
			c0.9-0.4,1.8-0.9,2.6-1.3V8.4h1.6V24.1z M84.7,22.8l-0.9,1.4c-1.5-0.7-2.8-1.5-3.9-2.6c-1.2,1.2-2.4,2-3.7,2.6l-0.9-1.4
			c1.6-0.7,2.8-1.6,3.5-2.5c-0.8-1.2-1.4-2.5-1.7-3.9l1.4-0.7c0.3,1.3,0.7,2.4,1.3,3.3c0.9-1.5,1.5-3.7,1.7-6.6h-3
			c-0.6,1.8-1.3,3.3-2.1,4.6l-1.1-1.3c1.1-1.9,2-4.4,2.6-7.5l1.6,0.2c-0.1,0.7-0.3,1.5-0.5,2.4h5.5v1.6h-1.3c-0.3,3.6-1,6.2-2.2,7.9
			C82,21.4,83.2,22.3,84.7,22.8z"/>
	</g>
	<path class="st2" d="M79.7,32.8h-64C7.1,32.8,0,25.7,0,17v-1.2C0,7.1,7.1,0,15.8,0l64,0c8.7,0,15.8,7.1,15.8,15.8V17
		C95.5,25.7,88.4,32.8,79.7,32.8z"/>
</g>
</svg>
