<?xml version="1.0" encoding="utf-8"?>
<!-- Generator: Adobe Illustrator 21.1.0, SVG Export Plug-In . SVG Version: 6.00 Build 0)  -->
<svg version="1.1" id="圖層_1" xmlns="http://www.w3.org/2000/svg" xmlns:xlink="http://www.w3.org/1999/xlink" x="0px" y="0px"
	 viewBox="0 0 40 40" style="enable-background:new 0 0 40 40;" xml:space="preserve">
<style type="text/css">
	.st0{fill:#39B54A;}
	.st1{fill:#FFFFFF;}
</style>
<g>
	<g>
		<path class="st0" d="M33.1,40H6.9C3.1,40,0,36.9,0,33.1V6.9C0,3.1,3.1,0,6.9,0h26.2C36.9,0,40,3.1,40,6.9v26.2
			C40,36.9,36.9,40,33.1,40z"/>
	</g>
	<g>
		<path class="st1" d="M20,32.9c-7.1,0-12.9-5.8-12.9-12.9S12.9,7.1,20,7.1c7.1,0,12.9,5.8,12.9,12.9S27.1,32.9,20,32.9z M20,11.1
			c-4.9,0-8.9,4-8.9,8.9c0,4.9,4,8.9,8.9,8.9s8.9-4,8.9-8.9C28.9,15.1,24.9,11.1,20,11.1z"/>
	</g>
</g>
</svg>
