<?xml version="1.0" encoding="utf-8"?>
<!-- Generator: Adobe Illustrator 21.1.0, SVG Export Plug-In . SVG Version: 6.00 Build 0)  -->
<svg version="1.1" id="圖層_1" xmlns="http://www.w3.org/2000/svg" xmlns:xlink="http://www.w3.org/1999/xlink" x="0px" y="0px"
	 viewBox="0 0 125.4 42" style="enable-background:new 0 0 125.4 42;" xml:space="preserve">
<style type="text/css">
	.st0{fill:url(#SVGID_1_);}
	.st1{fill:#FFFFFF;}
	.st2{fill:none;stroke:#4D0563;stroke-width:0.1;}
	.st3{opacity:0.3;enable-background:new    ;}
</style>
<g>
	<linearGradient id="SVGID_1_" gradientUnits="userSpaceOnUse" x1="62.7079" y1="-5.4091" x2="62.7079" y2="46.245">
		<stop  offset="0" style="stop-color:#FFFFFF"/>
		<stop  offset="8.666667e-02" style="stop-color:#BFA5C7"/>
		<stop  offset="0.2289" style="stop-color:#9367A0"/>
		<stop  offset="0.5444" style="stop-color:#784289"/>
	</linearGradient>
	<path class="st0" d="M125.4,36.4c0,3.1-2.3,5.6-5.1,5.6H5.1C2.3,42,0,39.5,0,36.4V5.6C0,2.5,2.3,0,5.1,0h115.1
		c2.8,0,5.1,2.5,5.1,5.6V36.4z"/>
	<g>
		<path class="st1" d="M47.3,16.9h-1.9v4.5c0.4-0.2,0.8-0.5,1.2-0.8l0.3,1.2c-0.4,0.4-0.9,0.8-1.5,1.1v7.7c0,1.2-0.6,1.8-1.9,1.8
			c-0.7,0-1.2,0-1.4,0l-0.5-1.2c1.1,0,1.8,0,2.1,0s0.4-0.2,0.4-0.5v-7.1c-0.9,0.4-1.7,0.7-2.5,1l-0.6-1.1c1.1-0.4,2.1-0.8,3-1.3
			v-5.2h-2.9v-1.2h2.9v-4.3h1.2v4.3h1.9V16.9z M61.6,24.1h-1.2v-2h-5.2v2.7h5v4.4c0,0.6-0.2,1-0.5,1.3s-1.2,0.4-2.5,0.3l-0.4-1.2
			c0.4,0,0.8,0.1,1.1,0.1c0.6,0,0.9-0.1,1-0.2s0.2-0.2,0.2-0.4v-3.2h-3.8v6.5h-1.2v-6.5h-3.7v5H49v-6.2h4.9V22h-5.1v2h-1.2v-3.2h14
			V24.1z M61.5,16.2h-1.9v3.1H49.1v-1.2h9.3v-1.9H48.2V15h10.2v-1.8h-9.3V12h10.5v3h1.9V16.2z"/>
		<path class="st1" d="M74.5,22.1c-0.6,0.3-1.4,0.7-2.5,1.1v7.5c0,0.5-0.2,0.9-0.5,1.2s-0.9,0.4-1.8,0.4h-1.2L68,31.1
			c0.6,0,1.1,0,1.5,0c0.6,0,1,0,1.1-0.1s0.2-0.2,0.2-0.5v-6.8c-1.2,0.5-2.2,0.8-2.9,1.1l-0.3-1.2c1-0.3,2.1-0.7,3.2-1.2v-5.6h-3
			v-1.2h3v-4.3H72v4.3h2.4v1.2H72v5.1c0.8-0.3,1.5-0.6,2.3-1.1L74.5,22.1z M81.1,15.3h-1.7v2.9h-1.3v-2.9h-3.3v-1.2h3.3v-2.8h1.3
			v2.8h1.7V15.3z M87.5,32.4h-1.3v-1.1h-9.5v1.1h-1.2V19.2h11.9V32.4z M80.9,24.6v-4.2h-4.1v4.2H80.9z M80.9,30.1v-4.4h-4.1v4.4
			H80.9z M86.2,24.6v-4.2h-4.1v4.2H86.2z M86.2,30.1v-4.4h-4.1v4.4H86.2z M88.5,15.3h-3.3v2.9h-1.2v-2.9h-1.8v-1.2h1.8v-2.8h1.2v2.8
			h3.3V15.3z"/>
	</g>
	<path class="st2" d="M125.4,36.4c0,3.1-2.3,5.6-5.1,5.6H5.1C2.3,42,0,39.5,0,36.4V5.6C0,2.5,2.3,0,5.1,0h115.1
		c2.8,0,5.1,2.5,5.1,5.6V36.4z"/>
</g>
<path class="st3" d="M125.4,36.4c0,3.1-2.3,5.6-5.1,5.6H5.1C2.3,42,0,39.5,0,36.4V5.6C0,2.5,2.3,0,5.1,0h115.1
	c2.8,0,5.1,2.5,5.1,5.6v30.8H125.4z"/>
</svg>
