<?xml version="1.0" encoding="utf-8"?>
<!-- Generator: Adobe Illustrator 21.1.0, SVG Export Plug-In . SVG Version: 6.00 Build 0)  -->
<svg version="1.1" id="圖層_1" xmlns="http://www.w3.org/2000/svg" xmlns:xlink="http://www.w3.org/1999/xlink" x="0px" y="0px"
	 viewBox="0 0 49.5 49.6" style="enable-background:new 0 0 49.5 49.6;" xml:space="preserve">
<style type="text/css">
	.st0{fill:#39B54A;}
</style>
<g>
	<path class="st0" d="M34.4,36.8c1.1-0.7,2.6-1.4,3.7-2.5c1.6-1.5,2.9-1.5,4.4,0.1c1.9,2,3.9,4,6,6c1.5,1.5,1.4,2.8-0.2,4.1
		c-0.1,0.1-0.3,0.2-0.4,0.4c-6.5,5.7-8.9,6.2-16.5,1.7c-12.4-7.3-22.2-17.3-29-30C-1.4,9.6-0.9,7.4,5.3,1c1.2-1.3,2.5-1.3,3.8,0
		c2,2.1,4.1,4.2,6.2,6.1c1.6,1.5,1.7,2.7,0,4.3c-2.6,2.6-3.1,4.6-1.3,7.8c3.9,7.1,9.6,12.5,16.7,16.3C31.7,36.1,32.8,36.3,34.4,36.8
		z"/>
	<path class="st0" d="M27.1,3.8c0-1.2,0-2.3,0-3.3C37-2.2,50.5,11.1,49.3,22.4c-1.1,0-2.2,0-3.5,0C44.5,11.4,38.4,5.2,27.1,3.8z"/>
	<path class="st0" d="M41.1,22.4c-1.3,0-2.3,0-3.3,0c-0.8-1.9-1.2-4.2-2.5-5.6c-1.5-1.7-3.5-3.4-5.6-4c-2.8-0.7-3.1-1.9-2.5-4.1
		C34,7.2,41.2,14.2,41.1,22.4z"/>
</g>
</svg>
