<?xml version="1.0" encoding="utf-8"?>
<!-- Generator: Adobe Illustrator 21.1.0, SVG Export Plug-In . SVG Version: 6.00 Build 0)  -->
<svg version="1.1" id="圖層_1" xmlns="http://www.w3.org/2000/svg" xmlns:xlink="http://www.w3.org/1999/xlink" x="0px" y="0px"
	 viewBox="0 0 45 45" style="enable-background:new 0 0 45 45;" xml:space="preserve">
<style type="text/css">
	.st0{fill:#662D91;}
	.st1{fill:#FFFFFF;}
</style>
<g>
	<circle class="st0" cx="22.5" cy="22.5" r="22.5"/>
	<path class="st1" d="M31.8,38.1c-6.2,0-12.5,0-18.7,0c-1.1-0.5-1.9-1.2-1.9-2.5c0-4.4,0-8.8,0-13.3c0-1.4,1.1-2.4,2.5-2.5
		c0.3,0,0.6,0,1,0c0-0.4,0-0.6,0-0.9c0-1.7,0-3.4,0-5.1c0-2.5,1.1-4.3,3.1-5.6c2.5-1.5,5.1-1.7,7.8-0.7c3,1.1,4.5,3.4,4.5,6.6
		c0,1.6,0,3.2,0,4.8c0,0.3,0,0.6,0,0.9c0.2,0,0.3,0.1,0.5,0.1c2.3,0.1,3,0.9,3,3.2c0,3.9,0,7.8,0,11.8
		C33.8,36.3,33.3,37.5,31.8,38.1z M18.1,19.8c3,0,5.8,0,8.8,0c0-2-0.1-3.9,0-5.8c0.1-1.6-0.7-2.6-2.1-3.2c-1.8-0.8-3.5-0.7-5.2,0.3
		c-0.8,0.5-1.4,1.1-1.5,2.1C18.1,15.3,18.1,17.5,18.1,19.8z M24.7,33.6c-0.3-1.3-0.5-2.6-0.7-3.8c-0.1-0.5-0.1-0.8,0.3-1.2
		c1-1,1-2.6,0-3.5c-1-0.9-2.5-0.9-3.5,0c-1,1-1,2.5,0,3.5c0.4,0.4,0.4,0.8,0.3,1.3c-0.2,1.2-0.5,2.5-0.7,3.8
		C21.8,33.6,23.2,33.6,24.7,33.6z"/>
</g>
</svg>
