<?xml version="1.0" encoding="utf-8"?>
<!-- Generator: Adobe Illustrator 21.1.0, SVG Export Plug-In . SVG Version: 6.00 Build 0)  -->
<svg version="1.1" id="圖層_1" xmlns="http://www.w3.org/2000/svg" xmlns:xlink="http://www.w3.org/1999/xlink" x="0px" y="0px"
	 viewBox="0 0 1024 124" style="enable-background:new 0 0 1024 124;" xml:space="preserve">
<style type="text/css">
	.st0{fill:url(#SVGID_1_);}
	.st1{opacity:0.2;}
	.st2{clip-path:url(#SVGID_3_);}
	.st3{fill:#7F468B;}
</style>
<g>
	<linearGradient id="SVGID_1_" gradientUnits="userSpaceOnUse" x1="512" y1="0" x2="512" y2="124">
		<stop  offset="6.666667e-03" style="stop-color:#784289"/>
		<stop  offset="0.3" style="stop-color:#632476"/>
		<stop  offset="0.5933" style="stop-color:#4D0563"/>
	</linearGradient>
	<rect x="0" class="st0" width="1024" height="124"/>
	<g class="st1">
		<defs>
			<rect id="SVGID_2_" x="0" class="st1" width="1024" height="124"/>
		</defs>
		<clipPath id="SVGID_3_">
			<use xlink:href="#SVGID_2_"  style="overflow:visible;"/>
		</clipPath>
		<g class="st2">
			<path class="st3" d="M14.8-31c16.3,0,31,6.6,41.7,17.3C60.7-9.4,64.4-4.5,67.2,1c-1.3,0.2-2.6,0.5-3.9,0.8
				c-2.6-4.7-5.8-9-9.6-12.8c-10-10-23.8-16.1-39-16.1c-15.2,0-29,6.2-39,16.1c-3.8,3.8-7,8.1-9.6,12.8C-35,1.5-36.3,1.2-37.6,1
				c2.8-5.5,6.4-10.4,10.7-14.7C-16.2-24.4-1.5-31,14.8-31L14.8-31z M14.8,10.6c4.8,0,9.1,1.9,12.3,5.1c1.8,1.8,3.2,4,4.1,6.5
				c-1,1.3-2,2.6-2.9,4c-0.4-3-1.8-5.7-3.9-7.8c-2.5-2.5-5.9-4-9.6-4s-7.1,1.5-9.6,4c-2,2-3.4,4.7-3.9,7.8c-0.9-1.4-1.9-2.7-2.9-4
				c0.9-2.5,2.3-4.7,4.1-6.5C5.6,12.5,10,10.6,14.8,10.6L14.8,10.6z M14.8,0.2c7.7,0,14.6,3.1,19.6,8.1c1.7,1.7,3.3,3.7,4.5,5.9
				c-1,0.8-2,1.7-2.9,2.6c-1.1-2.2-2.6-4.1-4.3-5.8c-4.3-4.3-10.3-7-16.9-7C8.1,4,2.2,6.7-2.2,11c-1.7,1.7-3.2,3.7-4.3,5.8
				c-0.9-0.9-1.9-1.8-2.9-2.6c1.2-2.2,2.7-4.1,4.5-5.9C0.2,3.3,7.1,0.2,14.8,0.2L14.8,0.2z M14.8-10.2c10.5,0,20.1,4.3,27,11.2
				c2.2,2.2,4.1,4.6,5.6,7.2c-1.1,0.6-2.2,1.3-3.2,2c-1.4-2.4-3.2-4.6-5.1-6.5C32.8-2.6,24.2-6.4,14.8-6.4C5.3-6.4-3.3-2.6-9.5,3.7
				c-2,2-3.7,4.1-5.1,6.5c-1-0.7-2.1-1.4-3.2-2c1.6-2.6,3.5-5,5.6-7.2C-5.3-5.9,4.2-10.2,14.8-10.2L14.8-10.2z M14.8-20.6
				c13.4,0,25.5,5.4,34.3,14.2c3,3,5.6,6.4,7.7,10.1c-1.2,0.4-2.4,0.9-3.6,1.4c-1.9-3.2-4.2-6.2-6.9-8.8
				c-8.1-8.1-19.3-13.1-31.6-13.1c-12.4,0-23.5,5-31.6,13.1c-2.6,2.6-5,5.6-6.9,8.8c-1.2-0.5-2.3-1-3.5-1.4
				c2.1-3.7,4.7-7.1,7.7-10.1C-10.8-15.2,1.4-20.6,14.8-20.6L14.8-20.6z"/>
			<path class="st3" d="M14.8,31.3c16.3,0,31,6.6,41.7,17.3c4.3,4.3,7.9,9.3,10.7,14.7c-1.3,0.2-2.6,0.5-3.9,0.8
				c-2.6-4.7-5.8-9-9.6-12.8c-10-10-23.8-16.1-39-16.1c-15.2,0-29,6.2-39,16.1c-3.8,3.8-7,8.1-9.6,12.8c-1.3-0.3-2.6-0.6-3.9-0.8
				c2.8-5.5,6.4-10.4,10.7-14.7C-16.2,37.9-1.5,31.3,14.8,31.3L14.8,31.3z M14.8,72.9c4.8,0,9.1,1.9,12.3,5.1c1.8,1.8,3.2,4,4.1,6.5
				c-1,1.3-2,2.6-2.9,3.9c-0.4-3-1.8-5.7-3.9-7.8c-2.5-2.5-5.9-4-9.6-4s-7.1,1.5-9.6,4c-2,2-3.4,4.7-3.9,7.8
				c-0.9-1.4-1.9-2.7-2.9-3.9c0.9-2.5,2.3-4.7,4.1-6.5C5.6,74.8,10,72.9,14.8,72.9L14.8,72.9z M14.8,62.5c7.7,0,14.6,3.1,19.6,8.1
				c1.7,1.7,3.3,3.7,4.5,5.9c-1,0.8-2,1.7-2.9,2.6c-1.1-2.2-2.6-4.1-4.3-5.8c-4.3-4.3-10.3-7-16.9-7c-6.6,0-12.6,2.7-16.9,7
				c-1.7,1.7-3.2,3.7-4.3,5.8c-0.9-0.9-1.9-1.8-2.9-2.6c1.2-2.2,2.7-4.1,4.5-5.9C0.2,65.6,7.1,62.5,14.8,62.5L14.8,62.5z M14.8,52.1
				c10.5,0,20.1,4.3,27,11.2c2.2,2.2,4.1,4.6,5.6,7.2c-1.1,0.6-2.2,1.3-3.2,2c-1.4-2.4-3.2-4.6-5.1-6.5
				c-6.2-6.2-14.8-10.1-24.3-10.1c-9.5,0-18.1,3.8-24.3,10.1c-2,2-3.7,4.1-5.1,6.5c-1-0.7-2.1-1.4-3.2-2c1.6-2.6,3.5-5,5.6-7.2
				C-5.3,56.4,4.2,52.1,14.8,52.1L14.8,52.1z M14.8,41.7c13.4,0,25.5,5.4,34.3,14.2c3,3,5.6,6.4,7.7,10.1c-1.2,0.4-2.4,0.9-3.6,1.4
				c-1.9-3.2-4.2-6.2-6.9-8.9c-8.1-8.1-19.3-13.1-31.6-13.1c-12.4,0-23.5,5-31.6,13.1c-2.6,2.6-5,5.6-6.9,8.9
				c-1.2-0.5-2.3-1-3.5-1.4c2.1-3.7,4.7-7.1,7.7-10.1C-10.8,47.1,1.4,41.7,14.8,41.7L14.8,41.7z"/>
			<path class="st3" d="M14.8,93.6c16.3,0,31,6.6,41.7,17.3c4.3,4.3,7.9,9.3,10.7,14.7c-1.3,0.2-2.6,0.5-3.9,0.8
				c-2.6-4.7-5.8-9-9.6-12.8c-10-10-23.8-16.1-39-16.1c-15.2,0-29,6.2-39,16.1c-3.8,3.8-7,8.1-9.6,12.8c-1.3-0.3-2.6-0.6-3.9-0.8
				c2.8-5.5,6.4-10.4,10.7-14.7C-16.2,100.2-1.5,93.6,14.8,93.6L14.8,93.6z M14.8,135.1c4.8,0,9.1,1.9,12.3,5.1
				c1.8,1.8,3.2,4,4.1,6.5c-1,1.3-2,2.6-2.9,3.9c-0.4-3-1.8-5.7-3.9-7.8c-2.5-2.5-5.9-4-9.6-4s-7.1,1.5-9.6,4c-2,2-3.4,4.7-3.9,7.8
				c-0.9-1.4-1.9-2.7-2.9-3.9c0.9-2.5,2.3-4.7,4.1-6.5C5.6,137.1,10,135.1,14.8,135.1L14.8,135.1z M14.8,124.8
				c7.7,0,14.6,3.1,19.6,8.1c1.7,1.7,3.3,3.7,4.5,5.9c-1,0.8-2,1.7-2.9,2.6c-1.1-2.2-2.6-4.1-4.3-5.8c-4.3-4.3-10.3-7-16.9-7
				c-6.6,0-12.6,2.7-16.9,7c-1.7,1.7-3.2,3.7-4.3,5.8c-0.9-0.9-1.9-1.8-2.9-2.6c1.2-2.2,2.7-4.1,4.5-5.9
				C0.2,127.9,7.1,124.8,14.8,124.8L14.8,124.8z M14.8,114.4c10.5,0,20.1,4.3,27,11.2c2.2,2.2,4.1,4.6,5.6,7.2
				c-1.1,0.6-2.2,1.3-3.2,2c-1.4-2.4-3.2-4.6-5.1-6.5c-6.2-6.2-14.8-10.1-24.3-10.1c-9.5,0-18.1,3.8-24.3,10.1c-2,2-3.7,4.1-5.1,6.5
				c-1-0.7-2.1-1.4-3.2-2c1.6-2.6,3.5-5,5.6-7.2C-5.3,118.6,4.2,114.4,14.8,114.4L14.8,114.4z M14.8,104c13.4,0,25.5,5.4,34.3,14.2
				c3,3,5.6,6.4,7.7,10.1c-1.2,0.4-2.4,0.9-3.6,1.4c-1.9-3.2-4.2-6.2-6.9-8.8c-8.1-8.1-19.3-13.1-31.6-13.1
				c-12.4,0-23.5,5-31.6,13.1c-2.6,2.6-5,5.6-6.9,8.8c-1.2-0.5-2.3-1-3.5-1.4c2.1-3.7,4.7-7.1,7.7-10.1
				C-10.8,109.4,1.4,104,14.8,104L14.8,104z"/>
			<path class="st3" d="M77,0.2c16.3,0,31,6.6,41.7,17.3c4.3,4.3,7.9,9.3,10.7,14.7c-1.3,0.2-2.6,0.5-3.9,0.8
				c-2.6-4.7-5.8-9-9.6-12.8c-10-10-23.8-16.1-39-16.1c-15.2,0-29,6.2-39,16.1c-3.8,3.8-7,8.1-9.6,12.8c-1.3-0.3-2.6-0.6-3.9-0.8
				c2.8-5.4,6.4-10.4,10.7-14.7C46,6.8,60.8,0.2,77,0.2L77,0.2z M77,41.7c4.8,0,9.1,1.9,12.3,5.1c1.8,1.8,3.2,4,4.1,6.5
				c-1,1.3-2,2.6-2.9,4c-0.4-3-1.8-5.7-3.9-7.8c-2.5-2.5-5.8-4-9.6-4c-3.7,0-7.1,1.5-9.6,4c-2,2-3.4,4.7-3.9,7.8
				c-0.9-1.4-1.9-2.7-2.9-4c0.9-2.5,2.3-4.7,4.1-6.5C67.9,43.7,72.2,41.7,77,41.7L77,41.7z M77,31.3c7.7,0,14.6,3.1,19.6,8.1
				c1.7,1.7,3.3,3.7,4.5,5.9c-1,0.8-2,1.7-2.9,2.6c-1.1-2.2-2.6-4.1-4.3-5.8c-4.3-4.3-10.3-7-16.9-7c-6.6,0-12.6,2.7-16.9,7
				c-1.7,1.7-3.2,3.7-4.3,5.8c-0.9-0.9-1.9-1.8-2.9-2.6c1.2-2.2,2.7-4.1,4.5-5.9C62.4,34.4,69.4,31.3,77,31.3L77,31.3z M77,20.9
				c10.5,0,20.1,4.3,27,11.2c2.2,2.2,4.1,4.6,5.6,7.2c-1.1,0.6-2.2,1.3-3.2,2c-1.4-2.4-3.2-4.6-5.1-6.5C95.1,28.6,86.5,24.7,77,24.7
				c-9.5,0-18.1,3.8-24.3,10.1c-2,2-3.7,4.1-5.1,6.5c-1-0.7-2.1-1.4-3.2-2c1.6-2.6,3.5-5,5.6-7.2C57,25.2,66.5,20.9,77,20.9L77,20.9
				z M77,10.6c13.4,0,25.5,5.4,34.3,14.2c3,3,5.6,6.4,7.7,10.1c-1.2,0.4-2.4,0.9-3.5,1.4c-1.9-3.2-4.2-6.2-6.9-8.8
				c-8.1-8.1-19.3-13.1-31.6-13.1c-12.4,0-23.5,5-31.6,13.1c-2.6,2.6-5,5.6-6.9,8.8c-1.2-0.5-2.3-1-3.5-1.4
				c2.1-3.7,4.7-7.1,7.7-10.1C51.5,16,63.6,10.6,77,10.6L77,10.6z"/>
			<path class="st3" d="M77,62.4c16.3,0,31,6.6,41.7,17.3c4.3,4.3,7.9,9.3,10.7,14.7c-1.3,0.2-2.6,0.5-3.9,0.8
				c-2.6-4.7-5.8-9-9.6-12.8c-10-10-23.8-16.1-39-16.1c-15.2,0-29,6.2-39,16.1c-3.8,3.8-7,8.1-9.6,12.8c-1.3-0.3-2.6-0.6-3.9-0.8
				C27.4,89,31.1,84,35.4,79.7C46,69,60.8,62.4,77,62.4L77,62.4z M77,104c4.8,0,9.1,1.9,12.3,5.1c1.8,1.8,3.2,4,4.1,6.5
				c-1,1.3-2,2.6-2.9,4c-0.4-3-1.8-5.7-3.9-7.8c-2.5-2.5-5.8-4-9.6-4c-3.7,0-7.1,1.5-9.6,4c-2,2-3.4,4.7-3.9,7.8
				c-0.9-1.4-1.9-2.7-2.9-4c0.9-2.5,2.3-4.7,4.1-6.5C67.9,105.9,72.2,104,77,104L77,104z M77,93.6c7.7,0,14.6,3.1,19.6,8.1
				c1.7,1.7,3.3,3.7,4.5,5.9c-1,0.8-2,1.7-2.9,2.6c-1.1-2.2-2.6-4.1-4.3-5.8c-4.3-4.3-10.3-7-16.9-7c-6.6,0-12.6,2.7-16.9,7
				c-1.7,1.7-3.2,3.7-4.3,5.8c-0.9-0.9-1.9-1.8-2.9-2.6c1.2-2.2,2.7-4.1,4.5-5.9C62.4,96.7,69.4,93.6,77,93.6L77,93.6z M77,83.2
				c10.5,0,20.1,4.3,27,11.2c2.2,2.2,4.1,4.6,5.6,7.2c-1.1,0.6-2.2,1.3-3.2,2c-1.4-2.4-3.2-4.6-5.1-6.5C95.1,90.9,86.5,87,77,87
				c-9.5,0-18.1,3.8-24.3,10.1c-2,2-3.7,4.1-5.1,6.5c-1-0.7-2.1-1.4-3.2-2c1.6-2.6,3.5-5,5.6-7.2C57,87.5,66.5,83.2,77,83.2L77,83.2
				z M77,72.8c13.4,0,25.5,5.4,34.3,14.2c3,3,5.6,6.4,7.7,10.1c-1.2,0.4-2.4,0.9-3.5,1.4c-1.9-3.2-4.2-6.2-6.9-8.9
				c-8.1-8.1-19.3-13.1-31.6-13.1c-12.4,0-23.5,5-31.6,13.1c-2.6,2.6-5,5.6-6.9,8.9c-1.2-0.5-2.3-1-3.5-1.4
				c2.1-3.7,4.7-7.1,7.7-10.1C51.5,78.3,63.6,72.8,77,72.8L77,72.8z"/>
			<path class="st3" d="M139.3-31c16.3,0,31,6.6,41.7,17.3c4.3,4.3,7.9,9.3,10.7,14.7c-1.3,0.2-2.6,0.5-3.9,0.8
				c-2.6-4.7-5.8-9-9.6-12.8c-10-10-23.8-16.1-39-16.1c-15.2,0-29,6.2-39,16.1c-3.8,3.8-7,8.1-9.6,12.8c-1.3-0.3-2.6-0.6-3.9-0.8
				c2.8-5.5,6.4-10.4,10.7-14.7C108.3-24.4,123-31,139.3-31L139.3-31z M139.3,10.6c4.8,0,9.1,1.9,12.3,5.1c1.8,1.8,3.2,4,4.1,6.5
				c-1,1.3-2,2.6-2.9,4c-0.4-3-1.8-5.7-3.9-7.8c-2.5-2.5-5.9-4-9.6-4c-3.7,0-7.1,1.5-9.6,4c-2,2-3.4,4.7-3.9,7.8
				c-0.9-1.4-1.9-2.7-2.9-4c0.9-2.5,2.3-4.7,4.1-6.5C130.2,12.5,134.5,10.6,139.3,10.6L139.3,10.6z M139.3,0.2
				c7.7,0,14.6,3.1,19.6,8.1c1.7,1.7,3.3,3.7,4.5,5.9c-1,0.8-1.9,1.7-2.9,2.6c-1.1-2.2-2.6-4.1-4.3-5.8c-4.3-4.3-10.3-7-16.9-7
				c-6.6,0-12.6,2.7-16.9,7c-1.7,1.7-3.2,3.7-4.3,5.8c-0.9-0.9-1.9-1.8-2.9-2.6c1.2-2.2,2.7-4.1,4.5-5.9
				C124.7,3.3,131.7,0.2,139.3,0.2L139.3,0.2z M139.3-10.2c10.5,0,20.1,4.3,27,11.2c2.2,2.2,4.1,4.6,5.6,7.2c-1.1,0.6-2.2,1.3-3.2,2
				c-1.4-2.4-3.2-4.6-5.1-6.5c-6.2-6.2-14.8-10.1-24.3-10.1c-9.5,0-18.1,3.8-24.3,10.1c-2,2-3.7,4.1-5.1,6.5c-1-0.7-2.1-1.4-3.2-2
				c1.6-2.6,3.5-5,5.6-7.2C119.3-5.9,128.8-10.2,139.3-10.2L139.3-10.2z M139.3-20.6c13.4,0,25.5,5.4,34.3,14.2
				c3,3,5.6,6.4,7.7,10.1c-1.2,0.4-2.4,0.9-3.6,1.4c-1.9-3.2-4.2-6.2-6.9-8.8c-8.1-8.1-19.3-13.1-31.6-13.1
				c-12.4,0-23.5,5-31.6,13.1c-2.6,2.6-5,5.6-6.9,8.8c-1.2-0.5-2.3-1-3.5-1.4C99.4,0,102-3.4,105-6.4
				C113.8-15.2,125.9-20.6,139.3-20.6L139.3-20.6z"/>
			<path class="st3" d="M139.3,31.3c16.3,0,31,6.6,41.7,17.3c4.3,4.3,7.9,9.3,10.7,14.7c-1.3,0.2-2.6,0.5-3.9,0.8
				c-2.6-4.7-5.8-9-9.6-12.8c-10-10-23.8-16.1-39-16.1c-15.2,0-29,6.2-39,16.1c-3.8,3.8-7,8.1-9.6,12.8c-1.3-0.3-2.6-0.6-3.9-0.8
				c2.8-5.5,6.4-10.4,10.7-14.7C108.3,37.9,123,31.3,139.3,31.3L139.3,31.3z M139.3,72.9c4.8,0,9.1,1.9,12.3,5.1
				c1.8,1.8,3.2,4,4.1,6.5c-1,1.3-2,2.6-2.9,3.9c-0.4-3-1.8-5.7-3.9-7.8c-2.5-2.5-5.9-4-9.6-4c-3.7,0-7.1,1.5-9.6,4
				c-2,2-3.4,4.7-3.9,7.8c-0.9-1.4-1.9-2.7-2.9-3.9c0.9-2.5,2.3-4.7,4.1-6.5C130.2,74.8,134.5,72.9,139.3,72.9L139.3,72.9z
				 M139.3,62.5c7.7,0,14.6,3.1,19.6,8.1c1.7,1.7,3.3,3.7,4.5,5.9c-1,0.8-1.9,1.7-2.9,2.6c-1.1-2.2-2.6-4.1-4.3-5.8
				c-4.3-4.3-10.3-7-16.9-7c-6.6,0-12.6,2.7-16.9,7c-1.7,1.7-3.2,3.7-4.3,5.8c-0.9-0.9-1.9-1.8-2.9-2.6c1.2-2.2,2.7-4.1,4.5-5.9
				C124.7,65.6,131.7,62.5,139.3,62.5L139.3,62.5z M139.3,52.1c10.5,0,20.1,4.3,27,11.2c2.2,2.2,4.1,4.6,5.6,7.2
				c-1.1,0.6-2.2,1.3-3.2,2c-1.4-2.4-3.2-4.6-5.1-6.5c-6.2-6.2-14.8-10.1-24.3-10.1c-9.5,0-18.1,3.8-24.3,10.1c-2,2-3.7,4.1-5.1,6.5
				c-1-0.7-2.1-1.4-3.2-2c1.6-2.6,3.5-5,5.6-7.2C119.3,56.4,128.8,52.1,139.3,52.1L139.3,52.1z M139.3,41.7
				c13.4,0,25.5,5.4,34.3,14.2c3,3,5.6,6.4,7.7,10.1c-1.2,0.4-2.4,0.9-3.6,1.4c-1.9-3.2-4.2-6.2-6.9-8.9
				c-8.1-8.1-19.3-13.1-31.6-13.1c-12.4,0-23.5,5-31.6,13.1c-2.6,2.6-5,5.6-6.9,8.9c-1.2-0.5-2.3-1-3.5-1.4
				c2.1-3.7,4.7-7.1,7.7-10.1C113.8,47.1,125.9,41.7,139.3,41.7L139.3,41.7z"/>
			<path class="st3" d="M139.3,93.6c16.3,0,31,6.6,41.7,17.3c4.3,4.3,7.9,9.3,10.7,14.7c-1.3,0.2-2.6,0.5-3.9,0.8
				c-2.6-4.7-5.8-9-9.6-12.8c-10-10-23.8-16.1-39-16.1c-15.2,0-29,6.2-39,16.1c-3.8,3.8-7,8.1-9.6,12.8c-1.3-0.3-2.6-0.6-3.9-0.8
				c2.8-5.5,6.4-10.4,10.7-14.7C108.3,100.2,123,93.6,139.3,93.6L139.3,93.6z M139.3,135.1c4.8,0,9.1,1.9,12.3,5.1
				c1.8,1.8,3.2,4,4.1,6.5c-1,1.3-2,2.6-2.9,3.9c-0.4-3-1.8-5.7-3.9-7.8c-2.5-2.5-5.9-4-9.6-4c-3.7,0-7.1,1.5-9.6,4
				c-2,2-3.4,4.7-3.9,7.8c-0.9-1.4-1.9-2.7-2.9-3.9c0.9-2.5,2.3-4.7,4.1-6.5C130.2,137.1,134.5,135.1,139.3,135.1L139.3,135.1z
				 M139.3,124.8c7.7,0,14.6,3.1,19.6,8.1c1.7,1.7,3.3,3.7,4.5,5.9c-1,0.8-1.9,1.7-2.9,2.6c-1.1-2.2-2.6-4.1-4.3-5.8
				c-4.3-4.3-10.3-7-16.9-7c-6.6,0-12.6,2.7-16.9,7c-1.7,1.7-3.2,3.7-4.3,5.8c-0.9-0.9-1.9-1.8-2.9-2.6c1.2-2.2,2.7-4.1,4.5-5.9
				C124.7,127.9,131.7,124.8,139.3,124.8L139.3,124.8z M139.3,114.4c10.5,0,20.1,4.3,27,11.2c2.2,2.2,4.1,4.6,5.6,7.2
				c-1.1,0.6-2.2,1.3-3.2,2c-1.4-2.4-3.2-4.6-5.1-6.5c-6.2-6.2-14.8-10.1-24.3-10.1c-9.5,0-18.1,3.8-24.3,10.1c-2,2-3.7,4.1-5.1,6.5
				c-1-0.7-2.1-1.4-3.2-2c1.6-2.6,3.5-5,5.6-7.2C119.3,118.6,128.8,114.4,139.3,114.4L139.3,114.4z M139.3,104
				c13.4,0,25.5,5.4,34.3,14.2c3,3,5.6,6.4,7.7,10.1c-1.2,0.4-2.4,0.9-3.6,1.4c-1.9-3.2-4.2-6.2-6.9-8.8
				c-8.1-8.1-19.3-13.1-31.6-13.1c-12.4,0-23.5,5-31.6,13.1c-2.6,2.6-5,5.6-6.9,8.8c-1.2-0.5-2.3-1-3.5-1.4
				c2.1-3.7,4.7-7.1,7.7-10.1C113.8,109.4,125.9,104,139.3,104L139.3,104z"/>
			<path class="st3" d="M201.6,0.2c16.3,0,31,6.6,41.7,17.3c4.3,4.3,7.9,9.3,10.7,14.7c-1.3,0.2-2.6,0.5-3.9,0.8
				c-2.6-4.7-5.8-9-9.6-12.8c-10-10-23.8-16.1-39-16.1c-15.2,0-29,6.2-39,16.1c-3.8,3.8-7,8.1-9.6,12.8c-1.3-0.3-2.6-0.6-3.9-0.8
				c2.8-5.4,6.4-10.4,10.7-14.7C170.6,6.8,185.3,0.2,201.6,0.2L201.6,0.2z M201.6,41.7c4.8,0,9.1,1.9,12.3,5.1
				c1.8,1.8,3.2,4,4.1,6.5c-1,1.3-2,2.6-2.9,4c-0.4-3-1.8-5.7-3.9-7.8c-2.5-2.5-5.8-4-9.6-4c-3.7,0-7.1,1.5-9.6,4
				c-2,2-3.4,4.7-3.8,7.8c-0.9-1.4-1.9-2.7-2.9-4c0.9-2.5,2.3-4.7,4.1-6.5C192.5,43.7,196.8,41.7,201.6,41.7L201.6,41.7z
				 M201.6,31.3c7.7,0,14.6,3.1,19.6,8.1c1.7,1.7,3.3,3.7,4.5,5.9c-1,0.8-1.9,1.7-2.9,2.6c-1.1-2.2-2.6-4.1-4.3-5.8
				c-4.3-4.3-10.3-7-16.9-7c-6.6,0-12.6,2.7-16.9,7c-1.7,1.7-3.2,3.7-4.3,5.8c-0.9-0.9-1.9-1.8-2.9-2.6c1.2-2.2,2.7-4.1,4.5-5.9
				C187,34.4,193.9,31.3,201.6,31.3L201.6,31.3z M201.6,20.9c10.5,0,20.1,4.3,27,11.2c2.2,2.2,4.1,4.6,5.6,7.2
				c-1.1,0.6-2.2,1.3-3.2,2c-1.4-2.4-3.2-4.6-5.1-6.5c-6.2-6.2-14.8-10.1-24.3-10.1c-9.5,0-18.1,3.8-24.3,10.1c-2,2-3.7,4.1-5.1,6.5
				c-1-0.7-2.1-1.4-3.2-2c1.6-2.6,3.5-5,5.6-7.2C181.5,25.2,191.1,20.9,201.6,20.9L201.6,20.9z M201.6,10.6
				c13.4,0,25.5,5.4,34.3,14.2c3,3,5.6,6.4,7.7,10.1c-1.2,0.4-2.4,0.9-3.5,1.4c-1.9-3.2-4.2-6.2-6.9-8.8
				c-8.1-8.1-19.3-13.1-31.6-13.1c-12.4,0-23.5,5-31.6,13.1c-2.6,2.6-5,5.6-6.9,8.8c-1.2-0.5-2.3-1-3.5-1.4
				c2.1-3.7,4.7-7.1,7.7-10.1C176.1,16,188.2,10.6,201.6,10.6L201.6,10.6z"/>
			<path class="st3" d="M201.6,62.4c16.3,0,31,6.6,41.7,17.3c4.3,4.3,7.9,9.3,10.7,14.7c-1.3,0.2-2.6,0.5-3.9,0.8
				c-2.6-4.7-5.8-9-9.6-12.8c-10-10-23.8-16.1-39-16.1c-15.2,0-29,6.2-39,16.1c-3.8,3.8-7,8.1-9.6,12.8c-1.3-0.3-2.6-0.6-3.9-0.8
				c2.8-5.5,6.4-10.4,10.7-14.7C170.6,69,185.3,62.4,201.6,62.4L201.6,62.4z M201.6,104c4.8,0,9.1,1.9,12.3,5.1
				c1.8,1.8,3.2,4,4.1,6.5c-1,1.3-2,2.6-2.9,4c-0.4-3-1.8-5.7-3.9-7.8c-2.5-2.5-5.8-4-9.6-4c-3.7,0-7.1,1.5-9.6,4
				c-2,2-3.4,4.7-3.8,7.8c-0.9-1.4-1.9-2.7-2.9-4c0.9-2.5,2.3-4.7,4.1-6.5C192.5,105.9,196.8,104,201.6,104L201.6,104z M201.6,93.6
				c7.7,0,14.6,3.1,19.6,8.1c1.7,1.7,3.3,3.7,4.5,5.9c-1,0.8-1.9,1.7-2.9,2.6c-1.1-2.2-2.6-4.1-4.3-5.8c-4.3-4.3-10.3-7-16.9-7
				c-6.6,0-12.6,2.7-16.9,7c-1.7,1.7-3.2,3.7-4.3,5.8c-0.9-0.9-1.9-1.8-2.9-2.6c1.2-2.2,2.7-4.1,4.5-5.9
				C187,96.7,193.9,93.6,201.6,93.6L201.6,93.6z M201.6,83.2c10.5,0,20.1,4.3,27,11.2c2.2,2.2,4.1,4.6,5.6,7.2
				c-1.1,0.6-2.2,1.3-3.2,2c-1.4-2.4-3.2-4.6-5.1-6.5c-6.2-6.2-14.8-10.1-24.3-10.1c-9.5,0-18.1,3.8-24.3,10.1c-2,2-3.7,4.1-5.1,6.5
				c-1-0.7-2.1-1.4-3.2-2c1.6-2.6,3.5-5,5.6-7.2C181.5,87.5,191.1,83.2,201.6,83.2L201.6,83.2z M201.6,72.8
				c13.4,0,25.5,5.4,34.3,14.2c3,3,5.6,6.4,7.7,10.1c-1.2,0.4-2.4,0.9-3.5,1.4c-1.9-3.2-4.2-6.2-6.9-8.9
				c-8.1-8.1-19.3-13.1-31.6-13.1c-12.4,0-23.5,5-31.6,13.1c-2.6,2.6-5,5.6-6.9,8.9c-1.2-0.5-2.3-1-3.5-1.4
				c2.1-3.7,4.7-7.1,7.7-10.1C176.1,78.3,188.2,72.8,201.6,72.8L201.6,72.8z"/>
			<path class="st3" d="M263.9-31c16.3,0,31,6.6,41.7,17.3c4.3,4.3,7.9,9.3,10.7,14.7c-1.3,0.2-2.6,0.5-3.9,0.8
				c-2.6-4.7-5.8-9-9.6-12.8c-10-10-23.8-16.1-39-16.1c-15.2,0-29,6.2-39,16.1c-3.8,3.8-7,8.1-9.6,12.8c-1.3-0.3-2.6-0.6-3.9-0.8
				c2.8-5.5,6.4-10.4,10.7-14.7C232.9-24.4,247.6-31,263.9-31L263.9-31z M263.9,10.6c4.8,0,9.1,1.9,12.3,5.1c1.8,1.8,3.2,4,4.1,6.5
				c-1,1.3-2,2.6-2.9,4c-0.4-3-1.8-5.7-3.8-7.8c-2.5-2.5-5.8-4-9.6-4c-3.7,0-7.1,1.5-9.6,4c-2,2-3.4,4.7-3.9,7.8
				c-0.9-1.4-1.9-2.7-2.9-4c0.9-2.5,2.3-4.7,4.1-6.5C254.7,12.5,259.1,10.6,263.9,10.6L263.9,10.6z M263.9,0.2
				c7.7,0,14.6,3.1,19.6,8.1c1.7,1.7,3.3,3.7,4.5,5.9c-1,0.8-1.9,1.7-2.9,2.6c-1.1-2.2-2.6-4.1-4.3-5.8c-4.3-4.3-10.3-7-16.9-7
				c-6.6,0-12.6,2.7-16.9,7c-1.7,1.7-3.2,3.7-4.3,5.8c-0.9-0.9-1.9-1.8-2.9-2.6c1.2-2.2,2.7-4.1,4.5-5.9
				C249.3,3.3,256.2,0.2,263.9,0.2L263.9,0.2z M263.9-10.2c10.5,0,20.1,4.3,27,11.2c2.2,2.2,4.1,4.6,5.6,7.2c-1.1,0.6-2.2,1.3-3.2,2
				c-1.4-2.4-3.2-4.6-5.1-6.5c-6.2-6.2-14.8-10.1-24.3-10.1c-9.5,0-18.1,3.8-24.3,10.1c-2,2-3.7,4.1-5.1,6.5c-1-0.7-2.1-1.4-3.2-2
				c1.6-2.6,3.5-5,5.6-7.2C243.8-5.9,253.3-10.2,263.9-10.2L263.9-10.2z M263.9-20.6c13.4,0,25.5,5.4,34.3,14.2
				c3,3,5.6,6.4,7.7,10.1c-1.2,0.4-2.4,0.9-3.5,1.4c-1.9-3.2-4.2-6.2-6.9-8.8c-8.1-8.1-19.3-13.1-31.6-13.1
				c-12.4,0-23.5,5-31.6,13.1c-2.6,2.6-5,5.6-6.9,8.8c-1.2-0.5-2.3-1-3.5-1.4c2.1-3.7,4.7-7.1,7.7-10.1
				C238.3-15.2,250.5-20.6,263.9-20.6L263.9-20.6z"/>
			<path class="st3" d="M263.9,31.3c16.3,0,31,6.6,41.7,17.3c4.3,4.3,7.9,9.3,10.7,14.7c-1.3,0.2-2.6,0.5-3.9,0.8
				c-2.6-4.7-5.8-9-9.6-12.8c-10-10-23.8-16.1-39-16.1c-15.2,0-29,6.2-39,16.1c-3.8,3.8-7,8.1-9.6,12.8c-1.3-0.3-2.6-0.6-3.9-0.8
				c2.8-5.5,6.4-10.4,10.7-14.7C232.9,37.9,247.6,31.3,263.9,31.3L263.9,31.3z M263.9,72.9c4.8,0,9.1,1.9,12.3,5.1
				c1.8,1.8,3.2,4,4.1,6.5c-1,1.3-2,2.6-2.9,3.9c-0.4-3-1.8-5.7-3.8-7.8c-2.5-2.5-5.8-4-9.6-4c-3.7,0-7.1,1.5-9.6,4
				c-2,2-3.4,4.7-3.9,7.8c-0.9-1.4-1.9-2.7-2.9-3.9c0.9-2.5,2.3-4.7,4.1-6.5C254.7,74.8,259.1,72.9,263.9,72.9L263.9,72.9z
				 M263.9,62.5c7.7,0,14.6,3.1,19.6,8.1c1.7,1.7,3.3,3.7,4.5,5.9c-1,0.8-1.9,1.7-2.9,2.6c-1.1-2.2-2.6-4.1-4.3-5.8
				c-4.3-4.3-10.3-7-16.9-7c-6.6,0-12.6,2.7-16.9,7c-1.7,1.7-3.2,3.7-4.3,5.8c-0.9-0.9-1.9-1.8-2.9-2.6c1.2-2.2,2.7-4.1,4.5-5.9
				C249.3,65.6,256.2,62.5,263.9,62.5L263.9,62.5z M263.9,52.1c10.5,0,20.1,4.3,27,11.2c2.2,2.2,4.1,4.6,5.6,7.2
				c-1.1,0.6-2.2,1.3-3.2,2c-1.4-2.4-3.2-4.6-5.1-6.5c-6.2-6.2-14.8-10.1-24.3-10.1c-9.5,0-18.1,3.8-24.3,10.1c-2,2-3.7,4.1-5.1,6.5
				c-1-0.7-2.1-1.4-3.2-2c1.6-2.6,3.5-5,5.6-7.2C243.8,56.4,253.3,52.1,263.9,52.1L263.9,52.1z M263.9,41.7
				c13.4,0,25.5,5.4,34.3,14.2c3,3,5.6,6.4,7.7,10.1c-1.2,0.4-2.4,0.9-3.5,1.4c-1.9-3.2-4.2-6.2-6.9-8.9
				c-8.1-8.1-19.3-13.1-31.6-13.1c-12.4,0-23.5,5-31.6,13.1c-2.6,2.6-5,5.6-6.9,8.9c-1.2-0.5-2.3-1-3.5-1.4
				c2.1-3.7,4.7-7.1,7.7-10.1C238.3,47.1,250.5,41.7,263.9,41.7L263.9,41.7z"/>
			<path class="st3" d="M263.9,93.6c16.3,0,31,6.6,41.7,17.3c4.3,4.3,7.9,9.3,10.7,14.7c-1.3,0.2-2.6,0.5-3.9,0.8
				c-2.6-4.7-5.8-9-9.6-12.8c-10-10-23.8-16.1-39-16.1c-15.2,0-29,6.2-39,16.1c-3.8,3.8-7,8.1-9.6,12.8c-1.3-0.3-2.6-0.6-3.9-0.8
				c2.8-5.5,6.4-10.4,10.7-14.7C232.9,100.2,247.6,93.6,263.9,93.6L263.9,93.6z M263.9,135.1c4.8,0,9.1,1.9,12.3,5.1
				c1.8,1.8,3.2,4,4.1,6.5c-1,1.3-2,2.6-2.9,3.9c-0.4-3-1.8-5.7-3.8-7.8c-2.5-2.5-5.8-4-9.6-4c-3.7,0-7.1,1.5-9.6,4
				c-2,2-3.4,4.7-3.9,7.8c-0.9-1.4-1.9-2.7-2.9-3.9c0.9-2.5,2.3-4.7,4.1-6.5C254.7,137.1,259.1,135.1,263.9,135.1L263.9,135.1z
				 M263.9,124.8c7.7,0,14.6,3.1,19.6,8.1c1.7,1.7,3.3,3.7,4.5,5.9c-1,0.8-1.9,1.7-2.9,2.6c-1.1-2.2-2.6-4.1-4.3-5.8
				c-4.3-4.3-10.3-7-16.9-7c-6.6,0-12.6,2.7-16.9,7c-1.7,1.7-3.2,3.7-4.3,5.8c-0.9-0.9-1.9-1.8-2.9-2.6c1.2-2.2,2.7-4.1,4.5-5.9
				C249.3,127.9,256.2,124.8,263.9,124.8L263.9,124.8z M263.9,114.4c10.5,0,20.1,4.3,27,11.2c2.2,2.2,4.1,4.6,5.6,7.2
				c-1.1,0.6-2.2,1.3-3.2,2c-1.4-2.4-3.2-4.6-5.1-6.5c-6.2-6.2-14.8-10.1-24.3-10.1c-9.5,0-18.1,3.8-24.3,10.1c-2,2-3.7,4.1-5.1,6.5
				c-1-0.7-2.1-1.4-3.2-2c1.6-2.6,3.5-5,5.6-7.2C243.8,118.6,253.3,114.4,263.9,114.4L263.9,114.4z M263.9,104
				c13.4,0,25.5,5.4,34.3,14.2c3,3,5.6,6.4,7.7,10.1c-1.2,0.4-2.4,0.9-3.5,1.4c-1.9-3.2-4.2-6.2-6.9-8.8
				c-8.1-8.1-19.3-13.1-31.6-13.1c-12.4,0-23.5,5-31.6,13.1c-2.6,2.6-5,5.6-6.9,8.8c-1.2-0.5-2.3-1-3.5-1.4
				c2.1-3.7,4.7-7.1,7.7-10.1C238.3,109.4,250.5,104,263.9,104L263.9,104z"/>
			<path class="st3" d="M326.1,0.2c16.3,0,31,6.6,41.7,17.3c4.3,4.3,7.9,9.3,10.7,14.7c-1.3,0.2-2.6,0.5-3.9,0.8
				c-2.6-4.7-5.8-9-9.6-12.8c-10-10-23.8-16.1-39-16.1c-15.2,0-29,6.2-39,16.1c-3.8,3.8-7,8.1-9.6,12.8c-1.3-0.3-2.6-0.6-3.9-0.8
				c2.8-5.4,6.4-10.4,10.7-14.7C295.2,6.8,309.9,0.2,326.1,0.2L326.1,0.2z M326.1,41.7c4.8,0,9.1,1.9,12.3,5.1
				c1.8,1.8,3.2,4,4.1,6.5c-1,1.3-2,2.6-2.9,4c-0.4-3-1.8-5.7-3.9-7.8c-2.5-2.5-5.8-4-9.6-4c-3.7,0-7.1,1.5-9.6,4
				c-2,2-3.4,4.7-3.9,7.8c-0.9-1.4-1.9-2.7-2.9-4c0.9-2.5,2.3-4.7,4.1-6.5C317,43.7,321.4,41.7,326.1,41.7L326.1,41.7z M326.1,31.3
				c7.7,0,14.6,3.1,19.6,8.1c1.7,1.7,3.3,3.7,4.5,5.9c-1,0.8-2,1.7-2.9,2.6c-1.1-2.2-2.6-4.1-4.3-5.8c-4.3-4.3-10.3-7-16.9-7
				c-6.6,0-12.6,2.7-16.9,7c-1.7,1.7-3.2,3.7-4.3,5.8c-0.9-0.9-1.9-1.8-2.9-2.6c1.2-2.2,2.7-4.1,4.5-5.9
				C311.5,34.4,318.5,31.3,326.1,31.3L326.1,31.3z M326.1,20.9c10.5,0,20.1,4.3,27,11.2c2.2,2.2,4.1,4.6,5.6,7.2
				c-1.1,0.6-2.2,1.3-3.2,2c-1.4-2.4-3.2-4.6-5.1-6.5c-6.2-6.2-14.8-10.1-24.3-10.1c-9.5,0-18.1,3.8-24.3,10.1c-2,2-3.7,4.1-5.1,6.5
				c-1-0.7-2.1-1.4-3.2-2c1.6-2.6,3.5-5,5.6-7.2C306.1,25.2,315.6,20.9,326.1,20.9L326.1,20.9z M326.1,10.6
				c13.4,0,25.5,5.4,34.3,14.2c3,3,5.6,6.4,7.7,10.1c-1.2,0.4-2.4,0.9-3.6,1.4c-1.9-3.2-4.2-6.2-6.9-8.8
				c-8.1-8.1-19.3-13.1-31.6-13.1c-12.4,0-23.5,5-31.6,13.1c-2.6,2.6-5,5.6-6.9,8.8c-1.2-0.5-2.3-1-3.5-1.4
				c2.1-3.7,4.7-7.1,7.7-10.1C300.6,16,312.7,10.6,326.1,10.6L326.1,10.6z"/>
			<path class="st3" d="M326.1,62.4c16.3,0,31,6.6,41.7,17.3c4.3,4.3,7.9,9.3,10.7,14.7c-1.3,0.2-2.6,0.5-3.9,0.8
				c-2.6-4.7-5.8-9-9.6-12.8c-10-10-23.8-16.1-39-16.1c-15.2,0-29,6.2-39,16.1c-3.8,3.8-7,8.1-9.6,12.8c-1.3-0.3-2.6-0.6-3.9-0.8
				c2.8-5.5,6.4-10.4,10.7-14.7C295.2,69,309.9,62.4,326.1,62.4L326.1,62.4z M326.1,104c4.8,0,9.1,1.9,12.3,5.1
				c1.8,1.8,3.2,4,4.1,6.5c-1,1.3-2,2.6-2.9,4c-0.4-3-1.8-5.7-3.9-7.8c-2.5-2.5-5.8-4-9.6-4c-3.7,0-7.1,1.5-9.6,4
				c-2,2-3.4,4.7-3.9,7.8c-0.9-1.4-1.9-2.7-2.9-4c0.9-2.5,2.3-4.7,4.1-6.5C317,105.9,321.4,104,326.1,104L326.1,104z M326.1,93.6
				c7.7,0,14.6,3.1,19.6,8.1c1.7,1.7,3.3,3.7,4.5,5.9c-1,0.8-2,1.7-2.9,2.6c-1.1-2.2-2.6-4.1-4.3-5.8c-4.3-4.3-10.3-7-16.9-7
				c-6.6,0-12.6,2.7-16.9,7c-1.7,1.7-3.2,3.7-4.3,5.8c-0.9-0.9-1.9-1.8-2.9-2.6c1.2-2.2,2.7-4.1,4.5-5.9
				C311.5,96.7,318.5,93.6,326.1,93.6L326.1,93.6z M326.1,83.2c10.5,0,20.1,4.3,27,11.2c2.2,2.2,4.1,4.6,5.6,7.2
				c-1.1,0.6-2.2,1.3-3.2,2c-1.4-2.4-3.2-4.6-5.1-6.5c-6.2-6.2-14.8-10.1-24.3-10.1c-9.5,0-18.1,3.8-24.3,10.1c-2,2-3.7,4.1-5.1,6.5
				c-1-0.7-2.1-1.4-3.2-2c1.6-2.6,3.5-5,5.6-7.2C306.1,87.5,315.6,83.2,326.1,83.2L326.1,83.2z M326.1,72.8
				c13.4,0,25.5,5.4,34.3,14.2c3,3,5.6,6.4,7.7,10.1c-1.2,0.4-2.4,0.9-3.6,1.4c-1.9-3.2-4.2-6.2-6.9-8.9
				c-8.1-8.1-19.3-13.1-31.6-13.1c-12.4,0-23.5,5-31.6,13.1c-2.6,2.6-5,5.6-6.9,8.9c-1.2-0.5-2.3-1-3.5-1.4
				c2.1-3.7,4.7-7.1,7.7-10.1C300.6,78.3,312.7,72.8,326.1,72.8L326.1,72.8z"/>
			<path class="st3" d="M387.8-29.5c16.3,0,31,6.6,41.7,17.3c4.3,4.3,7.9,9.3,10.7,14.7c-1.3,0.2-2.6,0.5-3.9,0.8
				c-2.6-4.7-5.8-9-9.6-12.8c-10-10-23.8-16.1-39-16.1c-15.2,0-29,6.2-39,16.1c-3.8,3.8-7,8.1-9.6,12.8c-1.3-0.3-2.6-0.6-3.9-0.8
				c2.8-5.5,6.4-10.4,10.7-14.7C356.8-22.9,371.5-29.5,387.8-29.5L387.8-29.5z M387.8,12c4.8,0,9.1,1.9,12.3,5.1
				c1.8,1.8,3.2,4,4.1,6.5c-1,1.3-2,2.6-2.9,3.9c-0.4-3-1.8-5.7-3.8-7.8c-2.5-2.5-5.8-4-9.6-4c-3.7,0-7.1,1.5-9.6,4
				c-2,2-3.4,4.7-3.9,7.8c-0.9-1.4-1.9-2.7-2.9-3.9c0.9-2.5,2.3-4.7,4.1-6.5C378.7,14,383,12,387.8,12L387.8,12z M387.8,1.6
				c7.7,0,14.6,3.1,19.6,8.1c1.7,1.7,3.3,3.7,4.5,5.9c-1,0.8-1.9,1.7-2.9,2.6c-1.1-2.2-2.6-4.1-4.3-5.8c-4.3-4.3-10.3-7-16.9-7
				c-6.6,0-12.6,2.7-16.9,7c-1.7,1.7-3.2,3.7-4.3,5.8c-0.9-0.9-1.9-1.8-2.9-2.6c1.2-2.2,2.7-4.1,4.5-5.9
				C373.2,4.7,380.1,1.6,387.8,1.6L387.8,1.6z M387.8-8.8c10.5,0,20.1,4.3,27,11.2c2.2,2.2,4.1,4.6,5.6,7.2c-1.1,0.6-2.2,1.3-3.2,2
				c-1.4-2.4-3.2-4.6-5.1-6.5C405.9-1.1,397.3-5,387.8-5c-9.5,0-18.1,3.8-24.3,10.1c-2,2-3.7,4.1-5.1,6.5c-1-0.7-2.1-1.4-3.2-2
				c1.6-2.6,3.5-5,5.6-7.2C367.7-4.5,377.3-8.8,387.8-8.8L387.8-8.8z M387.8-19.1c13.4,0,25.5,5.4,34.3,14.2c3,3,5.6,6.4,7.7,10.1
				c-1.2,0.4-2.4,0.9-3.5,1.4c-1.9-3.2-4.2-6.2-6.9-8.8c-8.1-8.1-19.3-13.1-31.6-13.1c-12.4,0-23.5,5-31.6,13.1
				c-2.6,2.6-5,5.6-6.9,8.8c-1.2-0.5-2.3-1-3.6-1.4c2.1-3.7,4.7-7.1,7.7-10.1C362.3-13.7,374.4-19.1,387.8-19.1L387.8-19.1z"/>
			<path class="st3" d="M387.8,32.7c16.3,0,31,6.6,41.7,17.3c4.3,4.3,7.9,9.3,10.7,14.7c-1.3,0.2-2.6,0.5-3.9,0.8
				c-2.6-4.7-5.8-9-9.6-12.8c-10-10-23.8-16.1-39-16.1c-15.2,0-29,6.2-39,16.1c-3.8,3.8-7,8.1-9.6,12.8c-1.3-0.3-2.6-0.6-3.9-0.8
				c2.8-5.4,6.4-10.4,10.7-14.7C356.8,39.3,371.5,32.7,387.8,32.7L387.8,32.7z M387.8,74.3c4.8,0,9.1,1.9,12.3,5.1
				c1.8,1.8,3.2,4,4.1,6.5c-1,1.3-2,2.6-2.9,4c-0.4-3-1.8-5.7-3.8-7.8c-2.5-2.5-5.8-4-9.6-4c-3.7,0-7.1,1.5-9.6,4
				c-2,2-3.4,4.7-3.9,7.8c-0.9-1.4-1.9-2.7-2.9-4c0.9-2.5,2.3-4.7,4.1-6.5C378.7,76.2,383,74.3,387.8,74.3L387.8,74.3z M387.8,63.9
				c7.7,0,14.6,3.1,19.6,8.1c1.7,1.7,3.3,3.7,4.5,5.9c-1,0.8-1.9,1.7-2.9,2.6c-1.1-2.2-2.6-4.1-4.3-5.8c-4.3-4.3-10.3-7-16.9-7
				c-6.6,0-12.6,2.7-16.9,7c-1.7,1.7-3.2,3.7-4.3,5.8c-0.9-0.9-1.9-1.8-2.9-2.6c1.2-2.2,2.7-4.1,4.5-5.9
				C373.2,67,380.1,63.9,387.8,63.9L387.8,63.9z M387.8,53.5c10.5,0,20.1,4.3,27,11.2c2.2,2.2,4.1,4.6,5.6,7.2
				c-1.1,0.6-2.2,1.3-3.2,2c-1.4-2.4-3.2-4.6-5.1-6.5c-6.2-6.2-14.8-10.1-24.3-10.1c-9.5,0-18.1,3.8-24.3,10.1c-2,2-3.7,4.1-5.1,6.5
				c-1-0.7-2.1-1.4-3.2-2c1.6-2.6,3.5-5,5.6-7.2C367.7,57.8,377.3,53.5,387.8,53.5L387.8,53.5z M387.8,43.1
				c13.4,0,25.5,5.4,34.3,14.2c3,3,5.6,6.4,7.7,10.1c-1.2,0.4-2.4,0.9-3.5,1.4c-1.9-3.2-4.2-6.2-6.9-8.8
				c-8.1-8.1-19.3-13.1-31.6-13.1c-12.4,0-23.5,5-31.6,13.1c-2.6,2.6-5,5.6-6.9,8.8c-1.2-0.5-2.3-1-3.6-1.4
				c2.1-3.7,4.7-7.1,7.7-10.1C362.3,48.6,374.4,43.1,387.8,43.1L387.8,43.1z"/>
			<path class="st3" d="M387.8,95c16.3,0,31,6.6,41.7,17.3c4.3,4.3,7.9,9.3,10.7,14.7c-1.3,0.2-2.6,0.5-3.9,0.8
				c-2.6-4.7-5.8-9-9.6-12.8c-10-10-23.8-16.1-39-16.1c-15.2,0-29,6.2-39,16.1c-3.8,3.8-7,8.1-9.6,12.8c-1.3-0.3-2.6-0.6-3.9-0.8
				c2.8-5.5,6.4-10.4,10.7-14.7C356.8,101.6,371.5,95,387.8,95L387.8,95z M387.8,136.6c4.8,0,9.1,1.9,12.3,5.1
				c1.8,1.8,3.2,4,4.1,6.5c-1,1.3-2,2.6-2.9,4c-0.4-3-1.8-5.7-3.8-7.8c-2.5-2.5-5.8-4-9.6-4c-3.7,0-7.1,1.5-9.6,4
				c-2,2-3.4,4.7-3.9,7.8c-0.9-1.4-1.9-2.7-2.9-4c0.9-2.5,2.3-4.7,4.1-6.5C378.7,138.5,383,136.6,387.8,136.6L387.8,136.6z
				 M387.8,126.2c7.7,0,14.6,3.1,19.6,8.1c1.7,1.7,3.3,3.7,4.5,5.9c-1,0.8-1.9,1.7-2.9,2.6c-1.1-2.2-2.6-4.1-4.3-5.8
				c-4.3-4.3-10.3-7-16.9-7c-6.6,0-12.6,2.7-16.9,7c-1.7,1.7-3.2,3.7-4.3,5.8c-0.9-0.9-1.9-1.8-2.9-2.6c1.2-2.2,2.7-4.1,4.5-5.9
				C373.2,129.3,380.1,126.2,387.8,126.2L387.8,126.2z M387.8,115.8c10.5,0,20.1,4.3,27,11.2c2.2,2.2,4.1,4.6,5.6,7.2
				c-1.1,0.6-2.2,1.3-3.2,2c-1.4-2.4-3.2-4.6-5.1-6.5c-6.2-6.2-14.8-10.1-24.3-10.1c-9.5,0-18.1,3.8-24.3,10.1c-2,2-3.7,4.1-5.1,6.5
				c-1-0.7-2.1-1.4-3.2-2c1.6-2.6,3.5-5,5.6-7.2C367.7,120.1,377.3,115.8,387.8,115.8L387.8,115.8z M387.8,105.4
				c13.4,0,25.5,5.4,34.3,14.2c3,3,5.6,6.4,7.7,10.1c-1.2,0.4-2.4,0.9-3.5,1.4c-1.9-3.2-4.2-6.2-6.9-8.9
				c-8.1-8.1-19.3-13.1-31.6-13.1c-12.4,0-23.5,5-31.6,13.1c-2.6,2.6-5,5.6-6.9,8.9c-1.2-0.5-2.3-1-3.6-1.4
				c2.1-3.7,4.7-7.1,7.7-10.1C362.3,110.8,374.4,105.4,387.8,105.4L387.8,105.4z"/>
			<path class="st3" d="M450.1,1.6c16.3,0,31,6.6,41.7,17.3c4.3,4.3,7.9,9.3,10.7,14.7c-1.3,0.2-2.6,0.5-3.9,0.8
				c-2.6-4.7-5.8-9-9.6-12.8c-10-10-23.8-16.1-39-16.1c-15.2,0-29,6.2-39,16.1c-3.8,3.8-7,8.1-9.6,12.8c-1.3-0.3-2.6-0.6-3.9-0.8
				c2.8-5.5,6.4-10.4,10.7-14.7C419.1,8.2,433.8,1.6,450.1,1.6L450.1,1.6z M450.1,43.2c4.8,0,9.1,1.9,12.3,5.1
				c1.8,1.8,3.2,4,4.1,6.5c-1,1.3-2,2.6-2.9,4c-0.4-3-1.8-5.7-3.9-7.8c-2.5-2.5-5.9-4-9.6-4c-3.7,0-7.1,1.5-9.6,4
				c-2,2-3.4,4.7-3.9,7.8c-0.9-1.4-1.9-2.7-2.9-4c0.9-2.5,2.3-4.7,4.1-6.5C440.9,45.1,445.3,43.2,450.1,43.2L450.1,43.2z
				 M450.1,32.8c7.7,0,14.6,3.1,19.6,8.1c1.7,1.7,3.3,3.7,4.5,5.9c-1,0.8-2,1.7-2.9,2.6c-1.1-2.2-2.6-4.1-4.3-5.8
				c-4.3-4.3-10.3-7-16.9-7c-6.6,0-12.6,2.7-16.9,7c-1.7,1.7-3.2,3.7-4.3,5.8c-0.9-0.9-1.9-1.8-2.9-2.6c1.2-2.2,2.7-4.1,4.5-5.9
				C435.5,35.9,442.4,32.8,450.1,32.8L450.1,32.8z M450.1,22.4c10.5,0,20.1,4.3,27,11.2c2.2,2.2,4.1,4.6,5.6,7.2
				c-1.1,0.6-2.2,1.3-3.2,2c-1.4-2.4-3.2-4.6-5.1-6.5c-6.2-6.2-14.8-10.1-24.3-10.1c-9.5,0-18.1,3.8-24.3,10.1c-2,2-3.7,4.1-5.1,6.5
				c-1-0.7-2.1-1.4-3.2-2c1.6-2.6,3.5-5,5.6-7.2C430,26.7,439.5,22.4,450.1,22.4L450.1,22.4z M450.1,12c13.4,0,25.5,5.4,34.3,14.2
				c3,3,5.6,6.4,7.7,10.1c-1.2,0.4-2.4,0.9-3.6,1.4c-1.9-3.2-4.2-6.2-6.9-8.8c-8.1-8.1-19.3-13.1-31.6-13.1
				c-12.4,0-23.5,5-31.6,13.1c-2.6,2.6-5,5.6-6.9,8.8c-1.2-0.5-2.3-1-3.5-1.4c2.1-3.7,4.7-7.1,7.7-10.1
				C424.5,17.4,436.7,12,450.1,12L450.1,12z"/>
			<path class="st3" d="M450.1,63.9c16.3,0,31,6.6,41.7,17.3c4.3,4.3,7.9,9.3,10.7,14.7c-1.3,0.2-2.6,0.5-3.9,0.8
				c-2.6-4.7-5.8-9-9.6-12.8c-10-10-23.8-16.1-39-16.1c-15.2,0-29,6.2-39,16.1c-3.8,3.8-7,8.1-9.6,12.8c-1.3-0.3-2.6-0.6-3.9-0.8
				c2.8-5.5,6.4-10.4,10.7-14.7C419.1,70.5,433.8,63.9,450.1,63.9L450.1,63.9z M450.1,105.4c4.8,0,9.1,1.9,12.3,5.1
				c1.8,1.8,3.2,4,4.1,6.5c-1,1.3-2,2.6-2.9,3.9c-0.4-3-1.8-5.7-3.9-7.8c-2.5-2.5-5.9-4-9.6-4c-3.7,0-7.1,1.5-9.6,4
				c-2,2-3.4,4.7-3.9,7.8c-0.9-1.4-1.9-2.7-2.9-3.9c0.9-2.5,2.3-4.7,4.1-6.5C440.9,107.4,445.3,105.4,450.1,105.4L450.1,105.4z
				 M450.1,95.1c7.7,0,14.6,3.1,19.6,8.1c1.7,1.7,3.3,3.7,4.5,5.9c-1,0.8-2,1.7-2.9,2.6c-1.1-2.2-2.6-4.1-4.3-5.8
				c-4.3-4.3-10.3-7-16.9-7c-6.6,0-12.6,2.7-16.9,7c-1.7,1.7-3.2,3.7-4.3,5.8c-0.9-0.9-1.9-1.8-2.9-2.6c1.2-2.2,2.7-4.1,4.5-5.9
				C435.5,98.2,442.4,95.1,450.1,95.1L450.1,95.1z M450.1,84.7c10.5,0,20.1,4.3,27,11.2c2.2,2.2,4.1,4.6,5.6,7.2
				c-1.1,0.6-2.2,1.3-3.2,2c-1.4-2.4-3.2-4.6-5.1-6.5c-6.2-6.2-14.8-10.1-24.3-10.1c-9.5,0-18.1,3.8-24.3,10.1c-2,2-3.7,4.1-5.1,6.5
				c-1-0.7-2.1-1.4-3.2-2c1.6-2.6,3.5-5,5.6-7.2C430,88.9,439.5,84.7,450.1,84.7L450.1,84.7z M450.1,74.3c13.4,0,25.5,5.4,34.3,14.2
				c3,3,5.6,6.4,7.7,10.1c-1.2,0.4-2.4,0.9-3.6,1.4c-1.9-3.2-4.2-6.2-6.9-8.9c-8.1-8.1-19.3-13.1-31.6-13.1
				c-12.4,0-23.5,5-31.6,13.1c-2.6,2.6-5,5.6-6.9,8.9c-1.2-0.5-2.3-1-3.5-1.4c2.1-3.7,4.7-7.1,7.7-10.1
				C424.5,79.7,436.7,74.3,450.1,74.3L450.1,74.3z"/>
			<path class="st3" d="M512.3-29.5c16.3,0,31,6.6,41.7,17.3c4.3,4.3,7.9,9.3,10.7,14.7c-1.3,0.2-2.6,0.5-3.9,0.8
				c-2.6-4.7-5.8-9-9.6-12.8c-10-10-23.8-16.1-39-16.1c-15.2,0-29,6.2-39,16.1c-3.8,3.8-7,8.1-9.6,12.8c-1.3-0.3-2.6-0.6-3.9-0.8
				c2.8-5.5,6.4-10.4,10.7-14.7C481.3-22.9,496.1-29.5,512.3-29.5L512.3-29.5z M512.3,12c4.8,0,9.1,1.9,12.3,5.1
				c1.8,1.8,3.2,4,4.1,6.5c-1,1.3-2,2.6-2.9,3.9c-0.4-3-1.8-5.7-3.9-7.8c-2.5-2.5-5.8-4-9.6-4c-3.7,0-7.1,1.5-9.6,4
				c-2,2-3.4,4.7-3.9,7.8c-0.9-1.4-1.9-2.7-2.9-3.9c0.9-2.5,2.3-4.7,4.1-6.5C503.2,14,507.6,12,512.3,12L512.3,12z M512.3,1.6
				c7.7,0,14.6,3.1,19.6,8.1c1.7,1.7,3.3,3.7,4.5,5.9c-1,0.8-2,1.7-2.9,2.6c-1.1-2.2-2.6-4.1-4.3-5.8c-4.3-4.3-10.3-7-16.9-7
				c-6.6,0-12.6,2.7-16.9,7c-1.7,1.7-3.2,3.7-4.3,5.8c-0.9-0.9-1.9-1.8-2.9-2.6c1.2-2.2,2.7-4.1,4.5-5.9
				C497.7,4.7,504.7,1.6,512.3,1.6L512.3,1.6z M512.3-8.8c10.5,0,20.1,4.3,27,11.2c2.2,2.2,4.1,4.6,5.6,7.2c-1.1,0.6-2.2,1.3-3.2,2
				c-1.4-2.4-3.2-4.6-5.1-6.5C530.4-1.1,521.8-5,512.3-5c-9.5,0-18.1,3.8-24.3,10.1c-2,2-3.7,4.1-5.1,6.5c-1-0.7-2.1-1.4-3.2-2
				c1.6-2.6,3.5-5,5.6-7.2C492.3-4.5,501.8-8.8,512.3-8.8L512.3-8.8z M512.3-19.1c13.4,0,25.5,5.4,34.3,14.2c3,3,5.6,6.4,7.7,10.1
				c-1.2,0.4-2.4,0.9-3.5,1.4c-1.9-3.2-4.2-6.2-6.9-8.8c-8.1-8.1-19.3-13.1-31.6-13.1c-12.4,0-23.5,5-31.6,13.1
				c-2.6,2.6-5,5.6-6.9,8.8c-1.2-0.5-2.3-1-3.5-1.4c2.1-3.7,4.7-7.1,7.7-10.1C486.8-13.7,498.9-19.1,512.3-19.1L512.3-19.1z"/>
			<path class="st3" d="M512.3,32.7c16.3,0,31,6.6,41.7,17.3c4.3,4.3,7.9,9.3,10.7,14.7c-1.3,0.2-2.6,0.5-3.9,0.8
				c-2.6-4.7-5.8-9-9.6-12.8c-10-10-23.8-16.1-39-16.1c-15.2,0-29,6.2-39,16.1c-3.8,3.8-7,8.1-9.6,12.8c-1.3-0.3-2.6-0.6-3.9-0.8
				c2.8-5.4,6.4-10.4,10.7-14.7C481.3,39.3,496.1,32.7,512.3,32.7L512.3,32.7z M512.3,74.3c4.8,0,9.1,1.9,12.3,5.1
				c1.8,1.8,3.2,4,4.1,6.5c-1,1.3-2,2.6-2.9,4c-0.4-3-1.8-5.7-3.9-7.8c-2.5-2.5-5.8-4-9.6-4c-3.7,0-7.1,1.5-9.6,4
				c-2,2-3.4,4.7-3.9,7.8c-0.9-1.4-1.9-2.7-2.9-4c0.9-2.5,2.3-4.7,4.1-6.5C503.2,76.2,507.6,74.3,512.3,74.3L512.3,74.3z
				 M512.3,63.9c7.7,0,14.6,3.1,19.6,8.1c1.7,1.7,3.3,3.7,4.5,5.9c-1,0.8-2,1.7-2.9,2.6c-1.1-2.2-2.6-4.1-4.3-5.8
				c-4.3-4.3-10.3-7-16.9-7c-6.6,0-12.6,2.7-16.9,7c-1.7,1.7-3.2,3.7-4.3,5.8c-0.9-0.9-1.9-1.8-2.9-2.6c1.2-2.2,2.7-4.1,4.5-5.9
				C497.7,67,504.7,63.9,512.3,63.9L512.3,63.9z M512.3,53.5c10.5,0,20.1,4.3,27,11.2c2.2,2.2,4.1,4.6,5.6,7.2
				c-1.1,0.6-2.2,1.3-3.2,2c-1.4-2.4-3.2-4.6-5.1-6.5c-6.2-6.2-14.8-10.1-24.3-10.1c-9.5,0-18.1,3.8-24.3,10.1c-2,2-3.7,4.1-5.1,6.5
				c-1-0.7-2.1-1.4-3.2-2c1.6-2.6,3.5-5,5.6-7.2C492.3,57.8,501.8,53.5,512.3,53.5L512.3,53.5z M512.3,43.1
				c13.4,0,25.5,5.4,34.3,14.2c3,3,5.6,6.4,7.7,10.1c-1.2,0.4-2.4,0.9-3.5,1.4c-1.9-3.2-4.2-6.2-6.9-8.8
				c-8.1-8.1-19.3-13.1-31.6-13.1c-12.4,0-23.5,5-31.6,13.1c-2.6,2.6-5,5.6-6.9,8.8c-1.2-0.5-2.3-1-3.5-1.4
				c2.1-3.7,4.7-7.1,7.7-10.1C486.8,48.6,498.9,43.1,512.3,43.1L512.3,43.1z"/>
			<path class="st3" d="M512.3,95c16.3,0,31,6.6,41.7,17.3c4.3,4.3,7.9,9.3,10.7,14.7c-1.3,0.2-2.6,0.5-3.9,0.8
				c-2.6-4.7-5.8-9-9.6-12.8c-10-10-23.8-16.1-39-16.1c-15.2,0-29,6.2-39,16.1c-3.8,3.8-7,8.1-9.6,12.8c-1.3-0.3-2.6-0.6-3.9-0.8
				c2.8-5.5,6.4-10.4,10.7-14.7C481.3,101.6,496.1,95,512.3,95L512.3,95z M512.3,136.6c4.8,0,9.1,1.9,12.3,5.1
				c1.8,1.8,3.2,4,4.1,6.5c-1,1.3-2,2.6-2.9,4c-0.4-3-1.8-5.7-3.9-7.8c-2.5-2.5-5.8-4-9.6-4c-3.7,0-7.1,1.5-9.6,4
				c-2,2-3.4,4.7-3.9,7.8c-0.9-1.4-1.9-2.7-2.9-4c0.9-2.5,2.3-4.7,4.1-6.5C503.2,138.5,507.6,136.6,512.3,136.6L512.3,136.6z
				 M512.3,126.2c7.7,0,14.6,3.1,19.6,8.1c1.7,1.7,3.3,3.7,4.5,5.9c-1,0.8-2,1.7-2.9,2.6c-1.1-2.2-2.6-4.1-4.3-5.8
				c-4.3-4.3-10.3-7-16.9-7c-6.6,0-12.6,2.7-16.9,7c-1.7,1.7-3.2,3.7-4.3,5.8c-0.9-0.9-1.9-1.8-2.9-2.6c1.2-2.2,2.7-4.1,4.5-5.9
				C497.7,129.3,504.7,126.2,512.3,126.2L512.3,126.2z M512.3,115.8c10.5,0,20.1,4.3,27,11.2c2.2,2.2,4.1,4.6,5.6,7.2
				c-1.1,0.6-2.2,1.3-3.2,2c-1.4-2.4-3.2-4.6-5.1-6.5c-6.2-6.2-14.8-10.1-24.3-10.1c-9.5,0-18.1,3.8-24.3,10.1c-2,2-3.7,4.1-5.1,6.5
				c-1-0.7-2.1-1.4-3.2-2c1.6-2.6,3.5-5,5.6-7.2C492.3,120.1,501.8,115.8,512.3,115.8L512.3,115.8z M512.3,105.4
				c13.4,0,25.5,5.4,34.3,14.2c3,3,5.6,6.4,7.7,10.1c-1.2,0.4-2.4,0.9-3.5,1.4c-1.9-3.2-4.2-6.2-6.9-8.9
				c-8.1-8.1-19.3-13.1-31.6-13.1c-12.4,0-23.5,5-31.6,13.1c-2.6,2.6-5,5.6-6.9,8.9c-1.2-0.5-2.3-1-3.5-1.4
				c2.1-3.7,4.7-7.1,7.7-10.1C486.8,110.8,498.9,105.4,512.3,105.4L512.3,105.4z"/>
			<path class="st3" d="M574.6,1.6c16.3,0,31,6.6,41.7,17.3c4.3,4.3,7.9,9.3,10.7,14.7c-1.3,0.2-2.6,0.5-3.9,0.8
				c-2.6-4.7-5.8-9-9.6-12.8c-10-10-23.8-16.1-39-16.1c-15.2,0-29,6.2-39,16.1c-3.8,3.8-7,8.1-9.6,12.8c-1.3-0.3-2.6-0.6-3.9-0.8
				c2.8-5.5,6.4-10.4,10.7-14.7C543.6,8.2,558.4,1.6,574.6,1.6L574.6,1.6z M574.6,43.2c4.8,0,9.1,1.9,12.3,5.1
				c1.8,1.8,3.2,4,4.1,6.5c-1,1.3-2,2.6-2.9,4c-0.4-3-1.8-5.7-3.9-7.8c-2.5-2.5-5.9-4-9.6-4c-3.7,0-7.1,1.5-9.6,4
				c-2,2-3.4,4.7-3.9,7.8c-0.9-1.4-1.9-2.7-2.9-4c0.9-2.5,2.3-4.7,4.1-6.5C565.5,45.1,569.8,43.2,574.6,43.2L574.6,43.2z
				 M574.6,32.8c7.7,0,14.6,3.1,19.6,8.1c1.7,1.7,3.3,3.7,4.5,5.9c-1,0.8-1.9,1.7-2.9,2.6c-1.1-2.2-2.6-4.1-4.3-5.8
				c-4.3-4.3-10.3-7-16.9-7c-6.6,0-12.6,2.7-16.9,7c-1.7,1.7-3.2,3.7-4.3,5.8c-0.9-0.9-1.9-1.8-2.9-2.6c1.2-2.2,2.7-4.1,4.5-5.9
				C560,35.9,567,32.8,574.6,32.8L574.6,32.8z M574.6,22.4c10.5,0,20.1,4.3,27,11.2c2.2,2.2,4.1,4.6,5.6,7.2c-1.1,0.6-2.2,1.3-3.2,2
				c-1.4-2.4-3.2-4.6-5.1-6.5c-6.2-6.2-14.8-10.1-24.3-10.1c-9.5,0-18.1,3.8-24.3,10.1c-2,2-3.7,4.1-5.1,6.5c-1-0.7-2.1-1.4-3.2-2
				c1.6-2.6,3.5-5,5.6-7.2C554.6,26.7,564.1,22.4,574.6,22.4L574.6,22.4z M574.6,12c13.4,0,25.5,5.4,34.3,14.2c3,3,5.6,6.4,7.7,10.1
				c-1.2,0.4-2.4,0.9-3.6,1.4c-1.9-3.2-4.2-6.2-6.9-8.8c-8.1-8.1-19.3-13.1-31.6-13.1c-12.4,0-23.5,5-31.6,13.1
				c-2.6,2.6-5,5.6-6.9,8.8c-1.2-0.5-2.3-1-3.5-1.4c2.1-3.7,4.7-7.1,7.7-10.1C549.1,17.4,561.2,12,574.6,12L574.6,12z"/>
			<path class="st3" d="M574.6,63.9c16.3,0,31,6.6,41.7,17.3c4.3,4.3,7.9,9.3,10.7,14.7c-1.3,0.2-2.6,0.5-3.9,0.8
				c-2.6-4.7-5.8-9-9.6-12.8c-10-10-23.8-16.1-39-16.1c-15.2,0-29,6.2-39,16.1c-3.8,3.8-7,8.1-9.6,12.8c-1.3-0.3-2.6-0.6-3.9-0.8
				c2.8-5.5,6.4-10.4,10.7-14.7C543.6,70.5,558.4,63.9,574.6,63.9L574.6,63.9z M574.6,105.4c4.8,0,9.1,1.9,12.3,5.1
				c1.8,1.8,3.2,4,4.1,6.5c-1,1.3-2,2.6-2.9,3.9c-0.4-3-1.8-5.7-3.9-7.8c-2.5-2.5-5.9-4-9.6-4c-3.7,0-7.1,1.5-9.6,4
				c-2,2-3.4,4.7-3.9,7.8c-0.9-1.4-1.9-2.7-2.9-3.9c0.9-2.5,2.3-4.7,4.1-6.5C565.5,107.4,569.8,105.4,574.6,105.4L574.6,105.4z
				 M574.6,95.1c7.7,0,14.6,3.1,19.6,8.1c1.7,1.7,3.3,3.7,4.5,5.9c-1,0.8-1.9,1.7-2.9,2.6c-1.1-2.2-2.6-4.1-4.3-5.8
				c-4.3-4.3-10.3-7-16.9-7c-6.6,0-12.6,2.7-16.9,7c-1.7,1.7-3.2,3.7-4.3,5.8c-0.9-0.9-1.9-1.8-2.9-2.6c1.2-2.2,2.7-4.1,4.5-5.9
				C560,98.2,567,95.1,574.6,95.1L574.6,95.1z M574.6,84.7c10.5,0,20.1,4.3,27,11.2c2.2,2.2,4.1,4.6,5.6,7.2c-1.1,0.6-2.2,1.3-3.2,2
				c-1.4-2.4-3.2-4.6-5.1-6.5c-6.2-6.2-14.8-10.1-24.3-10.1c-9.5,0-18.1,3.8-24.3,10.1c-2,2-3.7,4.1-5.1,6.5c-1-0.7-2.1-1.4-3.2-2
				c1.6-2.6,3.5-5,5.6-7.2C554.6,88.9,564.1,84.7,574.6,84.7L574.6,84.7z M574.6,74.3c13.4,0,25.5,5.4,34.3,14.2
				c3,3,5.6,6.4,7.7,10.1c-1.2,0.4-2.4,0.9-3.6,1.4c-1.9-3.2-4.2-6.2-6.9-8.9c-8.1-8.1-19.3-13.1-31.6-13.1
				c-12.4,0-23.5,5-31.6,13.1c-2.6,2.6-5,5.6-6.9,8.9c-1.2-0.5-2.3-1-3.5-1.4c2.1-3.7,4.7-7.1,7.7-10.1
				C549.1,79.7,561.2,74.3,574.6,74.3L574.6,74.3z"/>
			<path class="st3" d="M636.9-29.5c16.3,0,31,6.6,41.7,17.3c4.3,4.3,7.9,9.3,10.7,14.7c-1.3,0.2-2.6,0.5-3.9,0.8
				c-2.6-4.7-5.8-9-9.6-12.8c-10-10-23.8-16.1-39-16.1c-15.2,0-29,6.2-39,16.1c-3.8,3.8-7,8.1-9.6,12.8c-1.3-0.3-2.6-0.6-3.9-0.8
				c2.8-5.5,6.4-10.4,10.7-14.7C605.9-22.9,620.6-29.5,636.9-29.5L636.9-29.5z M636.9,12c4.8,0,9.1,1.9,12.3,5.1
				c1.8,1.8,3.2,4,4.1,6.5c-1,1.3-2,2.6-2.9,3.9c-0.4-3-1.8-5.7-3.9-7.8c-2.5-2.5-5.8-4-9.6-4c-3.7,0-7.1,1.5-9.6,4
				c-2,2-3.4,4.7-3.8,7.8c-0.9-1.4-1.9-2.7-2.9-3.9c0.9-2.5,2.3-4.7,4.1-6.5C627.8,14,632.1,12,636.9,12L636.9,12z M636.9,1.6
				c7.7,0,14.6,3.1,19.6,8.1c1.7,1.7,3.3,3.7,4.5,5.9c-1,0.8-1.9,1.7-2.9,2.6c-1.1-2.2-2.6-4.1-4.3-5.8c-4.3-4.3-10.3-7-16.9-7
				c-6.6,0-12.6,2.7-16.9,7c-1.7,1.7-3.2,3.7-4.3,5.8c-0.9-0.9-1.9-1.8-2.9-2.6c1.2-2.2,2.7-4.1,4.5-5.9
				C622.3,4.7,629.2,1.6,636.9,1.6L636.9,1.6z M636.9-8.8c10.5,0,20.1,4.3,27,11.2c2.2,2.2,4.1,4.6,5.6,7.2c-1.1,0.6-2.2,1.3-3.2,2
				c-1.4-2.4-3.2-4.6-5.1-6.5C655-1.1,646.4-5,636.9-5c-9.5,0-18.1,3.8-24.3,10.1c-2,2-3.7,4.1-5.1,6.5c-1-0.7-2.1-1.4-3.2-2
				c1.6-2.6,3.5-5,5.6-7.2C616.8-4.5,626.4-8.8,636.9-8.8L636.9-8.8z M636.9-19.1c13.4,0,25.5,5.4,34.3,14.2c3,3,5.6,6.4,7.7,10.1
				c-1.2,0.4-2.4,0.9-3.5,1.4c-1.9-3.2-4.2-6.2-6.9-8.8c-8.1-8.1-19.3-13.1-31.6-13.1c-12.4,0-23.5,5-31.6,13.1
				c-2.6,2.6-5,5.6-6.9,8.8c-1.2-0.5-2.3-1-3.5-1.4c2.1-3.7,4.7-7.1,7.7-10.1C611.4-13.7,623.5-19.1,636.9-19.1L636.9-19.1z"/>
			<path class="st3" d="M636.9,32.7c16.3,0,31,6.6,41.7,17.3c4.3,4.3,7.9,9.3,10.7,14.7c-1.3,0.2-2.6,0.5-3.9,0.8
				c-2.6-4.7-5.8-9-9.6-12.8c-10-10-23.8-16.1-39-16.1c-15.2,0-29,6.2-39,16.1c-3.8,3.8-7,8.1-9.6,12.8c-1.3-0.3-2.6-0.6-3.9-0.8
				c2.8-5.4,6.4-10.4,10.7-14.7C605.9,39.3,620.6,32.7,636.9,32.7L636.9,32.7z M636.9,74.3c4.8,0,9.1,1.9,12.3,5.1
				c1.8,1.8,3.2,4,4.1,6.5c-1,1.3-2,2.6-2.9,4c-0.4-3-1.8-5.7-3.9-7.8c-2.5-2.5-5.8-4-9.6-4c-3.7,0-7.1,1.5-9.6,4
				c-2,2-3.4,4.7-3.8,7.8c-0.9-1.4-1.9-2.7-2.9-4c0.9-2.5,2.3-4.7,4.1-6.5C627.8,76.2,632.1,74.3,636.9,74.3L636.9,74.3z
				 M636.9,63.9c7.7,0,14.6,3.1,19.6,8.1c1.7,1.7,3.3,3.7,4.5,5.9c-1,0.8-1.9,1.7-2.9,2.6c-1.1-2.2-2.6-4.1-4.3-5.8
				c-4.3-4.3-10.3-7-16.9-7c-6.6,0-12.6,2.7-16.9,7c-1.7,1.7-3.2,3.7-4.3,5.8c-0.9-0.9-1.9-1.8-2.9-2.6c1.2-2.2,2.7-4.1,4.5-5.9
				C622.3,67,629.2,63.9,636.9,63.9L636.9,63.9z M636.9,53.5c10.5,0,20.1,4.3,27,11.2c2.2,2.2,4.1,4.6,5.6,7.2
				c-1.1,0.6-2.2,1.3-3.2,2c-1.4-2.4-3.2-4.6-5.1-6.5c-6.2-6.2-14.8-10.1-24.3-10.1c-9.5,0-18.1,3.8-24.3,10.1c-2,2-3.7,4.1-5.1,6.5
				c-1-0.7-2.1-1.4-3.2-2c1.6-2.6,3.5-5,5.6-7.2C616.8,57.8,626.4,53.5,636.9,53.5L636.9,53.5z M636.9,43.1
				c13.4,0,25.5,5.4,34.3,14.2c3,3,5.6,6.4,7.7,10.1c-1.2,0.4-2.4,0.9-3.5,1.4c-1.9-3.2-4.2-6.2-6.9-8.8
				c-8.1-8.1-19.3-13.1-31.6-13.1c-12.4,0-23.5,5-31.6,13.1c-2.6,2.6-5,5.6-6.9,8.8c-1.2-0.5-2.3-1-3.5-1.4
				c2.1-3.7,4.7-7.1,7.7-10.1C611.4,48.6,623.5,43.1,636.9,43.1L636.9,43.1z"/>
			<path class="st3" d="M636.9,95c16.3,0,31,6.6,41.7,17.3c4.3,4.3,7.9,9.3,10.7,14.7c-1.3,0.2-2.6,0.5-3.9,0.8
				c-2.6-4.7-5.8-9-9.6-12.8c-10-10-23.8-16.1-39-16.1c-15.2,0-29,6.2-39,16.1c-3.8,3.8-7,8.1-9.6,12.8c-1.3-0.3-2.6-0.6-3.9-0.8
				c2.8-5.5,6.4-10.4,10.7-14.7C605.9,101.6,620.6,95,636.9,95L636.9,95z M636.9,136.6c4.8,0,9.1,1.9,12.3,5.1
				c1.8,1.8,3.2,4,4.1,6.5c-1,1.3-2,2.6-2.9,4c-0.4-3-1.8-5.7-3.9-7.8c-2.5-2.5-5.8-4-9.6-4c-3.7,0-7.1,1.5-9.6,4
				c-2,2-3.4,4.7-3.8,7.8c-0.9-1.4-1.9-2.7-2.9-4c0.9-2.5,2.3-4.7,4.1-6.5C627.8,138.5,632.1,136.6,636.9,136.6L636.9,136.6z
				 M636.9,126.2c7.7,0,14.6,3.1,19.6,8.1c1.7,1.7,3.3,3.7,4.5,5.9c-1,0.8-1.9,1.7-2.9,2.6c-1.1-2.2-2.6-4.1-4.3-5.8
				c-4.3-4.3-10.3-7-16.9-7c-6.6,0-12.6,2.7-16.9,7c-1.7,1.7-3.2,3.7-4.3,5.8c-0.9-0.9-1.9-1.8-2.9-2.6c1.2-2.2,2.7-4.1,4.5-5.9
				C622.3,129.3,629.2,126.2,636.9,126.2L636.9,126.2z M636.9,115.8c10.5,0,20.1,4.3,27,11.2c2.2,2.2,4.1,4.6,5.6,7.2
				c-1.1,0.6-2.2,1.3-3.2,2c-1.4-2.4-3.2-4.6-5.1-6.5c-6.2-6.2-14.8-10.1-24.3-10.1c-9.5,0-18.1,3.8-24.3,10.1c-2,2-3.7,4.1-5.1,6.5
				c-1-0.7-2.1-1.4-3.2-2c1.6-2.6,3.5-5,5.6-7.2C616.8,120.1,626.4,115.8,636.9,115.8L636.9,115.8z M636.9,105.4
				c13.4,0,25.5,5.4,34.3,14.2c3,3,5.6,6.4,7.7,10.1c-1.2,0.4-2.4,0.9-3.5,1.4c-1.9-3.2-4.2-6.2-6.9-8.9
				c-8.1-8.1-19.3-13.1-31.6-13.1c-12.4,0-23.5,5-31.6,13.1c-2.6,2.6-5,5.6-6.9,8.9c-1.2-0.5-2.3-1-3.5-1.4
				c2.1-3.7,4.7-7.1,7.7-10.1C611.4,110.8,623.5,105.4,636.9,105.4L636.9,105.4z"/>
			<path class="st3" d="M699.2,1.6c16.3,0,31,6.6,41.7,17.3c4.3,4.3,7.9,9.3,10.7,14.7c-1.3,0.2-2.6,0.5-3.9,0.8
				c-2.6-4.7-5.8-9-9.6-12.8c-10-10-23.8-16.1-39-16.1c-15.2,0-29,6.2-39,16.1c-3.8,3.8-7,8.1-9.6,12.8c-1.3-0.3-2.6-0.6-3.9-0.8
				c2.8-5.5,6.4-10.4,10.7-14.7C668.2,8.2,682.9,1.6,699.2,1.6L699.2,1.6z M699.2,43.2c4.8,0,9.1,1.9,12.3,5.1
				c1.8,1.8,3.2,4,4.1,6.5c-1,1.3-2,2.6-2.9,4c-0.4-3-1.8-5.7-3.8-7.8c-2.5-2.5-5.8-4-9.6-4c-3.7,0-7.1,1.5-9.6,4
				c-2,2-3.4,4.7-3.9,7.8c-0.9-1.4-1.9-2.7-2.9-4c0.9-2.5,2.3-4.7,4.1-6.5C690,45.1,694.4,43.2,699.2,43.2L699.2,43.2z M699.2,32.8
				c7.7,0,14.6,3.1,19.6,8.1c1.7,1.7,3.3,3.7,4.5,5.9c-1,0.8-1.9,1.7-2.9,2.6c-1.1-2.2-2.6-4.1-4.3-5.8c-4.3-4.3-10.3-7-16.9-7
				c-6.6,0-12.6,2.7-16.9,7c-1.7,1.7-3.2,3.7-4.3,5.8c-0.9-0.9-1.9-1.8-2.9-2.6c1.2-2.2,2.7-4.1,4.5-5.9
				C684.6,35.9,691.5,32.8,699.2,32.8L699.2,32.8z M699.2,22.4c10.5,0,20.1,4.3,27,11.2c2.2,2.2,4.1,4.6,5.6,7.2
				c-1.1,0.6-2.2,1.3-3.2,2c-1.4-2.4-3.2-4.6-5.1-6.5c-6.2-6.2-14.8-10.1-24.3-10.1c-9.5,0-18.1,3.8-24.3,10.1c-2,2-3.7,4.1-5.1,6.5
				c-1-0.7-2.1-1.4-3.2-2c1.6-2.6,3.5-5,5.6-7.2C679.1,26.7,688.6,22.4,699.2,22.4L699.2,22.4z M699.2,12c13.4,0,25.5,5.4,34.3,14.2
				c3,3,5.6,6.4,7.7,10.1c-1.2,0.4-2.4,0.9-3.5,1.4c-1.9-3.2-4.2-6.2-6.9-8.8c-8.1-8.1-19.3-13.1-31.6-13.1
				c-12.4,0-23.5,5-31.6,13.1c-2.6,2.6-5,5.6-6.9,8.8c-1.2-0.5-2.3-1-3.5-1.4c2.1-3.7,4.7-7.1,7.7-10.1
				C673.6,17.4,685.8,12,699.2,12L699.2,12z"/>
			<path class="st3" d="M699.2,63.9c16.3,0,31,6.6,41.7,17.3c4.3,4.3,7.9,9.3,10.7,14.7c-1.3,0.2-2.6,0.5-3.9,0.8
				c-2.6-4.7-5.8-9-9.6-12.8c-10-10-23.8-16.1-39-16.1c-15.2,0-29,6.2-39,16.1c-3.8,3.8-7,8.1-9.6,12.8c-1.3-0.3-2.6-0.6-3.9-0.8
				c2.8-5.5,6.4-10.4,10.7-14.7C668.2,70.5,682.9,63.9,699.2,63.9L699.2,63.9z M699.2,105.4c4.8,0,9.1,1.9,12.3,5.1
				c1.8,1.8,3.2,4,4.1,6.5c-1,1.3-2,2.6-2.9,3.9c-0.4-3-1.8-5.7-3.8-7.8c-2.5-2.5-5.8-4-9.6-4c-3.7,0-7.1,1.5-9.6,4
				c-2,2-3.4,4.7-3.9,7.8c-0.9-1.4-1.9-2.7-2.9-3.9c0.9-2.5,2.3-4.7,4.1-6.5C690,107.4,694.4,105.4,699.2,105.4L699.2,105.4z
				 M699.2,95.1c7.7,0,14.6,3.1,19.6,8.1c1.7,1.7,3.3,3.7,4.5,5.9c-1,0.8-1.9,1.7-2.9,2.6c-1.1-2.2-2.6-4.1-4.3-5.8
				c-4.3-4.3-10.3-7-16.9-7c-6.6,0-12.6,2.7-16.9,7c-1.7,1.7-3.2,3.7-4.3,5.8c-0.9-0.9-1.9-1.8-2.9-2.6c1.2-2.2,2.7-4.1,4.5-5.9
				C684.6,98.2,691.5,95.1,699.2,95.1L699.2,95.1z M699.2,84.7c10.5,0,20.1,4.3,27,11.2c2.2,2.2,4.1,4.6,5.6,7.2
				c-1.1,0.6-2.2,1.3-3.2,2c-1.4-2.4-3.2-4.6-5.1-6.5c-6.2-6.2-14.8-10.1-24.3-10.1c-9.5,0-18.1,3.8-24.3,10.1c-2,2-3.7,4.1-5.1,6.5
				c-1-0.7-2.1-1.4-3.2-2c1.6-2.6,3.5-5,5.6-7.2C679.1,88.9,688.6,84.7,699.2,84.7L699.2,84.7z M699.2,74.3
				c13.4,0,25.5,5.4,34.3,14.2c3,3,5.6,6.4,7.7,10.1c-1.2,0.4-2.4,0.9-3.5,1.4c-1.9-3.2-4.2-6.2-6.9-8.9
				c-8.1-8.1-19.3-13.1-31.6-13.1c-12.4,0-23.5,5-31.6,13.1c-2.6,2.6-5,5.6-6.9,8.9c-1.2-0.5-2.3-1-3.5-1.4
				c2.1-3.7,4.7-7.1,7.7-10.1C673.6,79.7,685.8,74.3,699.2,74.3L699.2,74.3z"/>
			<path class="st3" d="M761.5-29.5c16.3,0,31,6.6,41.7,17.3C807.4-8,811-3,813.9,2.4c-1.3,0.2-2.6,0.5-3.9,0.8
				c-2.6-4.7-5.8-9-9.6-12.8c-10-10-23.8-16.1-39-16.1c-15.2,0-29,6.2-39,16.1c-3.8,3.8-7,8.1-9.6,12.8c-1.3-0.3-2.6-0.6-3.9-0.8
				c2.8-5.5,6.4-10.4,10.7-14.7C730.5-22.9,745.2-29.5,761.5-29.5L761.5-29.5z M761.5,12c4.8,0,9.1,1.9,12.3,5.1
				c1.8,1.8,3.2,4,4.1,6.5c-1,1.3-2,2.6-2.9,3.9c-0.4-3-1.8-5.7-3.9-7.8c-2.5-2.5-5.8-4-9.6-4c-3.7,0-7.1,1.5-9.6,4
				c-2,2-3.4,4.7-3.9,7.8c-0.9-1.4-1.9-2.7-2.9-3.9c0.9-2.5,2.3-4.7,4.1-6.5C752.3,14,756.7,12,761.5,12L761.5,12z M761.5,1.6
				c7.7,0,14.6,3.1,19.6,8.1c1.7,1.7,3.3,3.7,4.5,5.9c-1,0.8-2,1.7-2.9,2.6c-1.1-2.2-2.6-4.1-4.3-5.8c-4.3-4.3-10.3-7-16.9-7
				c-6.6,0-12.6,2.7-16.9,7c-1.7,1.7-3.2,3.7-4.3,5.8c-0.9-0.9-1.9-1.8-2.9-2.6c1.2-2.2,2.7-4.1,4.5-5.9
				C746.9,4.7,753.8,1.6,761.5,1.6L761.5,1.6z M761.5-8.8c10.5,0,20.1,4.3,27,11.2c2.2,2.2,4.1,4.6,5.6,7.2c-1.1,0.6-2.2,1.3-3.2,2
				c-1.4-2.4-3.2-4.6-5.1-6.5C779.5-1.1,770.9-5,761.5-5c-9.5,0-18.1,3.8-24.3,10.1c-2,2-3.7,4.1-5.1,6.5c-1-0.7-2.1-1.4-3.2-2
				c1.6-2.6,3.5-5,5.6-7.2C741.4-4.5,750.9-8.8,761.5-8.8L761.5-8.8z M761.5-19.1c13.4,0,25.5,5.4,34.3,14.2c3,3,5.6,6.4,7.7,10.1
				c-1.2,0.4-2.4,0.9-3.6,1.4c-1.9-3.2-4.2-6.2-6.9-8.8c-8.1-8.1-19.3-13.1-31.6-13.1c-12.4,0-23.5,5-31.6,13.1
				c-2.6,2.6-5,5.6-6.9,8.8c-1.2-0.5-2.3-1-3.5-1.4c2.1-3.7,4.7-7.1,7.7-10.1C735.9-13.7,748.1-19.1,761.5-19.1L761.5-19.1z"/>
			<path class="st3" d="M761.5,32.7c16.3,0,31,6.6,41.7,17.3c4.3,4.3,7.9,9.3,10.7,14.7c-1.3,0.2-2.6,0.5-3.9,0.8
				c-2.6-4.7-5.8-9-9.6-12.8c-10-10-23.8-16.1-39-16.1c-15.2,0-29,6.2-39,16.1c-3.8,3.8-7,8.1-9.6,12.8c-1.3-0.3-2.6-0.6-3.9-0.8
				c2.8-5.4,6.4-10.4,10.7-14.7C730.5,39.3,745.2,32.7,761.5,32.7L761.5,32.7z M761.5,74.3c4.8,0,9.1,1.9,12.3,5.1
				c1.8,1.8,3.2,4,4.1,6.5c-1,1.3-2,2.6-2.9,4c-0.4-3-1.8-5.7-3.9-7.8c-2.5-2.5-5.8-4-9.6-4c-3.7,0-7.1,1.5-9.6,4
				c-2,2-3.4,4.7-3.9,7.8c-0.9-1.4-1.9-2.7-2.9-4c0.9-2.5,2.3-4.7,4.1-6.5C752.3,76.2,756.7,74.3,761.5,74.3L761.5,74.3z
				 M761.5,63.9c7.7,0,14.6,3.1,19.6,8.1c1.7,1.7,3.3,3.7,4.5,5.9c-1,0.8-2,1.7-2.9,2.6c-1.1-2.2-2.6-4.1-4.3-5.8
				c-4.3-4.3-10.3-7-16.9-7c-6.6,0-12.6,2.7-16.9,7c-1.7,1.7-3.2,3.7-4.3,5.8c-0.9-0.9-1.9-1.8-2.9-2.6c1.2-2.2,2.7-4.1,4.5-5.9
				C746.9,67,753.8,63.9,761.5,63.9L761.5,63.9z M761.5,53.5c10.5,0,20.1,4.3,27,11.2c2.2,2.2,4.1,4.6,5.6,7.2
				c-1.1,0.6-2.2,1.3-3.2,2c-1.4-2.4-3.2-4.6-5.1-6.5c-6.2-6.2-14.8-10.1-24.3-10.1c-9.5,0-18.1,3.8-24.3,10.1c-2,2-3.7,4.1-5.1,6.5
				c-1-0.7-2.1-1.4-3.2-2c1.6-2.6,3.5-5,5.6-7.2C741.4,57.8,750.9,53.5,761.5,53.5L761.5,53.5z M761.5,43.1
				c13.4,0,25.5,5.4,34.3,14.2c3,3,5.6,6.4,7.7,10.1c-1.2,0.4-2.4,0.9-3.6,1.4c-1.9-3.2-4.2-6.2-6.9-8.8
				c-8.1-8.1-19.3-13.1-31.6-13.1c-12.4,0-23.5,5-31.6,13.1c-2.6,2.6-5,5.6-6.9,8.8c-1.2-0.5-2.3-1-3.5-1.4
				c2.1-3.7,4.7-7.1,7.7-10.1C735.9,48.6,748.1,43.1,761.5,43.1L761.5,43.1z"/>
			<path class="st3" d="M761.5,95c16.3,0,31,6.6,41.7,17.3c4.3,4.3,7.9,9.3,10.7,14.7c-1.3,0.2-2.6,0.5-3.9,0.8
				c-2.6-4.7-5.8-9-9.6-12.8c-10-10-23.8-16.1-39-16.1c-15.2,0-29,6.2-39,16.1c-3.8,3.8-7,8.1-9.6,12.8c-1.3-0.3-2.6-0.6-3.9-0.8
				c2.8-5.5,6.4-10.4,10.7-14.7C730.5,101.6,745.2,95,761.5,95L761.5,95z M761.5,136.6c4.8,0,9.1,1.9,12.3,5.1
				c1.8,1.8,3.2,4,4.1,6.5c-1,1.3-2,2.6-2.9,4c-0.4-3-1.8-5.7-3.9-7.8c-2.5-2.5-5.8-4-9.6-4c-3.7,0-7.1,1.5-9.6,4
				c-2,2-3.4,4.7-3.9,7.8c-0.9-1.4-1.9-2.7-2.9-4c0.9-2.5,2.3-4.7,4.1-6.5C752.3,138.5,756.7,136.6,761.5,136.6L761.5,136.6z
				 M761.5,126.2c7.7,0,14.6,3.1,19.6,8.1c1.7,1.7,3.3,3.7,4.5,5.9c-1,0.8-2,1.7-2.9,2.6c-1.1-2.2-2.6-4.1-4.3-5.8
				c-4.3-4.3-10.3-7-16.9-7c-6.6,0-12.6,2.7-16.9,7c-1.7,1.7-3.2,3.7-4.3,5.8c-0.9-0.9-1.9-1.8-2.9-2.6c1.2-2.2,2.7-4.1,4.5-5.9
				C746.9,129.3,753.8,126.2,761.5,126.2L761.5,126.2z M761.5,115.8c10.5,0,20.1,4.3,27,11.2c2.2,2.2,4.1,4.6,5.6,7.2
				c-1.1,0.6-2.2,1.3-3.2,2c-1.4-2.4-3.2-4.6-5.1-6.5c-6.2-6.2-14.8-10.1-24.3-10.1c-9.5,0-18.1,3.8-24.3,10.1c-2,2-3.7,4.1-5.1,6.5
				c-1-0.7-2.1-1.4-3.2-2c1.6-2.6,3.5-5,5.6-7.2C741.4,120.1,750.9,115.8,761.5,115.8L761.5,115.8z M761.5,105.4
				c13.4,0,25.5,5.4,34.3,14.2c3,3,5.6,6.4,7.7,10.1c-1.2,0.4-2.4,0.9-3.6,1.4c-1.9-3.2-4.2-6.2-6.9-8.9
				c-8.1-8.1-19.3-13.1-31.6-13.1c-12.4,0-23.5,5-31.6,13.1c-2.6,2.6-5,5.6-6.9,8.9c-1.2-0.5-2.3-1-3.5-1.4
				c2.1-3.7,4.7-7.1,7.7-10.1C735.9,110.8,748.1,105.4,761.5,105.4L761.5,105.4z"/>
			<path class="st3" d="M823.8,2.3c16.3,0,31,6.6,41.7,17.3c4.3,4.3,7.9,9.3,10.7,14.7c-1.3,0.2-2.6,0.5-3.9,0.8
				c-2.6-4.7-5.8-9-9.6-12.8c-10-10-23.8-16.1-39-16.1s-29,6.2-39,16.1c-3.8,3.8-7,8.1-9.6,12.8c-1.3-0.3-2.6-0.6-3.9-0.8
				c2.8-5.4,6.4-10.4,10.7-14.7C792.8,8.9,807.5,2.3,823.8,2.3L823.8,2.3z M823.8,43.9c4.8,0,9.1,1.9,12.3,5.1
				c1.8,1.8,3.2,4,4.1,6.5c-1,1.3-2,2.6-2.9,4c-0.4-3-1.8-5.7-3.8-7.8c-2.5-2.5-5.8-4-9.6-4s-7.1,1.5-9.6,4c-2,2-3.4,4.7-3.9,7.8
				c-0.9-1.4-1.9-2.7-2.9-4c0.9-2.5,2.3-4.7,4.1-6.5C814.7,45.8,819,43.9,823.8,43.9L823.8,43.9z M823.8,33.5
				c7.7,0,14.6,3.1,19.6,8.1c1.7,1.7,3.3,3.7,4.5,5.9c-1,0.8-1.9,1.7-2.9,2.6c-1.1-2.2-2.6-4.1-4.3-5.8c-4.3-4.3-10.3-7-16.9-7
				c-6.6,0-12.6,2.7-16.9,7c-1.7,1.7-3.2,3.7-4.3,5.8c-0.9-0.9-1.9-1.8-2.9-2.6c1.2-2.2,2.7-4.1,4.5-5.9
				C809.2,36.6,816.1,33.5,823.8,33.5L823.8,33.5z M823.8,23.1c10.5,0,20.1,4.3,27,11.2c2.2,2.2,4.1,4.6,5.6,7.2
				c-1.1,0.6-2.2,1.3-3.2,2c-1.4-2.4-3.2-4.6-5.1-6.5c-6.2-6.2-14.8-10.1-24.3-10.1c-9.5,0-18.1,3.8-24.3,10.1c-2,2-3.7,4.1-5.1,6.5
				c-1-0.7-2.1-1.4-3.2-2c1.6-2.6,3.5-5,5.6-7.2C803.7,27.4,813.3,23.1,823.8,23.1L823.8,23.1z M823.8,12.7
				c13.4,0,25.5,5.4,34.3,14.2c3,3,5.6,6.4,7.7,10.1c-1.2,0.4-2.4,0.9-3.5,1.4c-1.9-3.2-4.2-6.2-6.9-8.8
				c-8.1-8.1-19.3-13.1-31.6-13.1c-12.4,0-23.5,5-31.6,13.1c-2.6,2.6-5,5.6-6.9,8.8c-1.2-0.5-2.3-1-3.6-1.4
				c2.1-3.7,4.7-7.1,7.7-10.1C798.3,18.2,810.4,12.7,823.8,12.7L823.8,12.7z"/>
			<path class="st3" d="M823.8,64.6c16.3,0,31,6.6,41.7,17.3c4.3,4.3,7.9,9.3,10.7,14.7c-1.3,0.2-2.6,0.5-3.9,0.8
				c-2.6-4.7-5.8-9-9.6-12.8c-10-10-23.8-16.1-39-16.1s-29,6.2-39,16.1c-3.8,3.8-7,8.1-9.6,12.8c-1.3-0.3-2.6-0.6-3.9-0.8
				c2.8-5.5,6.4-10.4,10.7-14.7C792.8,71.2,807.5,64.6,823.8,64.6L823.8,64.6z M823.8,106.2c4.8,0,9.1,1.9,12.3,5.1
				c1.8,1.8,3.2,4,4.1,6.5c-1,1.3-2,2.6-2.9,4c-0.4-3-1.8-5.7-3.8-7.8c-2.5-2.5-5.8-4-9.6-4s-7.1,1.5-9.6,4c-2,2-3.4,4.7-3.9,7.8
				c-0.9-1.4-1.9-2.7-2.9-4c0.9-2.5,2.3-4.7,4.1-6.5C814.7,108.1,819,106.2,823.8,106.2L823.8,106.2z M823.8,95.8
				c7.7,0,14.6,3.1,19.6,8.1c1.7,1.7,3.3,3.7,4.5,5.9c-1,0.8-1.9,1.7-2.9,2.6c-1.1-2.2-2.6-4.1-4.3-5.8c-4.3-4.3-10.3-7-16.9-7
				c-6.6,0-12.6,2.7-16.9,7c-1.7,1.7-3.2,3.7-4.3,5.8c-0.9-0.9-1.9-1.8-2.9-2.6c1.2-2.2,2.7-4.1,4.5-5.9
				C809.2,98.9,816.1,95.8,823.8,95.8L823.8,95.8z M823.8,85.4c10.5,0,20.1,4.3,27,11.2c2.2,2.2,4.1,4.6,5.6,7.2
				c-1.1,0.6-2.2,1.3-3.2,2c-1.4-2.4-3.2-4.6-5.1-6.5c-6.2-6.2-14.8-10.1-24.3-10.1c-9.5,0-18.1,3.8-24.3,10.1c-2,2-3.7,4.1-5.1,6.5
				c-1-0.7-2.1-1.4-3.2-2c1.6-2.6,3.5-5,5.6-7.2C803.7,89.7,813.3,85.4,823.8,85.4L823.8,85.4z M823.8,75c13.4,0,25.5,5.4,34.3,14.2
				c3,3,5.6,6.4,7.7,10.1c-1.2,0.4-2.4,0.9-3.5,1.4c-1.9-3.2-4.2-6.2-6.9-8.9c-8.1-8.1-19.3-13.1-31.6-13.1
				c-12.4,0-23.5,5-31.6,13.1c-2.6,2.6-5,5.6-6.9,8.9c-1.2-0.5-2.3-1-3.6-1.4c2.1-3.7,4.7-7.1,7.7-10.1
				C798.3,80.4,810.4,75,823.8,75L823.8,75z"/>
			<path class="st3" d="M886.1-28.8c16.3,0,31,6.6,41.7,17.3c4.3,4.3,7.9,9.3,10.7,14.7c-1.3,0.2-2.6,0.5-3.9,0.8
				c-2.6-4.7-5.8-9-9.6-12.8c-10-10-23.8-16.1-39-16.1c-15.2,0-29,6.2-39,16.1c-3.8,3.8-7,8.1-9.6,12.8c-1.3-0.3-2.6-0.6-3.9-0.8
				c2.8-5.5,6.4-10.4,10.7-14.7C855.1-22.2,869.8-28.8,886.1-28.8L886.1-28.8z M886.1,12.8c4.8,0,9.1,1.9,12.3,5.1
				c1.8,1.8,3.2,4,4.1,6.5c-1,1.3-2,2.6-2.9,4c-0.4-3-1.8-5.7-3.9-7.8c-2.5-2.5-5.9-4-9.6-4s-7.1,1.5-9.6,4c-2,2-3.4,4.7-3.9,7.8
				c-0.9-1.4-1.9-2.7-2.9-4c0.9-2.5,2.3-4.7,4.1-6.5C876.9,14.7,881.3,12.8,886.1,12.8L886.1,12.8z M886.1,2.4
				c7.7,0,14.6,3.1,19.6,8.1c1.7,1.7,3.3,3.7,4.5,5.9c-1,0.8-2,1.7-2.9,2.6c-1.1-2.2-2.6-4.1-4.3-5.8c-4.3-4.3-10.3-7-16.9-7
				c-6.6,0-12.6,2.7-16.9,7c-1.7,1.7-3.2,3.7-4.3,5.8c-0.9-0.9-1.9-1.8-2.9-2.6c1.2-2.2,2.7-4.1,4.5-5.9
				C871.5,5.5,878.4,2.4,886.1,2.4L886.1,2.4z M886.1-8c10.5,0,20.1,4.3,27,11.2c2.2,2.2,4.1,4.6,5.6,7.2c-1.1,0.6-2.2,1.3-3.2,2
				c-1.4-2.4-3.2-4.6-5.1-6.5c-6.2-6.2-14.8-10.1-24.3-10.1c-9.5,0-18.1,3.8-24.3,10.1c-2,2-3.7,4.1-5.1,6.5c-1-0.7-2.1-1.4-3.2-2
				c1.6-2.6,3.5-5,5.6-7.2C866-3.8,875.5-8,886.1-8L886.1-8z M886.1-18.4c13.4,0,25.5,5.4,34.3,14.2c3,3,5.6,6.4,7.7,10.1
				c-1.2,0.4-2.4,0.9-3.6,1.4c-1.9-3.2-4.2-6.2-6.9-8.8c-8.1-8.1-19.3-13.1-31.6-13.1c-12.4,0-23.5,5-31.6,13.1
				c-2.6,2.6-5,5.6-6.9,8.8c-1.2-0.5-2.3-1-3.5-1.4c2.1-3.7,4.7-7.1,7.7-10.1C860.5-13,872.7-18.4,886.1-18.4L886.1-18.4z"/>
			<path class="st3" d="M886.1,33.5c16.3,0,31,6.6,41.7,17.3c4.3,4.3,7.9,9.3,10.7,14.7c-1.3,0.2-2.6,0.5-3.9,0.8
				c-2.6-4.7-5.8-9-9.6-12.8c-10-10-23.8-16.1-39-16.1c-15.2,0-29,6.2-39,16.1c-3.8,3.8-7,8.1-9.6,12.8c-1.3-0.3-2.6-0.6-3.9-0.8
				c2.8-5.5,6.4-10.4,10.7-14.7C855.1,40.1,869.8,33.5,886.1,33.5L886.1,33.5z M886.1,75c4.8,0,9.1,1.9,12.3,5.1
				c1.8,1.8,3.2,4,4.1,6.5c-1,1.3-2,2.6-2.9,3.9c-0.4-3-1.8-5.7-3.9-7.8c-2.5-2.5-5.9-4-9.6-4s-7.1,1.5-9.6,4c-2,2-3.4,4.7-3.9,7.8
				c-0.9-1.4-1.9-2.7-2.9-3.9c0.9-2.5,2.3-4.7,4.1-6.5C876.9,77,881.3,75,886.1,75L886.1,75z M886.1,64.6c7.7,0,14.6,3.1,19.6,8.1
				c1.7,1.7,3.3,3.7,4.5,5.9c-1,0.8-2,1.7-2.9,2.6c-1.1-2.2-2.6-4.1-4.3-5.8c-4.3-4.3-10.3-7-16.9-7c-6.6,0-12.6,2.7-16.9,7
				c-1.7,1.7-3.2,3.7-4.3,5.8c-0.9-0.9-1.9-1.8-2.9-2.6c1.2-2.2,2.7-4.1,4.5-5.9C871.5,67.8,878.4,64.6,886.1,64.6L886.1,64.6z
				 M886.1,54.3c10.5,0,20.1,4.3,27,11.2c2.2,2.2,4.1,4.6,5.6,7.2c-1.1,0.6-2.2,1.3-3.2,2c-1.4-2.4-3.2-4.6-5.1-6.5
				c-6.2-6.2-14.8-10.1-24.3-10.1c-9.5,0-18.1,3.8-24.3,10.1c-2,2-3.7,4.1-5.1,6.5c-1-0.7-2.1-1.4-3.2-2c1.6-2.6,3.5-5,5.6-7.2
				C866,58.5,875.5,54.3,886.1,54.3L886.1,54.3z M886.1,43.9c13.4,0,25.5,5.4,34.3,14.2c3,3,5.6,6.4,7.7,10.1
				c-1.2,0.4-2.4,0.9-3.6,1.4c-1.9-3.2-4.2-6.2-6.9-8.9c-8.1-8.1-19.3-13.1-31.6-13.1c-12.4,0-23.5,5-31.6,13.1
				c-2.6,2.6-5,5.6-6.9,8.9c-1.2-0.5-2.3-1-3.5-1.4c2.1-3.7,4.7-7.1,7.7-10.1C860.5,49.3,872.7,43.9,886.1,43.9L886.1,43.9z"/>
			<path class="st3" d="M886.1,95.8c16.3,0,31,6.6,41.7,17.3c4.3,4.3,7.9,9.3,10.7,14.7c-1.3,0.2-2.6,0.5-3.9,0.8
				c-2.6-4.7-5.8-9-9.6-12.8c-10-10-23.8-16.1-39-16.1c-15.2,0-29,6.2-39,16.1c-3.8,3.8-7,8.1-9.6,12.8c-1.3-0.3-2.6-0.6-3.9-0.8
				c2.8-5.5,6.4-10.4,10.7-14.7C855.1,102.3,869.8,95.8,886.1,95.8L886.1,95.8z M886.1,137.3c4.8,0,9.1,1.9,12.3,5.1
				c1.8,1.8,3.2,4,4.1,6.5c-1,1.3-2,2.6-2.9,3.9c-0.4-3-1.8-5.7-3.9-7.8c-2.5-2.5-5.9-4-9.6-4s-7.1,1.5-9.6,4c-2,2-3.4,4.7-3.9,7.8
				c-0.9-1.4-1.9-2.7-2.9-3.9c0.9-2.5,2.3-4.7,4.1-6.5C876.9,139.3,881.3,137.3,886.1,137.3L886.1,137.3z M886.1,126.9
				c7.7,0,14.6,3.1,19.6,8.1c1.7,1.7,3.3,3.7,4.5,5.9c-1,0.8-2,1.7-2.9,2.6c-1.1-2.2-2.6-4.1-4.3-5.8c-4.3-4.3-10.3-7-16.9-7
				c-6.6,0-12.6,2.7-16.9,7c-1.7,1.7-3.2,3.7-4.3,5.8c-0.9-0.9-1.9-1.8-2.9-2.6c1.2-2.2,2.7-4.1,4.5-5.9
				C871.5,130,878.4,126.9,886.1,126.9L886.1,126.9z M886.1,116.5c10.5,0,20.1,4.3,27,11.2c2.2,2.2,4.1,4.6,5.6,7.2
				c-1.1,0.6-2.2,1.3-3.2,2c-1.4-2.4-3.2-4.6-5.1-6.5c-6.2-6.2-14.8-10.1-24.3-10.1c-9.5,0-18.1,3.8-24.3,10.1c-2,2-3.7,4.1-5.1,6.5
				c-1-0.7-2.1-1.4-3.2-2c1.6-2.6,3.5-5,5.6-7.2C866,120.8,875.5,116.5,886.1,116.5L886.1,116.5z M886.1,106.1
				c13.4,0,25.5,5.4,34.3,14.2c3,3,5.6,6.4,7.7,10.1c-1.2,0.4-2.4,0.9-3.6,1.4c-1.9-3.2-4.2-6.2-6.9-8.8
				c-8.1-8.1-19.3-13.1-31.6-13.1c-12.4,0-23.5,5-31.6,13.1c-2.6,2.6-5,5.6-6.9,8.8c-1.2-0.5-2.3-1-3.5-1.4
				c2.1-3.7,4.7-7.1,7.7-10.1C860.5,111.6,872.7,106.1,886.1,106.1L886.1,106.1z"/>
			<path class="st3" d="M948.4,2.3c16.3,0,31,6.6,41.7,17.3c4.3,4.3,7.9,9.3,10.7,14.7c-1.3,0.2-2.6,0.5-3.9,0.8
				c-2.6-4.7-5.8-9-9.6-12.8c-10-10-23.8-16.1-39-16.1s-29,6.2-39,16.1c-3.8,3.8-7,8.1-9.6,12.8c-1.3-0.3-2.6-0.6-3.9-0.8
				c2.8-5.4,6.4-10.4,10.7-14.7C917.4,8.9,932.1,2.3,948.4,2.3L948.4,2.3z M948.4,43.9c4.8,0,9.1,1.9,12.3,5.1
				c1.8,1.8,3.2,4,4.1,6.5c-1,1.3-2,2.6-2.9,4c-0.4-3-1.8-5.7-3.9-7.8c-2.5-2.5-5.8-4-9.6-4c-3.7,0-7.1,1.5-9.6,4
				c-2,2-3.4,4.7-3.9,7.8c-0.9-1.4-1.9-2.7-2.9-4c0.9-2.5,2.3-4.7,4.1-6.5C939.2,45.8,943.6,43.9,948.4,43.9L948.4,43.9z
				 M948.4,33.5c7.7,0,14.6,3.1,19.6,8.1c1.7,1.7,3.3,3.7,4.5,5.9c-1,0.8-2,1.7-2.9,2.6c-1.1-2.2-2.6-4.1-4.3-5.8
				c-4.3-4.3-10.3-7-16.9-7c-6.6,0-12.6,2.7-16.9,7c-1.7,1.7-3.2,3.7-4.3,5.8c-0.9-0.9-1.9-1.8-2.9-2.6c1.2-2.2,2.7-4.1,4.5-5.9
				C933.8,36.6,940.7,33.5,948.4,33.5L948.4,33.5z M948.4,23.1c10.5,0,20.1,4.3,27,11.2c2.2,2.2,4.1,4.6,5.6,7.2
				c-1.1,0.6-2.2,1.3-3.2,2c-1.4-2.4-3.2-4.6-5.1-6.5c-6.2-6.2-14.8-10.1-24.3-10.1c-9.5,0-18.1,3.8-24.3,10.1c-2,2-3.7,4.1-5.1,6.5
				c-1-0.7-2.1-1.4-3.2-2c1.6-2.6,3.5-5,5.6-7.2C928.3,27.4,937.8,23.1,948.4,23.1L948.4,23.1z M948.4,12.7
				c13.4,0,25.5,5.4,34.3,14.2c3,3,5.6,6.4,7.7,10.1c-1.2,0.4-2.4,0.9-3.5,1.4c-1.9-3.2-4.2-6.2-6.9-8.8
				c-8.1-8.1-19.3-13.1-31.6-13.1c-12.4,0-23.5,5-31.6,13.1c-2.6,2.6-5,5.6-6.9,8.8c-1.2-0.5-2.3-1-3.5-1.4
				c2.1-3.7,4.7-7.1,7.7-10.1C922.8,18.2,935,12.7,948.4,12.7L948.4,12.7z"/>
			<path class="st3" d="M948.4,64.6c16.3,0,31,6.6,41.7,17.3c4.3,4.3,7.9,9.3,10.7,14.7c-1.3,0.2-2.6,0.5-3.9,0.8
				c-2.6-4.7-5.8-9-9.6-12.8c-10-10-23.8-16.1-39-16.1s-29,6.2-39,16.1c-3.8,3.8-7,8.1-9.6,12.8c-1.3-0.3-2.6-0.6-3.9-0.8
				c2.8-5.5,6.4-10.4,10.7-14.7C917.4,71.2,932.1,64.6,948.4,64.6L948.4,64.6z M948.4,106.2c4.8,0,9.1,1.9,12.3,5.1
				c1.8,1.8,3.2,4,4.1,6.5c-1,1.3-2,2.6-2.9,4c-0.4-3-1.8-5.7-3.9-7.8c-2.5-2.5-5.8-4-9.6-4c-3.7,0-7.1,1.5-9.6,4
				c-2,2-3.4,4.7-3.9,7.8c-0.9-1.4-1.9-2.7-2.9-4c0.9-2.5,2.3-4.7,4.1-6.5C939.2,108.1,943.6,106.2,948.4,106.2L948.4,106.2z
				 M948.4,95.8c7.7,0,14.6,3.1,19.6,8.1c1.7,1.7,3.3,3.7,4.5,5.9c-1,0.8-2,1.7-2.9,2.6c-1.1-2.2-2.6-4.1-4.3-5.8
				c-4.3-4.3-10.3-7-16.9-7c-6.6,0-12.6,2.7-16.9,7c-1.7,1.7-3.2,3.7-4.3,5.8c-0.9-0.9-1.9-1.8-2.9-2.6c1.2-2.2,2.7-4.1,4.5-5.9
				C933.8,98.9,940.7,95.8,948.4,95.8L948.4,95.8z M948.4,85.4c10.5,0,20.1,4.3,27,11.2c2.2,2.2,4.1,4.6,5.6,7.2
				c-1.1,0.6-2.2,1.3-3.2,2c-1.4-2.4-3.2-4.6-5.1-6.5c-6.2-6.2-14.8-10.1-24.3-10.1c-9.5,0-18.1,3.8-24.3,10.1c-2,2-3.7,4.1-5.1,6.5
				c-1-0.7-2.1-1.4-3.2-2c1.6-2.6,3.5-5,5.6-7.2C928.3,89.7,937.8,85.4,948.4,85.4L948.4,85.4z M948.4,75c13.4,0,25.5,5.4,34.3,14.2
				c3,3,5.6,6.4,7.7,10.1c-1.2,0.4-2.4,0.9-3.5,1.4c-1.9-3.2-4.2-6.2-6.9-8.9c-8.1-8.1-19.3-13.1-31.6-13.1
				c-12.4,0-23.5,5-31.6,13.1c-2.6,2.6-5,5.6-6.9,8.9c-1.2-0.5-2.3-1-3.5-1.4c2.1-3.7,4.7-7.1,7.7-10.1C922.8,80.4,935,75,948.4,75
				L948.4,75z"/>
			<path class="st3" d="M1010.6-28.8c16.3,0,31,6.6,41.7,17.3c4.3,4.3,7.9,9.3,10.7,14.7c-1.3,0.2-2.6,0.5-3.9,0.8
				c-2.6-4.7-5.8-9-9.6-12.8c-10-10-23.8-16.1-39-16.1c-15.2,0-29,6.2-39,16.1c-3.8,3.8-7,8.1-9.6,12.8c-1.3-0.3-2.6-0.6-3.9-0.8
				c2.8-5.5,6.4-10.4,10.7-14.7C979.6-22.2,994.4-28.8,1010.6-28.8L1010.6-28.8z M1010.6,12.8c4.8,0,9.1,1.9,12.3,5.1
				c1.8,1.8,3.2,4,4.1,6.5c-1,1.3-2,2.6-2.9,4c-0.4-3-1.8-5.7-3.9-7.8c-2.5-2.5-5.9-4-9.6-4c-3.7,0-7.1,1.5-9.6,4
				c-2,2-3.4,4.7-3.9,7.8c-0.9-1.4-1.9-2.7-2.9-4c0.9-2.5,2.3-4.7,4.1-6.5C1001.5,14.7,1005.8,12.8,1010.6,12.8L1010.6,12.8z
				 M1010.6,2.4c7.7,0,14.6,3.1,19.6,8.1c1.7,1.7,3.3,3.7,4.5,5.9c-1,0.8-1.9,1.7-2.9,2.6c-1.1-2.2-2.6-4.1-4.3-5.8
				c-4.3-4.3-10.3-7-16.9-7c-6.6,0-12.6,2.7-16.9,7c-1.7,1.7-3.2,3.7-4.3,5.8c-0.9-0.9-1.9-1.8-2.9-2.6c1.2-2.2,2.7-4.1,4.5-5.9
				C996,5.5,1003,2.4,1010.6,2.4L1010.6,2.4z M1010.6-8c10.5,0,20.1,4.3,27,11.2c2.2,2.2,4.1,4.6,5.6,7.2c-1.1,0.6-2.2,1.3-3.2,2
				c-1.4-2.4-3.2-4.6-5.1-6.5c-6.2-6.2-14.8-10.1-24.3-10.1c-9.5,0-18.1,3.8-24.3,10.1c-2,2-3.7,4.1-5.1,6.5c-1-0.7-2.1-1.4-3.2-2
				c1.6-2.6,3.5-5,5.6-7.2C990.6-3.8,1000.1-8,1010.6-8L1010.6-8z M1010.6-18.4c13.4,0,25.5,5.4,34.3,14.2c3,3,5.6,6.4,7.7,10.1
				c-1.2,0.4-2.4,0.9-3.6,1.4c-1.9-3.2-4.2-6.2-6.9-8.8c-8.1-8.1-19.3-13.1-31.6-13.1c-12.4,0-23.5,5-31.6,13.1
				c-2.6,2.6-5,5.6-6.9,8.8c-1.2-0.5-2.3-1-3.5-1.4c2.1-3.7,4.7-7.1,7.7-10.1C985.1-13,997.2-18.4,1010.6-18.4L1010.6-18.4z"/>
			<path class="st3" d="M1010.6,33.5c16.3,0,31,6.6,41.7,17.3c4.3,4.3,7.9,9.3,10.7,14.7c-1.3,0.2-2.6,0.5-3.9,0.8
				c-2.6-4.7-5.8-9-9.6-12.8c-10-10-23.8-16.1-39-16.1c-15.2,0-29,6.2-39,16.1c-3.8,3.8-7,8.1-9.6,12.8c-1.3-0.3-2.6-0.6-3.9-0.8
				C961,60,964.7,55,969,50.7C979.6,40.1,994.4,33.5,1010.6,33.5L1010.6,33.5z M1010.6,75c4.8,0,9.1,1.9,12.3,5.1
				c1.8,1.8,3.2,4,4.1,6.5c-1,1.3-2,2.6-2.9,3.9c-0.4-3-1.8-5.7-3.9-7.8c-2.5-2.5-5.9-4-9.6-4c-3.7,0-7.1,1.5-9.6,4
				c-2,2-3.4,4.7-3.9,7.8c-0.9-1.4-1.9-2.7-2.9-3.9c0.9-2.5,2.3-4.7,4.1-6.5C1001.5,77,1005.8,75,1010.6,75L1010.6,75z M1010.6,64.6
				c7.7,0,14.6,3.1,19.6,8.1c1.7,1.7,3.3,3.7,4.5,5.9c-1,0.8-1.9,1.7-2.9,2.6c-1.1-2.2-2.6-4.1-4.3-5.8c-4.3-4.3-10.3-7-16.9-7
				c-6.6,0-12.6,2.7-16.9,7c-1.7,1.7-3.2,3.7-4.3,5.8c-0.9-0.9-1.9-1.8-2.9-2.6c1.2-2.2,2.7-4.1,4.5-5.9
				C996,67.8,1003,64.6,1010.6,64.6L1010.6,64.6z M1010.6,54.3c10.5,0,20.1,4.3,27,11.2c2.2,2.2,4.1,4.6,5.6,7.2
				c-1.1,0.6-2.2,1.3-3.2,2c-1.4-2.4-3.2-4.6-5.1-6.5c-6.2-6.2-14.8-10.1-24.3-10.1c-9.5,0-18.1,3.8-24.3,10.1c-2,2-3.7,4.1-5.1,6.5
				c-1-0.7-2.1-1.4-3.2-2c1.6-2.6,3.5-5,5.6-7.2C990.6,58.5,1000.1,54.3,1010.6,54.3L1010.6,54.3z M1010.6,43.9
				c13.4,0,25.5,5.4,34.3,14.2c3,3,5.6,6.4,7.7,10.1c-1.2,0.4-2.4,0.9-3.6,1.4c-1.9-3.2-4.2-6.2-6.9-8.9
				c-8.1-8.1-19.3-13.1-31.6-13.1c-12.4,0-23.5,5-31.6,13.1c-2.6,2.6-5,5.6-6.9,8.9c-1.2-0.5-2.3-1-3.5-1.4
				c2.1-3.7,4.7-7.1,7.7-10.1C985.1,49.3,997.2,43.9,1010.6,43.9L1010.6,43.9z"/>
			<path class="st3" d="M1010.6,95.8c16.3,0,31,6.6,41.7,17.3c4.3,4.3,7.9,9.3,10.7,14.7c-1.3,0.2-2.6,0.5-3.9,0.8
				c-2.6-4.7-5.8-9-9.6-12.8c-10-10-23.8-16.1-39-16.1c-15.2,0-29,6.2-39,16.1c-3.8,3.8-7,8.1-9.6,12.8c-1.3-0.3-2.6-0.6-3.9-0.8
				c2.8-5.5,6.4-10.4,10.7-14.7C979.6,102.3,994.4,95.8,1010.6,95.8L1010.6,95.8z M1010.6,137.3c4.8,0,9.1,1.9,12.3,5.1
				c1.8,1.8,3.2,4,4.1,6.5c-1,1.3-2,2.6-2.9,3.9c-0.4-3-1.8-5.7-3.9-7.8c-2.5-2.5-5.9-4-9.6-4c-3.7,0-7.1,1.5-9.6,4
				c-2,2-3.4,4.7-3.9,7.8c-0.9-1.4-1.9-2.7-2.9-3.9c0.9-2.5,2.3-4.7,4.1-6.5C1001.5,139.3,1005.8,137.3,1010.6,137.3L1010.6,137.3z
				 M1010.6,126.9c7.7,0,14.6,3.1,19.6,8.1c1.7,1.7,3.3,3.7,4.5,5.9c-1,0.8-1.9,1.7-2.9,2.6c-1.1-2.2-2.6-4.1-4.3-5.8
				c-4.3-4.3-10.3-7-16.9-7c-6.6,0-12.6,2.7-16.9,7c-1.7,1.7-3.2,3.7-4.3,5.8c-0.9-0.9-1.9-1.8-2.9-2.6c1.2-2.2,2.7-4.1,4.5-5.9
				C996,130,1003,126.9,1010.6,126.9L1010.6,126.9z M1010.6,116.5c10.5,0,20.1,4.3,27,11.2c2.2,2.2,4.1,4.6,5.6,7.2
				c-1.1,0.6-2.2,1.3-3.2,2c-1.4-2.4-3.2-4.6-5.1-6.5c-6.2-6.2-14.8-10.1-24.3-10.1c-9.5,0-18.1,3.8-24.3,10.1c-2,2-3.7,4.1-5.1,6.5
				c-1-0.7-2.1-1.4-3.2-2c1.6-2.6,3.5-5,5.6-7.2C990.6,120.8,1000.1,116.5,1010.6,116.5L1010.6,116.5z M1010.6,106.1
				c13.4,0,25.5,5.4,34.3,14.2c3,3,5.6,6.4,7.7,10.1c-1.2,0.4-2.4,0.9-3.6,1.4c-1.9-3.2-4.2-6.2-6.9-8.8
				c-8.1-8.1-19.3-13.1-31.6-13.1c-12.4,0-23.5,5-31.6,13.1c-2.6,2.6-5,5.6-6.9,8.8c-1.2-0.5-2.3-1-3.5-1.4
				c2.1-3.7,4.7-7.1,7.7-10.1C985.1,111.6,997.2,106.1,1010.6,106.1L1010.6,106.1z"/>
		</g>
	</g>
</g>
</svg>
